<svg width="1880" height="608" viewBox="0 0 1880 608" fill="none" xmlns="http://www.w3.org/2000/svg">
<g opacity="0.6" clip-path="url(#clip0)">
<path fill-rule="evenodd" clip-rule="evenodd" d="M1880 0L1801.67 2.4811C1723.33 4.9622 1566.67 9.92439 1410 24.811C1253.33 39.6976 1096.67 64.5086 940 66.9897C783.333 69.4708 626.667 49.622 470 49.622C313.333 49.622 156.667 69.4708 78.3333 79.3954L0 89.3196V119.093H78.3333C156.667 119.093 313.333 119.093 470 119.093C626.667 119.093 783.333 119.093 940 119.093C1096.67 119.093 1253.33 119.093 1410 119.093C1566.67 119.093 1723.33 119.093 1801.67 119.093H1880V0Z" fill="#00C89E"/>
<path fill-rule="evenodd" clip-rule="evenodd" d="M0 608.093L78.3333 605.612C156.667 603.131 313.333 598.169 470 583.282C626.667 568.395 783.333 543.584 940 541.103C1096.67 538.622 1253.33 558.471 1410 558.471C1566.67 558.471 1723.33 538.622 1801.67 528.698L1880 518.773V489H1801.67C1723.33 489 1566.67 489 1410 489C1253.33 489 1096.67 489 940 489C783.333 489 626.667 489 470 489C313.333 489 156.667 489 78.3333 489H0V608.093Z" fill="#00C89E"/>
<path d="M0 100H1880V508H0V100Z" fill="#00C89E"/>
</g>
<defs>
<clipPath id="clip0">
<rect width="1880" height="608" fill="white"/>
</clipPath>
</defs>
</svg>
