<svg width="1880" height="167" viewBox="0 0 1880 167" fill="none" xmlns="http://www.w3.org/2000/svg">
<path fill-rule="evenodd" clip-rule="evenodd" d="M1880 0L1801.67 3.4768C1723.33 6.95361 1566.67 13.9072 1410 34.768C1253.33 55.6289 1096.67 90.3969 940 93.8737C783.333 97.3505 626.667 69.5361 470 69.5361C313.333 69.5361 156.667 97.3505 78.3333 111.258L0 125.165V166.887H78.3333C156.667 166.887 313.333 166.887 470 166.887C626.667 166.887 783.333 166.887 940 166.887C1096.67 166.887 1253.33 166.887 1410 166.887C1566.67 166.887 1723.33 166.887 1801.67 166.887H1880V0Z" fill="#00C89E"/>
</svg>
