<svg width="538" height="200" viewBox="0 0 538 200" fill="none" xmlns="http://www.w3.org/2000/svg">
<path d="M0 20.2817C0 9.08042 8.92115 0 19.9259 0H518.074C529.079 0 538 9.08043 538 20.2817V144H0V20.2817Z" fill="#FD8B70"/>
<path fill-rule="evenodd" clip-rule="evenodd" d="M0 174.683L22.4167 178.768C44.8333 182.854 89.6667 191.025 134.5 185.577C179.333 180.13 224.167 167.167 269 157.635C313.833 148.102 330.351 141.949 375.184 146.035C420.018 150.12 467.21 167.722 484.672 174.683L538 200V142H515.583C493.167 142 448.333 142 403.5 142C358.667 142 313.833 142 269 142C224.167 142 179.333 142 134.5 142C89.6667 142 44.8333 142 22.4167 142H0V174.683Z" fill="#FD8B70"/>
</svg>
