<svg width="1880" height="349" viewBox="0 0 1880 349" fill="none" xmlns="http://www.w3.org/2000/svg">
<path fill-rule="evenodd" clip-rule="evenodd" d="M0 0L78.3333 7.26302C156.667 14.526 313.333 29.052 470 72.6302C626.667 116.208 783.333 188.838 940 196.102C1096.67 203.364 1253.33 145.26 1410 145.26C1566.67 145.26 1723.33 203.364 1801.66 232.416L1880 261.469V348.625H1801.66C1723.33 348.625 1566.67 348.625 1410 348.625C1253.33 348.625 1096.67 348.625 940 348.625C783.333 348.625 626.667 348.625 470 348.625C313.333 348.625 156.667 348.625 78.3333 348.625H0V0Z" fill="#00C89E"/>
</svg>
