<svg width="1879" height="167" viewBox="0 0 1879 167" fill="none" xmlns="http://www.w3.org/2000/svg">
<path fill-rule="evenodd" clip-rule="evenodd" d="M-1 167L77.3333 163.523C155.667 160.046 312.333 153.093 469 132.232C625.667 111.371 782.333 76.6031 939 73.1263C1095.67 69.6495 1252.33 97.4639 1409 97.4639C1565.67 97.4639 1722.33 69.6495 1800.67 55.7423L1879 41.8351V0.113403H1800.67C1722.33 0.113403 1565.67 0.113403 1409 0.113403C1252.33 0.113403 1095.67 0.113403 939 0.113403C782.333 0.113403 625.667 0.113403 469 0.113403C312.333 0.113403 155.667 0.113403 77.3333 0.113403H-1V167Z" fill="#00C89E"/>
</svg>
