<svg width="1880" height="608" viewBox="0 0 1880 608" fill="none" xmlns="http://www.w3.org/2000/svg">
<g opacity="0.6" clip-path="url(#clip0)">
<path fill-rule="evenodd" clip-rule="evenodd" d="M-1 608L77.3333 605.519C155.667 603.038 312.333 598.076 469 583.189C625.667 568.302 782.333 543.491 939 541.01C1095.67 538.529 1252.33 558.378 1409 558.378C1565.67 558.378 1722.33 538.529 1800.67 528.605L1879 518.68V488.907H1800.67C1722.33 488.907 1565.67 488.907 1409 488.907C1252.33 488.907 1095.67 488.907 939 488.907C782.333 488.907 625.667 488.907 469 488.907C312.333 488.907 155.667 488.907 77.3333 488.907H-1V608Z" fill="#00C89E"/>
<path fill-rule="evenodd" clip-rule="evenodd" d="M1880 0L1801.67 2.4811C1723.33 4.9622 1566.67 9.92439 1410 24.811C1253.33 39.6976 1096.67 64.5086 940 66.9897C783.333 69.4708 626.667 49.622 470 49.622C313.333 49.622 156.667 69.4708 78.3333 79.3954L0 89.3196V119.093H78.3333C156.667 119.093 313.333 119.093 470 119.093C626.667 119.093 783.333 119.093 940 119.093C1096.67 119.093 1253.33 119.093 1410 119.093C1566.67 119.093 1723.33 119.093 1801.67 119.093H1880V0Z" fill="#00C89E"/>
<path d="M1880 488.907H-0.000488281V304H1880V488.907Z" fill="#00C89E"/>
<path d="M-1 119.093H1879V304H-1V119.093Z" fill="#00C89E"/>
</g>
<defs>
<clipPath id="clip0">
<rect width="1880" height="608" fill="white"/>
</clipPath>
</defs>
</svg>
