<svg width="371" height="357" viewBox="0 0 371 357" fill="none" xmlns="http://www.w3.org/2000/svg">
<path d="M122.018 136.954C59.0382 164.495 55.2709 257.483 144.851 255.703C184.907 254.906 196.61 223.431 232.76 212.385C266.699 202.008 295.961 222.817 330.219 199.253C370.586 171.515 376.384 103.675 316.386 99.1399C290.261 97.1639 280.187 116.709 257.362 121.035C211.09 129.811 168.814 116.5 122.018 136.954Z" fill="#F9F871"/>
<path d="M185.5 305.278C264.955 305.278 329.366 301.659 329.366 297.195C329.366 292.732 264.955 289.113 185.5 289.113C106.045 289.113 41.6336 292.732 41.6336 297.195C41.6336 301.659 106.045 305.278 185.5 305.278Z" fill="#F5F5F5"/>
<path d="M276.247 117.681C278.213 121.373 280.016 125.071 281.73 128.856C283.444 132.64 285.039 136.474 286.434 140.494L286.939 142.015C287.028 142.286 287.154 142.729 287.228 143.043C287.302 143.357 287.369 143.714 287.406 144.014C287.576 145.166 287.663 146.328 287.666 147.491C287.677 149.637 287.573 151.782 287.354 153.917C286.94 158.051 286.266 162.157 285.336 166.212L281.263 165.777C281.211 161.757 281.173 157.694 281.025 153.731C280.958 151.761 280.84 149.783 280.632 147.927C280.538 147.055 280.389 146.189 280.187 145.335C280.15 145.135 280.09 144.985 280.046 144.821C280.001 144.656 279.957 144.599 279.882 144.385L279.319 143.036C277.768 139.423 276.024 135.781 274.243 132.154L268.856 121.273L276.247 117.681Z" fill="#E4897B"/>
<path d="M281.322 164.52L279.422 167.94L285.492 169.568C285.492 169.568 286.649 166.819 285.269 164.648L281.322 164.52Z" fill="#E4897B"/>
<path d="M277.1 172.867L282.68 173.295L285.492 169.568L279.422 167.94L277.1 172.867Z" fill="#E4897B"/>
<path d="M250.7 93.0056C250.618 93.4269 250.314 93.7196 250.032 93.6625C249.75 93.6054 249.594 93.227 249.683 92.8129C249.772 92.3987 250.069 92.0989 250.351 92.156C250.633 92.2131 250.796 92.5915 250.7 93.0056Z" fill="#263238"/>
<path d="M250.358 93.7196C249.575 94.8878 248.628 95.9472 247.546 96.8684C247.799 97.127 248.107 97.3299 248.449 97.4631C248.791 97.5962 249.159 97.6564 249.527 97.6395L250.358 93.7196Z" fill="#DE5753"/>
<path d="M252.762 91.0136C252.692 91.0119 252.626 90.9837 252.577 90.935C252.364 90.7004 252.096 90.5174 251.796 90.4008C251.495 90.2842 251.171 90.2373 250.848 90.2639C250.786 90.2645 250.727 90.244 250.679 90.2062C250.632 90.1684 250.6 90.1157 250.59 90.0574C250.579 89.9992 250.59 89.9391 250.621 89.888C250.652 89.8369 250.701 89.7981 250.759 89.7784C251.172 89.728 251.591 89.7767 251.979 89.9199C252.367 90.0632 252.713 90.2966 252.985 90.5995C253.033 90.6462 253.059 90.709 253.059 90.7744C253.059 90.8398 253.033 90.9026 252.985 90.9493C252.955 90.9755 252.92 90.9948 252.881 91.006C252.843 91.0171 252.802 91.0197 252.762 91.0136Z" fill="#263238"/>
<path d="M262.972 98.839C262.193 102.68 261.414 109.706 264.204 112.269C264.204 112.269 263.113 116.161 255.701 116.161C247.539 116.161 251.813 112.269 251.813 112.269C256.265 111.248 256.138 108.071 255.367 105.094L262.972 98.839Z" fill="#E4897B"/>
<path d="M265.324 114.69C265.911 112.812 266.556 110.663 265.221 109.985C263.737 109.271 255.671 108.485 252.888 109.877C250.106 111.27 250.9 115.09 250.9 115.09L265.324 114.69Z" fill="#263238"/>
<path d="M282.435 292.74C282.204 292.77 281.97 292.754 281.746 292.696C281.522 292.637 281.312 292.535 281.129 292.397C281.064 292.311 281.03 292.207 281.03 292.101C281.03 291.995 281.064 291.891 281.129 291.805C281.171 291.731 281.23 291.666 281.3 291.616C281.37 291.565 281.451 291.53 281.537 291.512C282.338 291.341 283.837 292.326 283.904 292.369C283.923 292.384 283.938 292.404 283.947 292.427C283.956 292.449 283.959 292.473 283.956 292.497C283.952 292.52 283.94 292.542 283.923 292.558C283.906 292.575 283.884 292.586 283.86 292.59C283.391 292.687 282.914 292.738 282.435 292.74V292.74ZM281.752 291.74H281.596C281.546 291.75 281.499 291.771 281.458 291.801C281.417 291.83 281.383 291.868 281.359 291.912C281.24 292.112 281.314 292.197 281.359 292.226C281.589 292.526 282.702 292.526 283.518 292.397C282.986 292.059 282.383 291.84 281.752 291.755V291.74Z" fill="#D36681"/>
<path d="M283.83 292.611H283.77C283.207 292.312 282.116 291.184 282.227 290.584C282.246 290.491 282.298 290.408 282.374 290.348C282.449 290.288 282.545 290.255 282.643 290.255C282.74 290.245 282.839 290.254 282.934 290.281C283.028 290.308 283.116 290.352 283.192 290.412C283.822 290.912 283.934 292.426 283.934 292.49C283.937 292.513 283.933 292.536 283.922 292.556C283.912 292.576 283.895 292.593 283.874 292.604C283.86 292.61 283.845 292.612 283.83 292.611ZM282.732 290.47H282.702C282.531 290.47 282.517 290.569 282.509 290.598C282.442 290.948 283.14 291.812 283.696 292.219C283.659 291.622 283.437 291.05 283.058 290.577C283.008 290.539 282.951 290.511 282.89 290.496C282.829 290.48 282.765 290.476 282.702 290.484L282.732 290.47Z" fill="#D36681"/>
<path d="M249.705 292.74C249.008 292.74 248.333 292.647 248.103 292.347C248.044 292.268 248.013 292.173 248.013 292.076C248.013 291.979 248.044 291.884 248.103 291.805C248.148 291.731 248.208 291.668 248.279 291.617C248.35 291.567 248.432 291.531 248.518 291.512C249.416 291.276 251.33 292.319 251.412 292.362C251.434 292.375 251.451 292.395 251.461 292.417C251.472 292.44 251.475 292.465 251.471 292.49C251.467 292.515 251.455 292.538 251.436 292.556C251.417 292.574 251.393 292.586 251.367 292.59C250.819 292.689 250.263 292.74 249.705 292.74V292.74ZM248.837 291.726C248.756 291.715 248.673 291.715 248.592 291.726C248.54 291.736 248.491 291.756 248.447 291.786C248.404 291.815 248.367 291.853 248.34 291.897C248.244 292.055 248.281 292.126 248.34 292.169C248.585 292.497 249.965 292.519 250.989 292.383C250.322 292.036 249.591 291.818 248.837 291.74V291.726Z" fill="#D36681"/>
<path d="M251.352 292.611H251.301C250.64 292.333 249.342 291.183 249.438 290.605C249.438 290.462 249.564 290.291 249.92 290.255C250.053 290.236 250.188 290.245 250.316 290.282C250.445 290.319 250.563 290.383 250.662 290.469C251.36 291.012 251.501 292.426 251.508 292.49C251.511 292.512 251.508 292.534 251.499 292.554C251.49 292.574 251.475 292.592 251.456 292.604C251.441 292.613 251.423 292.617 251.405 292.619C251.387 292.62 251.369 292.617 251.352 292.611V292.611ZM250.024 290.469H249.943C249.713 290.469 249.698 290.584 249.69 290.612C249.631 290.969 250.521 291.862 251.174 292.247C251.11 291.648 250.851 291.083 250.432 290.634C250.327 290.546 250.194 290.493 250.054 290.484L250.024 290.469Z" fill="#D36681"/>
<path d="M257.348 292.483H251.894L251.353 280.338H256.806L257.348 292.483Z" fill="#E4897B"/>
<path d="M290.077 292.483H284.624L281.886 280.338H287.332L290.077 292.483Z" fill="#E4897B"/>
<path d="M284.238 291.876H290.359C290.469 291.877 290.574 291.913 290.659 291.979C290.744 292.046 290.803 292.138 290.827 292.24L291.903 296.903C291.927 297.016 291.925 297.134 291.896 297.246C291.867 297.359 291.812 297.463 291.735 297.553C291.658 297.642 291.561 297.713 291.451 297.761C291.341 297.809 291.222 297.833 291.101 297.831C288.964 297.795 287.926 297.674 285.232 297.674C283.578 297.674 280.164 297.845 277.872 297.845C275.579 297.845 275.289 295.703 276.224 295.467C280.424 294.582 282.005 293.361 283.348 292.205C283.591 291.992 283.909 291.875 284.238 291.876V291.876Z" fill="#263238"/>
<path d="M251.931 291.876H257.867C257.977 291.877 258.082 291.913 258.167 291.979C258.252 292.046 258.311 292.138 258.335 292.24L259.411 296.903C259.436 297.015 259.435 297.132 259.408 297.244C259.38 297.356 259.326 297.46 259.251 297.55C259.175 297.639 259.079 297.711 258.971 297.759C258.862 297.808 258.744 297.832 258.624 297.831C256.48 297.795 253.378 297.674 250.677 297.674C247.524 297.674 244.793 297.845 241.091 297.845C238.865 297.845 238.234 295.703 239.169 295.467C243.435 294.568 246.915 294.475 250.603 292.29C250.996 292.033 251.457 291.89 251.931 291.876V291.876Z" fill="#263238"/>
<path d="M249.312 121.48C244.754 121.14 240.218 120.561 235.726 119.745C233.5 119.331 231.229 118.867 228.974 118.281C226.662 117.712 224.391 116.996 222.177 116.139C221.606 115.911 221.027 115.661 220.456 115.425C219.812 115.12 219.193 114.772 218.601 114.383C217.532 113.704 216.612 112.998 215.699 112.298C213.881 110.87 212.197 109.442 210.505 107.978C207.189 105.022 204.043 101.966 201.008 98.7533L203.738 95.8188L214.505 103.266C216.278 104.494 218.074 105.701 219.84 106.836C220.715 107.4 221.613 107.928 222.437 108.378C222.781 108.567 223.138 108.734 223.505 108.878C223.943 109.042 224.388 109.206 224.856 109.363C228.866 110.552 232.967 111.435 237.121 112.005C241.358 112.648 245.736 113.176 249.965 113.605L249.312 121.48Z" fill="#E4897B"/>
<path d="M273.961 113.455C279.074 114.583 284.238 128.956 284.238 128.956L273.724 136.217C273.724 136.217 270.756 129.52 267.892 123.665C264.894 117.532 268.738 112.305 273.961 113.455Z" fill="#D36681"/>
<path opacity="0.4" d="M273.961 113.455C279.074 114.583 284.238 128.956 284.238 128.956L273.724 136.217C273.724 136.217 270.756 129.52 267.892 123.665C264.894 117.532 268.738 112.305 273.961 113.455Z" fill="black"/>
<path d="M271.015 121.309L268.93 125.8C271.09 130.284 273.063 134.725 273.59 135.91C273.516 130.605 272.47 124.022 271.015 121.309Z" fill="#D36681"/>
<path opacity="0.6" d="M271.015 121.309L268.93 125.8C271.09 130.284 273.063 134.725 273.59 135.91C273.516 130.605 272.47 124.022 271.015 121.309Z" fill="black"/>
<path d="M243.428 113.726C243.428 113.726 237.626 120.031 243.101 159.065H272.255C272.462 154.781 269.65 133.746 273.961 113.455C270.739 112.857 267.48 112.462 264.204 112.269C260.077 112.041 255.94 112.041 251.813 112.269C248.982 112.544 246.179 113.031 243.428 113.726V113.726Z" fill="#D36681"/>
<path opacity="0.4" d="M243.428 113.726C243.428 113.726 237.626 120.031 243.101 159.065H272.255C272.462 154.781 269.65 133.746 273.961 113.455C270.739 112.857 267.48 112.462 264.204 112.269C260.077 112.041 255.94 112.041 251.813 112.269C248.982 112.544 246.179 113.031 243.428 113.726V113.726Z" fill="black"/>
<path d="M241.269 121.309C241.076 122.787 240.927 124.536 240.831 126.599C243.71 125.768 246.445 124.531 248.948 122.929L241.269 121.309Z" fill="#D36681"/>
<path opacity="0.6" d="M241.269 121.309C241.076 122.787 240.927 124.536 240.831 126.599C243.71 125.768 246.445 124.531 248.948 122.929L241.269 121.309Z" fill="black"/>
<path d="M253.764 122.094C249.861 125.421 234.962 125.086 234.962 125.086L234.472 111.206C239.503 111.895 244.579 112.248 249.661 112.262C257.964 112.098 258.023 118.424 253.764 122.094Z" fill="#D36681"/>
<path opacity="0.4" d="M253.764 122.094C249.861 125.421 234.962 125.086 234.962 125.086L234.472 111.206C239.503 111.895 244.579 112.248 249.661 112.262C257.964 112.098 258.023 118.424 253.764 122.094Z" fill="black"/>
<path d="M203.879 95.8474L200.169 91.6419L196.17 95.9259C196.17 95.9259 198.633 99.91 202.544 99.2817L203.879 95.8474Z" fill="#E4897B"/>
<path d="M194.857 86.7367L193.417 92.2274L196.14 95.8973L200.14 91.6419L194.857 86.7367Z" fill="#E4897B"/>
<path d="M251.353 280.345L251.634 286.6H257.088L256.806 280.345H251.353Z" fill="#CE6F64"/>
<path d="M287.34 280.345H281.886L283.296 286.6H288.749L287.34 280.345Z" fill="#CE6F64"/>
<path d="M254.632 87.822C249.742 85.68 248.199 76.1624 262.267 78.54C262.267 78.54 260.145 80.7962 264.449 82.2242C268.752 83.6522 265.154 92.4701 254.632 87.822Z" fill="#263238"/>
<path d="M265.258 94.962C263.855 99.96 263.306 103.002 260.064 105.094C255.211 108.235 249.178 104.63 248.986 99.296C248.815 94.505 251.137 87.0866 256.739 86.0727C257.976 85.8394 259.254 85.9148 260.452 86.2918C261.649 86.6688 262.727 87.3348 263.581 88.2262C264.435 89.1176 265.037 90.2047 265.331 91.3839C265.625 92.563 265.599 93.7949 265.258 94.962Z" fill="#E4897B"/>
<path d="M262.074 81.039C265.406 82.824 269.917 83.895 269.494 86.4368C268.938 89.5427 272.218 87.6007 271.453 92.2202C270.956 95.2405 265.169 104.394 261.065 103.951C254.936 103.237 255.715 94.2694 255.693 89.5427C255.678 86.751 255.545 77.519 262.074 81.039Z" fill="#263238"/>
<path d="M254.959 85.0445C253.475 85.3801 251.508 93.6125 257.259 94.3694C263.87 95.2333 254.959 85.0445 254.959 85.0445Z" fill="#263238"/>
<path d="M255.107 87.9648C253.289 88.1219 249.171 86.0156 249.676 82.8454C249.676 82.824 252.28 86.5511 255.107 87.9648Z" fill="#263238"/>
<path d="M257.808 95.0263C257.25 96.2035 256.303 97.17 255.114 97.7752C253.549 98.5606 252.666 97.4182 253.022 95.9045C253.341 94.5479 254.543 92.4987 256.153 92.3345C257.763 92.1703 258.453 93.5983 257.808 95.0263Z" fill="#E4897B"/>
<path d="M265.97 89.25C267.079 88.7869 268.051 88.0665 268.799 87.1531C269.548 86.2397 270.049 85.162 270.259 84.0164C270.259 84.0164 272.707 90.5638 265.97 89.25Z" fill="#263238"/>
<path d="M272.158 89.1429C271.642 88.8092 271.048 88.6039 270.429 88.5453C269.81 88.4868 269.185 88.5768 268.611 88.8073C268.611 88.8073 270.897 85.9585 272.158 89.1429Z" fill="#263238"/>
<path d="M253.445 159.065C253.445 159.065 259.633 199.149 263.024 214.164C266.734 230.586 280.758 285.393 280.758 285.393H290.738C290.738 285.393 281.5 231.936 279.378 215.628C277.078 197.957 272.255 159.036 272.255 159.036L253.445 159.065Z" fill="#D36681"/>
<path opacity="0.5" d="M253.445 159.065C253.445 159.065 259.633 199.149 263.024 214.164C266.734 230.586 280.758 285.393 280.758 285.393H290.738C290.738 285.393 281.5 231.936 279.378 215.628C277.078 197.957 272.255 159.036 272.255 159.036L253.445 159.065Z" fill="white"/>
<path d="M279.163 281.852C279.118 281.852 280.194 285.543 280.194 285.543H291.428L291.22 282.251L279.163 281.852Z" fill="#D36681"/>
<path opacity="0.1" d="M279.163 281.852C279.118 281.852 280.194 285.543 280.194 285.543H291.428L291.22 282.251L279.163 281.852Z" fill="black"/>
<path d="M257.355 173.345C264.508 174.694 263.751 200.363 262.891 213.565C260.828 204.233 257.808 186.275 255.745 173.531C256.244 173.294 256.812 173.228 257.355 173.345Z" fill="#D36681"/>
<path opacity="0.4" d="M257.355 173.345C264.508 174.694 263.751 200.363 262.891 213.565C260.828 204.233 257.808 186.275 255.745 173.531C256.244 173.294 256.812 173.228 257.355 173.345Z" fill="white"/>
<path d="M243.101 159.065C243.101 159.065 242.359 198.278 242.946 214.279C243.562 230.915 249.624 285.393 249.624 285.393H258.854C258.854 285.393 259.195 231.886 259.596 215.549C260.049 197.735 262.282 159.065 262.282 159.065H243.101Z" fill="#D36681"/>
<path opacity="0.5" d="M243.101 159.065C243.101 159.065 242.359 198.278 242.946 214.279C243.562 230.915 249.624 285.393 249.624 285.393H258.854C258.854 285.393 259.195 231.886 259.596 215.549C260.049 197.735 262.282 159.065 262.282 159.065H243.101Z" fill="white"/>
<path d="M251.538 279.01C251.516 279.01 251.494 279.002 251.478 278.987C251.461 278.973 251.451 278.953 251.449 278.931C249.817 263.852 245.98 227.366 245.513 214.279C245.016 200.92 245.468 170.946 245.617 162.078C245.617 162.055 245.626 162.033 245.643 162.017C245.66 162.001 245.682 161.992 245.706 161.992C245.73 161.992 245.754 162.001 245.772 162.017C245.789 162.033 245.8 162.055 245.802 162.078C245.654 170.946 245.201 200.92 245.698 214.271C246.181 227.359 250.017 263.83 251.634 278.91C251.635 278.934 251.626 278.957 251.609 278.976C251.593 278.994 251.57 279.006 251.545 279.01H251.538Z" fill="#D36681"/>
<path opacity="0.4" d="M251.538 279.01C251.516 279.01 251.494 279.002 251.478 278.987C251.461 278.973 251.451 278.953 251.449 278.931C249.817 263.852 245.98 227.366 245.513 214.279C245.016 200.92 245.468 170.946 245.617 162.078C245.617 162.055 245.626 162.033 245.643 162.017C245.66 162.001 245.682 161.992 245.706 161.992C245.73 161.992 245.754 162.001 245.772 162.017C245.789 162.033 245.8 162.055 245.802 162.078C245.654 170.946 245.201 200.92 245.698 214.271C246.181 227.359 250.017 263.83 251.634 278.91C251.635 278.934 251.626 278.957 251.609 278.976C251.593 278.994 251.57 279.006 251.545 279.01H251.538Z" fill="white"/>
<path d="M247.828 281.852C247.791 281.852 248.355 285.543 248.355 285.543H259.581L259.885 282.251L247.828 281.852Z" fill="#D36681"/>
<path opacity="0.1" d="M247.828 281.852C247.791 281.852 248.355 285.543 248.355 285.543H259.581L259.885 282.251L247.828 281.852Z" fill="black"/>
<path d="M36.2541 107.5L205.408 130.933L228.106 152.975L36.2541 107.5Z" fill="#D36681"/>
<path opacity="0.6" d="M36.2541 107.5L205.408 130.933L228.106 152.975L36.2541 107.5Z" fill="white"/>
<path d="M36.2541 107.5L205.408 130.933L197.557 162.806L36.2541 107.5Z" fill="#D36681"/>
<path opacity="0.2" d="M36.2541 107.5L205.408 130.933L197.557 162.806L36.2541 107.5Z" fill="black"/>
<path d="M194.085 70.6004L203.902 114.868C204.157 116.024 203.925 117.231 203.258 118.222C202.59 119.214 201.541 119.911 200.34 120.159L112.725 138.152C111.524 138.396 110.271 138.172 109.241 137.53C108.21 136.888 107.486 135.879 107.226 134.725L97.4023 90.4567C97.1492 89.3 97.3826 88.0938 98.0515 87.1022C98.7204 86.1107 99.7703 85.4145 100.971 85.166L188.587 67.1732C189.789 66.9296 191.042 67.1542 192.073 67.7979C193.103 68.4415 193.827 69.4518 194.085 70.6075V70.6004Z" fill="#D36681"/>
<path opacity="0.4" d="M194.085 70.6004L203.902 114.868C204.157 116.024 203.925 117.231 203.258 118.222C202.59 119.214 201.541 119.911 200.34 120.159L112.725 138.152C111.524 138.396 110.271 138.172 109.241 137.53C108.21 136.888 107.486 135.879 107.226 134.725L97.4023 90.4567C97.1492 89.3 97.3826 88.0938 98.0515 87.1022C98.7204 86.1107 99.7703 85.4145 100.971 85.166L188.587 67.1732C189.789 66.9296 191.042 67.1542 192.073 67.7979C193.103 68.4415 193.827 69.4518 194.085 70.6075V70.6004Z" fill="black"/>
<path d="M191.926 67.7015L162.654 102.28C159.939 105.486 156.168 107.705 151.965 108.568C147.762 109.431 143.379 108.888 139.541 107.029L98.1443 86.9652C98.8141 86.0394 99.8248 85.3936 100.971 85.1588L188.587 67.166C189.73 66.9318 190.923 67.1232 191.926 67.7015V67.7015Z" fill="#D36681"/>
<path d="M36.2541 107.5L175.772 139.408L197.558 162.806L36.2541 107.5Z" fill="#D36681"/>
<path opacity="0.6" d="M36.2541 107.5L175.772 139.408L197.558 162.806L36.2541 107.5Z" fill="white"/>
<path d="M87.1472 138.256L86.7721 138.872L102.298 147.623L102.673 147.007L87.1472 138.256Z" fill="#D36681"/>
<path d="M109.528 150.865L109.153 151.481L114.736 154.628L115.111 154.012L109.528 150.865Z" fill="#D36681"/>
<path d="M36.2541 107.5L175.772 139.408L148.652 170.86L36.2541 107.5Z" fill="#D36681"/>
<path d="M222.867 182.256C222.679 182.256 222.493 182.222 222.318 182.156L199.598 173.502C199.235 173.361 198.944 173.088 198.789 172.741C198.634 172.395 198.628 172.003 198.772 171.653C198.916 171.302 199.199 171.02 199.558 170.869C199.917 170.718 200.323 170.71 200.689 170.846L223.416 179.5C223.738 179.622 224.005 179.848 224.171 180.14C224.338 180.431 224.393 180.77 224.328 181.097C224.263 181.423 224.082 181.718 223.815 181.929C223.548 182.141 223.213 182.256 222.867 182.256V182.256Z" fill="#D36681"/>
<path opacity="0.3" d="M222.867 182.256C222.679 182.256 222.493 182.222 222.318 182.156L199.598 173.502C199.235 173.361 198.944 173.088 198.789 172.741C198.634 172.395 198.628 172.003 198.772 171.653C198.916 171.302 199.199 171.02 199.558 170.869C199.917 170.718 200.323 170.71 200.689 170.846L223.416 179.5C223.738 179.622 224.005 179.848 224.171 180.14C224.338 180.431 224.393 180.77 224.328 181.097C224.263 181.423 224.082 181.718 223.815 181.929C223.548 182.141 223.213 182.256 222.867 182.256V182.256Z" fill="black"/>
<path d="M221.524 169.718C221.338 169.717 221.154 169.68 220.982 169.611L208.777 164.934C208.594 164.866 208.427 164.764 208.286 164.634C208.145 164.503 208.032 164.347 207.953 164.175C207.875 164.002 207.833 163.817 207.829 163.628C207.825 163.44 207.861 163.253 207.933 163.078C208.005 162.903 208.112 162.743 208.248 162.608C208.384 162.473 208.547 162.365 208.727 162.29C208.907 162.216 209.1 162.177 209.296 162.175C209.492 162.172 209.686 162.208 209.867 162.278L222.073 166.933C222.439 167.072 222.733 167.344 222.89 167.691C223.047 168.038 223.055 168.43 222.912 168.782C222.807 169.056 222.618 169.292 222.37 169.459C222.122 169.627 221.827 169.717 221.524 169.718Z" fill="#D36681"/>
<path opacity="0.5" d="M221.524 169.718C221.338 169.717 221.154 169.68 220.982 169.611L208.777 164.934C208.594 164.866 208.427 164.764 208.286 164.634C208.145 164.503 208.032 164.347 207.953 164.175C207.875 164.002 207.833 163.817 207.829 163.628C207.825 163.44 207.861 163.253 207.933 163.078C208.005 162.903 208.112 162.743 208.248 162.608C208.384 162.473 208.547 162.365 208.727 162.29C208.907 162.216 209.1 162.177 209.296 162.175C209.492 162.172 209.686 162.208 209.867 162.278L222.073 166.933C222.439 167.072 222.733 167.344 222.89 167.691C223.047 168.038 223.055 168.43 222.912 168.782C222.807 169.056 222.618 169.292 222.37 169.459C222.122 169.627 221.827 169.717 221.524 169.718Z" fill="white"/>
<path d="M196.007 182.07C195.821 182.068 195.638 182.034 195.465 181.97L173.302 173.502C173.119 173.434 172.952 173.332 172.811 173.202C172.67 173.071 172.557 172.915 172.478 172.743C172.4 172.57 172.358 172.384 172.354 172.196C172.35 172.008 172.386 171.821 172.458 171.646C172.53 171.471 172.637 171.311 172.773 171.176C172.909 171.041 173.072 170.933 173.252 170.858C173.432 170.784 173.625 170.745 173.821 170.743C174.017 170.74 174.211 170.776 174.392 170.846L196.556 179.285C196.877 179.408 197.144 179.634 197.311 179.926C197.477 180.217 197.533 180.556 197.468 180.882C197.403 181.209 197.221 181.504 196.954 181.715C196.688 181.927 196.352 182.042 196.007 182.041V182.07Z" fill="#D36681"/>
<path opacity="0.3" d="M196.007 182.07C195.821 182.068 195.638 182.034 195.465 181.97L173.302 173.502C173.119 173.434 172.952 173.332 172.811 173.202C172.67 173.071 172.557 172.915 172.478 172.743C172.4 172.57 172.358 172.384 172.354 172.196C172.35 172.008 172.386 171.821 172.458 171.646C172.53 171.471 172.637 171.311 172.773 171.176C172.909 171.041 173.072 170.933 173.252 170.858C173.432 170.784 173.625 170.745 173.821 170.743C174.017 170.74 174.211 170.776 174.392 170.846L196.556 179.285C196.877 179.408 197.144 179.634 197.311 179.926C197.477 180.217 197.533 180.556 197.468 180.882C197.403 181.209 197.221 181.504 196.954 181.715C196.688 181.927 196.352 182.042 196.007 182.041V182.07Z" fill="black"/>
</svg>
