<svg width="343" height="326" viewBox="0 0 343 326" fill="none" xmlns="http://www.w3.org/2000/svg">
<path opacity="0.9" d="M325.866 188.229C335.403 218.996 313.836 242.854 276.602 241.821C258.749 241.327 237.47 227.517 219.949 224.405C197.058 220.327 177.231 225.461 155.347 226.157C100.898 227.879 101.66 212.324 65.0357 192.155C39.3118 177.979 29.8003 178.029 16.1034 153.297C-0.678695 123.063 15.6567 109.989 52.3842 114.576C94.5872 119.834 106.387 83.0632 170.857 87.3316C234.211 91.53 312.444 141.867 325.866 188.229Z" fill="#F9F871"/>
<path d="M171.5 278.769C244.959 278.769 304.509 275.465 304.509 271.388C304.509 267.312 244.959 264.008 171.5 264.008C98.0414 264.008 38.4915 267.312 38.4915 271.388C38.4915 275.465 98.0414 278.769 171.5 278.769Z" fill="#F5F5F5"/>
<path d="M292.303 68.2716L292.068 68.884L305.579 73.5782L305.814 72.9658L292.303 68.2716Z" fill="#D36681"/>
<path d="M284.564 65.5803L284.329 66.1927L288.639 67.6902L288.875 67.0779L284.564 65.5803Z" fill="#D36681"/>
<path d="M241.863 53.1771L313.241 77.9531C315.185 78.6333 316.766 80.0172 317.639 81.8023C318.512 83.5874 318.605 85.6283 317.899 87.4788L263.253 229.615C262.537 231.462 261.081 232.965 259.203 233.794C257.324 234.624 255.177 234.713 253.23 234.042L181.886 209.266C179.944 208.584 178.364 207.2 177.491 205.416C176.618 203.631 176.524 201.591 177.228 199.74L231.868 57.6042C232.584 55.7632 234.035 54.2653 235.907 53.4362C237.779 52.6072 239.919 52.5141 241.863 53.1771V53.1771Z" fill="#D36681"/>
<path d="M260.481 228.539L315.066 86.6117C315.306 85.9897 315.414 85.3289 315.385 84.6671C315.355 84.0052 315.189 83.3554 314.895 82.7547C314.602 82.154 314.186 81.6142 313.673 81.1662C313.16 80.7182 312.558 80.3708 311.904 80.1438L239.565 55.0158C238.91 54.7882 238.214 54.6856 237.518 54.7138C236.821 54.7421 236.137 54.9006 235.505 55.1804C234.873 55.4602 234.305 55.8557 233.834 56.3444C233.363 56.833 232.998 57.4051 232.76 58.028L178.182 199.949C177.941 200.571 177.832 201.232 177.861 201.894C177.89 202.556 178.056 203.206 178.35 203.807C178.643 204.408 179.059 204.948 179.573 205.396C180.087 205.843 180.689 206.19 181.344 206.417L253.676 231.551C254.331 231.779 255.026 231.881 255.723 231.853C256.42 231.825 257.104 231.666 257.736 231.387C258.368 231.107 258.936 230.711 259.407 230.223C259.878 229.734 260.243 229.162 260.481 228.539Z" fill="white"/>
<path d="M283.812 69.3858C282.809 70.6627 281.4 71.5987 279.794 72.0555C278.188 72.5123 276.47 72.4655 274.894 71.9221L273.453 71.4201C271.876 70.8713 270.528 69.8534 269.608 68.5178C268.689 67.1821 268.247 65.6001 268.349 64.0068V64.0068L283.812 69.3858Z" fill="#D36681"/>
<path opacity="0.1" d="M258.382 227.841C258.707 227.953 259.065 227.938 259.378 227.8C259.692 227.662 259.935 227.412 260.056 227.105L313.667 87.694C313.784 87.3852 313.769 87.0449 313.624 86.7469C313.478 86.449 313.215 86.2176 312.891 86.1031V86.1031C312.567 85.9914 312.208 86.0061 311.895 86.1441C311.582 86.2821 311.338 86.5321 311.218 86.8399L257.607 226.244C257.487 226.554 257.501 226.896 257.647 227.195C257.792 227.495 258.056 227.727 258.382 227.841V227.841Z" fill="#263238"/>
<path opacity="0.1" d="M180.26 200.699C180.585 200.81 180.943 200.796 181.257 200.658C181.57 200.52 181.814 200.27 181.934 199.962L235.545 60.5512C235.662 60.2434 235.647 59.9039 235.501 59.607C235.356 59.3102 235.093 59.08 234.77 58.9669V58.9669C234.445 58.8552 234.087 58.8699 233.773 59.0079C233.46 59.1458 233.216 59.3959 233.096 59.7036L179.485 199.114C179.368 199.422 179.383 199.762 179.529 200.058C179.674 200.355 179.937 200.586 180.26 200.699V200.699Z" fill="#263238"/>
<g opacity="0.9">
<path opacity="0.9" d="M256.979 216.929L279.047 81.2885C279.588 77.9612 277.189 74.8468 273.688 74.3323L206.084 64.3968C202.583 63.8823 199.306 66.1625 198.765 69.4898L176.697 205.13C176.156 208.458 178.555 211.572 182.055 212.086L249.66 222.022C253.161 222.536 256.438 220.256 256.979 216.929Z" fill="white"/>
<path opacity="0.9" d="M250.671 222.43C250.324 222.429 249.978 222.403 249.635 222.352L182.023 212.422C180.254 212.16 178.667 211.242 177.608 209.87C176.55 208.497 176.107 206.782 176.377 205.1L198.439 69.4836C198.713 67.8015 199.678 66.2915 201.123 65.2853C202.567 64.2792 204.373 63.8592 206.143 64.1177L273.755 74.0476C275.526 74.3094 277.114 75.2281 278.173 76.602C279.231 77.976 279.673 79.693 279.401 81.3761L257.346 216.992C257.095 218.505 256.285 219.883 255.062 220.879C253.839 221.875 252.282 222.425 250.671 222.43V222.43ZM205.114 64.6588C203.667 64.6654 202.271 65.1609 201.173 66.0569C200.076 66.9528 199.35 68.1907 199.125 69.5488L177.057 205.197C176.812 206.709 177.209 208.25 178.159 209.484C179.11 210.717 180.537 211.542 182.126 211.776L249.738 221.68C251.329 221.912 252.952 221.536 254.251 220.632C255.55 219.729 256.419 218.373 256.667 216.862L257.003 216.914L256.667 216.862L278.722 81.2457C278.966 79.7338 278.57 78.1914 277.62 76.9569C276.669 75.7224 275.242 74.8966 273.652 74.6605L206.04 64.7306C205.734 64.6849 205.424 64.6609 205.114 64.6588Z" fill="#D36681"/>
<path opacity="0.9" d="M262.923 127.89C262.583 127.888 262.244 127.864 261.908 127.818L200.346 118.775C199.494 118.652 198.675 118.37 197.938 117.945C197.2 117.521 196.558 116.962 196.049 116.301C195.539 115.64 195.171 114.89 194.967 114.094C194.763 113.298 194.726 112.471 194.858 111.662L199.372 83.932C199.498 83.1222 199.792 82.3446 200.239 81.6447C200.685 80.9449 201.275 80.337 201.972 79.857C202.666 79.3707 203.454 79.02 204.291 78.8253C205.128 78.6306 205.998 78.5956 206.85 78.7225L268.411 87.7657C270.129 88.0196 271.671 88.91 272.699 90.2419C273.728 91.5739 274.159 93.2389 273.899 94.8725L269.392 122.609C269.152 124.077 268.369 125.415 267.183 126.383C265.997 127.352 264.486 127.886 262.923 127.89V127.89ZM205.848 79.3028C204.448 79.3044 203.095 79.7818 202.033 80.6487C200.972 81.5156 200.271 82.7148 200.058 84.0298L195.551 111.766C195.433 112.49 195.466 113.229 195.649 113.941C195.832 114.652 196.16 115.323 196.616 115.914C197.071 116.505 197.645 117.005 198.304 117.385C198.963 117.765 199.694 118.018 200.456 118.129L262.052 127.173C262.814 127.285 263.591 127.253 264.34 127.08C265.089 126.906 265.795 126.594 266.416 126.161C267.038 125.728 267.564 125.183 267.964 124.556C268.364 123.93 268.63 123.235 268.747 122.511L273.254 94.7747C273.489 93.3131 273.104 91.8226 272.185 90.6298C271.266 89.4371 269.886 88.6393 268.349 88.4112L206.788 79.368C206.477 79.3218 206.163 79.3 205.848 79.3028V79.3028Z" fill="#D36681"/>
<path opacity="0.9" d="M254.726 170.048C254.308 170.047 253.89 170.016 253.477 169.957L195.002 161.37C192.875 161.058 190.964 159.955 189.692 158.304C188.42 156.654 187.889 154.59 188.218 152.568C188.546 150.546 189.706 148.73 191.443 147.521C193.18 146.312 195.351 145.808 197.479 146.12L255.96 154.713C258.086 155.028 259.994 156.131 261.265 157.782C262.535 159.432 263.065 161.494 262.738 163.515C262.439 165.332 261.468 166.988 259.999 168.186C258.531 169.383 256.661 170.044 254.726 170.048V170.048ZM196.237 146.7C194.36 146.693 192.549 147.362 191.17 148.571C189.79 149.781 188.943 151.443 188.8 153.222C188.657 155.001 189.227 156.765 190.397 158.161C191.567 159.556 193.249 160.479 195.105 160.744L253.58 169.331C255.529 169.613 257.517 169.149 259.106 168.038C260.695 166.928 261.754 165.264 262.052 163.411V163.411C262.356 161.565 261.876 159.68 260.719 158.17C259.561 156.66 257.82 155.649 255.878 155.359L197.376 146.765C196.998 146.718 196.618 146.696 196.237 146.7V146.7Z" fill="#D36681"/>
<path opacity="0.9" d="M251.762 188.311C251.344 188.312 250.926 188.282 250.513 188.219L192.039 179.633C190.972 179.492 189.946 179.152 189.02 178.631C188.093 178.11 187.285 177.419 186.642 176.599C185.999 175.778 185.534 174.844 185.275 173.851C185.015 172.858 184.966 171.826 185.13 170.815C185.295 169.804 185.669 168.834 186.231 167.962C186.794 167.089 187.533 166.332 188.407 165.734C189.28 165.136 190.27 164.709 191.319 164.478C192.368 164.247 193.454 164.217 194.515 164.389L252.997 172.976C255.016 173.273 256.843 174.284 258.112 175.806C259.381 177.328 260 179.25 259.844 181.186C259.688 183.123 258.769 184.932 257.271 186.253C255.773 187.573 253.805 188.308 251.762 188.311ZM193.253 164.956C191.385 164.963 189.588 165.639 188.22 166.848C186.853 168.058 186.015 169.713 185.874 171.484C185.733 173.255 186.299 175.011 187.459 176.402C188.62 177.794 190.289 178.719 192.135 178.994L250.616 187.587C252.564 187.872 254.551 187.411 256.141 186.303C257.73 185.196 258.792 183.534 259.092 181.683C259.392 179.832 258.906 177.943 257.741 176.433C256.576 174.922 254.828 173.913 252.88 173.628L194.406 165.041C194.024 164.983 193.639 164.955 193.253 164.956V164.956Z" fill="#D36681"/>
<path opacity="0.9" d="M248.798 206.58C248.376 206.578 247.954 206.548 247.536 206.488L189.062 197.895C186.962 197.555 185.087 196.443 183.842 194.8C182.597 193.158 182.081 191.116 182.406 189.115C182.731 187.114 183.871 185.315 185.579 184.105C187.288 182.896 189.428 182.374 191.538 182.651L250.02 191.238C252.145 191.554 254.051 192.658 255.322 194.308C256.592 195.958 257.123 198.019 256.797 200.04L256.461 199.994L256.797 200.04C256.497 201.853 255.527 203.505 254.061 204.7C252.595 205.895 250.73 206.555 248.798 206.56V206.58ZM190.296 183.212C188.419 183.205 186.609 183.874 185.229 185.083C183.849 186.293 183.003 187.955 182.859 189.734C182.716 191.513 183.286 193.277 184.456 194.673C185.626 196.068 187.308 196.991 189.164 197.256L247.646 205.843C249.588 206.128 251.569 205.671 253.157 204.571C254.744 203.472 255.809 201.819 256.118 199.975C256.267 199.058 256.225 198.123 255.994 197.222C255.763 196.32 255.347 195.472 254.77 194.723C254.194 193.975 253.468 193.342 252.634 192.86C251.8 192.378 250.874 192.058 249.91 191.916L191.435 183.329C191.059 183.261 190.679 183.222 190.296 183.212V183.212Z" fill="#D36681"/>
<path opacity="0.9" d="M259.13 141.328C258.984 141.34 258.837 141.34 258.691 141.328L229.44 137.031C229.069 136.977 228.713 136.854 228.392 136.669C228.071 136.484 227.792 136.241 227.57 135.953C227.348 135.665 227.189 135.339 227.1 134.992C227.011 134.646 226.995 134.286 227.052 133.934C227.169 133.221 227.578 132.581 228.19 132.155C228.802 131.728 229.567 131.55 230.318 131.658L259.569 135.962C259.94 136.013 260.296 136.135 260.616 136.32C260.937 136.505 261.215 136.749 261.435 137.037C261.658 137.325 261.819 137.651 261.908 137.998C261.998 138.345 262.014 138.706 261.956 139.059C261.844 139.694 261.498 140.27 260.981 140.686C260.463 141.101 259.807 141.329 259.13 141.328V141.328ZM229.879 132.252C229.332 132.254 228.807 132.451 228.407 132.804C228.007 133.157 227.761 133.641 227.719 134.158C227.676 134.676 227.84 135.189 228.178 135.597C228.516 136.005 229.003 136.277 229.542 136.359L258.8 140.656C259.369 140.737 259.949 140.601 260.412 140.278C260.644 140.119 260.839 139.917 260.988 139.686C261.136 139.454 261.234 139.196 261.277 138.928V138.928C261.322 138.66 261.31 138.386 261.244 138.122C261.177 137.858 261.056 137.61 260.887 137.39C260.719 137.171 260.507 136.985 260.263 136.844C260.019 136.703 259.748 136.609 259.466 136.568L230.208 132.271C230.099 132.258 229.989 132.252 229.879 132.252Z" fill="#263238"/>
<path opacity="0.9" d="M257.854 149.191C257.707 149.2 257.561 149.2 257.415 149.191L215.85 143.088C215.11 142.967 214.451 142.574 214.013 141.995C213.575 141.416 213.394 140.696 213.51 139.991C213.625 139.287 214.027 138.653 214.629 138.227C215.231 137.802 215.985 137.618 216.728 137.715L258.286 143.818C259.036 143.929 259.709 144.318 260.158 144.9C260.606 145.481 260.794 146.209 260.68 146.922V146.922C260.568 147.557 260.222 148.133 259.705 148.549C259.187 148.964 258.531 149.192 257.854 149.191ZM216.282 138.302C215.886 138.307 215.498 138.414 215.161 138.613C214.824 138.812 214.551 139.094 214.371 139.43C214.191 139.766 214.111 140.142 214.139 140.517C214.168 140.893 214.304 141.255 214.533 141.562C214.702 141.782 214.915 141.967 215.16 142.108C215.405 142.249 215.677 142.343 215.96 142.384L257.518 148.486C257.801 148.534 258.092 148.526 258.373 148.466C258.654 148.405 258.92 148.292 259.154 148.133C259.389 147.973 259.588 147.772 259.739 147.539C259.891 147.306 259.993 147.047 260.038 146.776C260.084 146.506 260.072 146.23 260.004 145.963C259.936 145.697 259.813 145.447 259.643 145.226C259.472 145.005 259.257 144.819 259.01 144.678C258.763 144.537 258.489 144.444 258.204 144.405L216.639 138.302C216.52 138.291 216.401 138.291 216.282 138.302V138.302Z" fill="#263238"/>
<path opacity="0.9" d="M218.754 105.992C222.254 102.364 221.997 96.7261 218.18 93.3993C214.363 90.0725 208.431 90.3167 204.93 93.9447C201.43 97.5727 201.687 103.211 205.504 106.538C209.321 109.864 215.253 109.62 218.754 105.992Z" fill="#D36681"/>
</g>
<g opacity="0.9">
<path opacity="0.9" d="M205.347 220.252L209.23 83.0452C209.272 81.4299 208.639 79.8644 207.469 78.6923C206.298 77.5201 204.687 76.8369 202.987 76.7926L134.593 75.0452C132.893 75.0014 131.244 75.6011 130.009 76.7125C128.774 77.8239 128.054 79.356 128.008 80.9719L124.166 218.179C124.122 219.795 124.754 221.362 125.925 222.536C127.095 223.71 128.708 224.394 130.409 224.438L198.796 226.185C200.491 226.219 202.131 225.614 203.358 224.502C204.585 223.39 205.3 221.863 205.347 220.252Z" fill="#D36681"/>
<path opacity="0.1" d="M205.347 220.252L209.23 83.0452C209.272 81.4299 208.639 79.8644 207.469 78.6923C206.298 77.5201 204.687 76.8369 202.987 76.7926L134.593 75.0452C132.893 75.0014 131.244 75.6011 130.009 76.7125C128.774 77.8239 128.054 79.356 128.008 80.9719L124.166 218.179C124.122 219.795 124.754 221.362 125.925 222.536C127.095 223.71 128.708 224.394 130.409 224.438L198.796 226.185C200.491 226.219 202.131 225.614 203.358 224.502C204.585 223.39 205.3 221.863 205.347 220.252Z" fill="black"/>
<path opacity="0.2" d="M202.989 187.957L203.783 159.912C203.875 156.651 201.168 153.936 197.737 153.848L135.477 152.257C132.046 152.17 129.19 154.742 129.098 158.003L128.304 186.049C128.212 189.31 130.919 192.025 134.35 192.113L196.61 193.703C200.041 193.791 202.897 191.218 202.989 187.957Z" fill="#263238"/>
<path opacity="0.9" d="M180.967 210.348C180.925 211.861 181.357 213.352 182.207 214.632C183.057 215.911 184.288 216.923 185.743 217.537C187.198 218.152 188.813 218.342 190.382 218.084C191.951 217.826 193.405 217.132 194.558 216.088C195.712 215.045 196.514 213.7 196.862 212.223C197.211 210.746 197.091 209.204 196.517 207.792C195.943 206.38 194.941 205.162 193.639 204.292C192.336 203.421 190.791 202.938 189.199 202.902C187.069 202.853 185.005 203.61 183.462 205.006C181.918 206.402 181.021 208.324 180.967 210.348V210.348Z" fill="white"/>
<path opacity="0.9" d="M146.521 214.884C149.746 211.979 149.883 207.138 146.826 204.072C143.77 201.006 138.677 200.876 135.451 203.781C132.225 206.687 132.088 211.527 135.145 214.593C138.202 217.659 143.295 217.789 146.521 214.884Z" fill="white"/>
<path opacity="0.9" d="M156.957 209.735C156.915 211.248 157.347 212.739 158.197 214.019C159.047 215.299 160.278 216.31 161.733 216.924C163.188 217.539 164.803 217.729 166.372 217.472C167.941 217.214 169.395 216.519 170.548 215.476C171.702 214.432 172.504 213.087 172.852 211.61C173.201 210.133 173.081 208.591 172.507 207.179C171.933 205.768 170.931 204.549 169.629 203.679C168.326 202.808 166.781 202.325 165.189 202.29C163.059 202.241 160.995 202.997 159.452 204.393C157.908 205.789 157.011 207.711 156.957 209.735V209.735Z" fill="white"/>
<path opacity="0.9" d="M205.519 98.615C205.576 96.6584 204.813 94.7604 203.398 93.3384C201.983 91.9164 200.031 91.0868 197.973 91.0322L138.819 89.5196C136.761 89.467 134.765 90.1926 133.269 91.5372C131.773 92.8819 130.9 94.7356 130.841 96.6916V96.6916C130.785 98.6477 131.549 100.545 132.964 101.966C134.378 103.388 136.329 104.218 138.387 104.274L197.568 105.8C199.624 105.846 201.615 105.115 203.105 103.768C204.595 102.422 205.463 100.569 205.519 98.615V98.615Z" fill="white"/>
<path opacity="0.9" d="M204.956 118.475C205.012 116.519 204.248 114.622 202.833 113.2C201.419 111.778 199.468 110.948 197.41 110.892L138.263 109.38C136.205 109.327 134.209 110.053 132.713 111.397C131.218 112.742 130.344 114.596 130.285 116.552V116.552C130.23 118.508 130.993 120.405 132.408 121.826C133.823 123.248 135.773 124.078 137.831 124.134L196.978 125.64C199.035 125.693 201.03 124.968 202.526 123.625C204.021 122.282 204.895 120.43 204.956 118.475Z" fill="white"/>
<path opacity="0.9" d="M204.428 138.335C204.485 136.378 203.722 134.48 202.307 133.058C200.892 131.636 198.941 130.807 196.882 130.752L137.735 129.239C135.677 129.189 133.683 129.915 132.187 131.259C130.692 132.603 129.818 134.456 129.757 136.411V136.411C129.702 138.368 130.465 140.265 131.88 141.686C133.295 143.108 135.245 143.938 137.303 143.994L196.45 145.5C198.507 145.553 200.502 144.828 201.997 143.485C203.493 142.142 204.367 140.29 204.428 138.335Z" fill="white"/>
</g>
<path d="M77.9913 106.367L77.1819 107.241L76.3244 108.186L74.6368 110.142C73.5392 111.446 72.4553 112.75 71.4606 114.12C69.4661 116.684 67.7838 119.456 66.446 122.38C66.158 123.052 65.9062 123.738 65.6914 124.434C65.5016 125.05 65.3685 125.681 65.2935 126.318C65.139 127.836 65.1275 129.363 65.2592 130.882C65.5704 134.251 66.0903 137.6 66.8164 140.91L62.3643 142.625C61.3616 141.001 60.4791 139.313 59.7232 137.572C58.948 135.803 58.3084 133.984 57.8092 132.128C57.2563 130.147 56.9433 128.113 56.8763 126.064C56.8359 124.917 56.9256 123.77 57.1438 122.641C57.3529 121.598 57.6231 120.566 57.9533 119.551C59.2721 115.8 61.1181 112.236 63.4413 108.956C64.5595 107.358 65.7257 105.813 66.9742 104.34C67.5916 103.596 68.2296 102.868 68.8881 102.155C69.2174 101.797 69.5741 101.438 69.8897 101.086C70.2052 100.734 70.5757 100.434 70.9873 99.9972L77.9913 106.367Z" fill="#263238"/>
<path d="M67.5847 140.982L69.4369 142.579L62.9268 145.839C62.6272 145.319 62.3967 144.764 62.2408 144.19C62.1364 143.777 62.1197 143.348 62.1916 142.929C62.2635 142.51 62.4225 142.109 62.6595 141.749C62.8965 141.389 63.2066 141.077 63.5717 140.833C63.9368 140.588 64.3495 140.415 64.7858 140.323V140.323C65.2738 140.213 65.7824 140.216 66.2692 140.33C66.7561 140.445 67.2071 140.668 67.5847 140.982V140.982Z" fill="#FFB573"/>
<path d="M71.934 146.589L66.4322 149.041L62.9268 145.826L69.4369 142.579L71.934 146.589Z" fill="#FFB573"/>
<path d="M95.697 82.4845C95.697 82.9214 95.8891 83.28 96.1841 83.28C96.479 83.28 96.7466 82.9409 96.774 82.5106C96.8015 82.0803 96.5888 81.7151 96.287 81.7151C95.9851 81.7151 95.7244 82.0542 95.697 82.4845Z" fill="#263238"/>
<path d="M95.8479 83.2734C96.3023 84.6061 96.9536 85.8706 97.7824 87.029C97.464 87.2354 97.1019 87.3733 96.7216 87.433C96.3412 87.4927 95.9518 87.4727 95.5804 87.3745L95.8479 83.2734Z" fill="#FF5652"/>
<path d="M94.1947 80.046C94.2289 80.0525 94.2641 80.0524 94.2983 80.0457C94.3325 80.0389 94.3649 80.0258 94.3936 80.0069C94.6669 79.8153 94.9845 79.6886 95.3199 79.6376C95.6553 79.5865 95.9986 79.6126 96.3213 79.7135C96.3887 79.7376 96.4633 79.7362 96.5297 79.7095C96.5961 79.6828 96.6492 79.6329 96.678 79.5701C96.6928 79.5402 96.7013 79.5078 96.7027 79.4747C96.7042 79.4417 96.6987 79.4087 96.6866 79.3777C96.6744 79.3467 96.6559 79.3183 96.632 79.2943C96.6082 79.2702 96.5795 79.2509 96.5476 79.2376C96.1409 79.1118 95.7089 79.0781 95.2861 79.1393C94.8633 79.2004 94.4613 79.3546 94.1123 79.5896C94.082 79.607 94.0555 79.63 94.0346 79.6571C94.0136 79.6843 93.9986 79.7152 93.9903 79.748C93.982 79.7807 93.9806 79.8147 93.9862 79.848C93.9919 79.8812 94.0044 79.9131 94.0232 79.9417C94.0429 79.9692 94.0683 79.9925 94.0977 80.0105C94.1272 80.0284 94.1602 80.0405 94.1947 80.046V80.046Z" fill="#263238"/>
<path d="M82.4984 84.1406C83.0472 88.1439 83.2324 96.2222 80.1591 98.4846C80.1591 98.4846 81.1607 101.745 88.8507 102.664C97.3091 103.661 93.1657 99.1822 93.1657 99.1822C88.6175 97.5913 88.9536 94.377 89.9689 91.4365L82.4984 84.1406Z" fill="#FFB573"/>
<path d="M62.0487 260.213H62.1036C62.2086 260.168 62.2972 260.095 62.3582 260.002C62.4192 259.909 62.45 259.801 62.4466 259.692C62.4554 259.607 62.444 259.521 62.4131 259.441C62.3822 259.361 62.3327 259.288 62.2682 259.229C61.6851 258.668 59.7849 258.779 59.7094 258.785C59.6831 258.786 59.6575 258.793 59.6356 258.807C59.6137 258.821 59.5965 258.841 59.5859 258.864C59.5726 258.884 59.5655 258.908 59.5655 258.932C59.5655 258.956 59.5726 258.98 59.5859 259C60.0113 259.372 61.349 260.396 62.0487 260.213ZM60.0387 259.014C60.6767 259.014 61.7263 259.066 62.0967 259.398C62.134 259.432 62.1627 259.474 62.1805 259.521C62.1983 259.567 62.2048 259.616 62.1996 259.666C62.1996 259.907 62.0693 259.946 62.035 259.959C61.6371 260.102 60.6698 259.542 60.0387 259.014V259.014Z" fill="#D36681"/>
<path d="M60.663 258.883C61.349 258.714 62.0761 258.388 62.2339 258.022C62.2742 257.936 62.2804 257.838 62.2515 257.747C62.2225 257.656 62.1603 257.578 62.0761 257.527C61.9958 257.466 61.903 257.422 61.8039 257.398C61.7047 257.373 61.6012 257.368 61.4999 257.384C60.6561 257.501 59.6477 258.766 59.6065 258.824C59.593 258.844 59.5857 258.866 59.5857 258.89C59.5857 258.913 59.593 258.936 59.6065 258.955C59.6174 258.974 59.6331 258.991 59.6522 259.003C59.6713 259.016 59.6933 259.024 59.7163 259.027C60.0372 259.019 60.3556 258.971 60.663 258.883V258.883ZM61.4313 257.657H61.5273C61.5919 257.645 61.6584 257.646 61.7224 257.661C61.7864 257.676 61.8462 257.703 61.8978 257.742C62.035 257.846 62.0007 257.918 61.987 257.951C61.8429 258.29 60.7247 258.701 59.9976 258.779C60.3686 258.296 60.8618 257.911 61.4313 257.657V257.657Z" fill="#D36681"/>
<path d="M96.5819 266.172C97.1759 266.247 97.7773 266.102 98.2626 265.768C98.3241 265.686 98.3571 265.588 98.3571 265.488C98.3571 265.387 98.3241 265.289 98.2626 265.208C98.2199 265.134 98.1611 265.069 98.0901 265.019C98.0191 264.968 97.9376 264.932 97.851 264.914C96.9181 264.666 94.8944 265.736 94.8121 265.781C94.7881 265.796 94.7685 265.816 94.7553 265.84C94.7421 265.864 94.7356 265.891 94.7366 265.918C94.7403 265.944 94.7522 265.967 94.7706 265.986C94.789 266.005 94.8131 266.017 94.8395 266.023C95.4147 266.12 95.9977 266.17 96.5819 266.172V266.172ZM97.5286 265.129C97.6129 265.119 97.6982 265.119 97.7824 265.129C97.8364 265.14 97.8871 265.162 97.931 265.193C97.9749 265.225 98.0109 265.265 98.0363 265.312C98.1254 265.468 98.0911 265.547 98.0363 265.592C97.755 265.938 96.3213 265.944 95.2923 265.807C95.9852 265.447 96.7444 265.217 97.5286 265.129Z" fill="#D36681"/>
<path d="M94.8807 266.016H94.9355C95.6215 265.729 97.0347 264.562 96.9935 263.956C96.9935 263.812 96.8769 263.636 96.5065 263.597C96.2341 263.574 95.9631 263.654 95.7519 263.819C95.011 264.379 94.7983 265.827 94.7846 265.892C94.7835 265.913 94.7879 265.935 94.7975 265.954C94.8071 265.973 94.8215 265.99 94.8395 266.003C94.8521 266.01 94.8661 266.014 94.8807 266.016V266.016ZM96.3556 263.832H96.4379C96.678 263.832 96.6848 263.949 96.6917 263.975C96.7397 264.34 95.7793 265.279 95.0659 265.651C95.1564 265.033 95.4409 264.456 95.8822 263.995C96.0166 263.893 96.1836 263.838 96.3556 263.838V263.832Z" fill="#D36681"/>
<path d="M88.6655 265.892H94.325L95.4157 253.439H89.7562L88.6655 265.892Z" fill="#FFB573"/>
<path d="M53.3434 258.701L58.7285 259.698L63.6951 247.519L58.31 246.521L53.3434 258.701Z" fill="#FFB573"/>
<path d="M59.7163 258.153L54.3929 255.049C54.2951 254.995 54.1808 254.974 54.0687 254.989C53.9565 255.005 53.8532 255.056 53.7755 255.134L50.078 258.688C49.9882 258.77 49.9194 258.871 49.8769 258.983C49.8343 259.095 49.819 259.214 49.8323 259.332C49.8455 259.45 49.8868 259.564 49.9532 259.665C50.0195 259.765 50.1091 259.85 50.2152 259.913C52.0948 260.963 53.069 261.387 55.4082 262.749C56.8488 263.591 59.8123 265.846 61.9595 266.74C64.1067 267.633 65.3895 265.703 64.6143 265.149C61.0883 262.678 60.7659 260.585 60.2857 258.89C60.201 258.584 59.9975 258.321 59.7163 258.153V258.153Z" fill="#263238"/>
<path d="M94.3113 265.273H88.1373C88.0239 265.272 87.9136 265.308 87.8241 265.374C87.7346 265.441 87.6709 265.533 87.6434 265.638L86.3194 270.424C86.2846 270.536 86.2785 270.655 86.3014 270.771C86.3244 270.886 86.3758 270.995 86.4514 271.087C86.5271 271.18 86.6248 271.255 86.7366 271.305C86.8484 271.355 86.971 271.379 87.0946 271.375C89.3241 271.343 92.5826 271.219 95.3266 271.219C98.5988 271.219 99.1339 271.388 102.975 271.388C105.301 271.388 106.035 269.152 105.075 268.95C100.684 268.031 99.3671 267.933 95.6353 265.69C95.2433 265.437 94.7848 265.292 94.3113 265.273Z" fill="#263238"/>
<path d="M102.461 117.125C102.379 118.951 102.248 120.966 102.042 123.189C101.507 129.22 100.499 136.737 98.7703 146.081H68.504C68.504 141.999 71.7693 123.261 69.4163 104.007C69.276 102.709 69.6731 101.411 70.5236 100.387C71.3741 99.3634 72.6108 98.695 73.9714 98.5237C75.508 98.3346 77.2299 98.1716 78.9174 98.0934C83.2037 97.8585 87.5006 97.8585 91.7868 98.0934C93.6761 98.2671 95.554 98.5392 97.412 98.9084C98.4781 99.1159 99.4567 99.6164 100.226 100.348C100.996 101.079 101.522 102.009 101.741 103.023C102.283 105.624 102.77 109.966 102.461 117.125Z" fill="#263238"/>
<path opacity="0.3" d="M96.3213 146.165C96.2987 146.161 96.279 146.148 96.2662 146.13C96.2534 146.111 96.2486 146.089 96.2527 146.068C97.8373 137.468 98.9418 129.768 99.5249 123.182C99.717 121.083 99.8541 119.042 99.9365 117.119C100.259 109.712 99.7032 105.383 99.1819 103.036C99.1799 103.025 99.1801 103.015 99.1826 103.005C99.185 102.994 99.1895 102.985 99.1959 102.976C99.2023 102.968 99.2104 102.96 99.2198 102.955C99.2292 102.949 99.2396 102.946 99.2505 102.944C99.2613 102.941 99.2726 102.941 99.2838 102.942C99.2949 102.943 99.3056 102.947 99.3153 102.952C99.3249 102.958 99.3333 102.965 99.3398 102.974C99.3464 102.983 99.351 102.993 99.3534 103.003C100.101 106.361 100.362 111.251 100.108 117.125C100.026 119.081 99.8885 121.096 99.6964 123.195C99.1133 129.781 98.0088 137.487 96.4173 146.094C96.4165 146.105 96.4133 146.115 96.4079 146.125C96.4025 146.135 96.3951 146.143 96.386 146.15C96.377 146.157 96.3665 146.161 96.3554 146.164C96.3442 146.167 96.3326 146.167 96.3213 146.165Z" fill="black"/>
<path opacity="0.2" d="M97.0964 112.744C97.021 116.806 99.223 125.927 101.295 130.094C101.61 127.596 101.864 125.301 102.049 123.189C102.207 121.383 102.324 119.72 102.406 118.182L97.0964 112.744Z" fill="black"/>
<path d="M121.751 122.68L126.807 119.825L127.726 126.397C127.726 126.397 123.72 127.459 121.477 126.175L121.751 122.68Z" fill="#FFB573"/>
<path d="M133.454 120.294L131.787 125.543L127.726 126.397L126.807 119.825L133.454 120.294Z" fill="#FFB573"/>
<path d="M100.924 101.712C101.185 102.286 101.356 102.703 101.528 103.133C101.699 103.564 101.857 103.968 102.008 104.366L102.886 106.739C103.463 108.297 104.018 109.829 104.608 111.303C105.198 112.776 105.788 114.289 106.44 115.691C107.029 117.029 107.716 118.325 108.498 119.57C108.803 120.057 109.147 120.521 109.527 120.959C109.671 121.129 109.801 121.246 109.856 121.305C109.911 121.363 109.897 121.35 109.856 121.35C109.815 121.35 109.856 121.35 109.897 121.35L110 121.409C110.433 121.617 110.895 121.764 111.372 121.846C112.053 121.955 112.74 122.018 113.43 122.035C116.667 122.005 119.894 121.704 123.075 121.135H123.24C123.794 121.049 124.362 121.148 124.848 121.416C125.334 121.683 125.708 122.102 125.905 122.602C126.102 123.101 126.111 123.651 125.931 124.156C125.75 124.661 125.391 125.091 124.914 125.373C124.102 125.863 123.264 126.314 122.403 126.723C121.559 127.133 120.695 127.505 119.803 127.844C117.971 128.567 116.062 129.101 114.109 129.435C113.034 129.622 111.943 129.714 110.851 129.709C109.573 129.723 108.301 129.551 107.078 129.2L106.563 129.031C106.37 128.974 106.182 128.902 106.001 128.816C105.611 128.645 105.235 128.446 104.876 128.222C104.271 127.839 103.706 127.403 103.188 126.918C102.342 126.147 101.577 125.3 100.904 124.389C98.7425 121.329 96.9499 118.049 95.5598 114.609C94.8738 112.985 94.229 111.349 93.639 109.758L92.7746 107.378L92.363 106.243C92.2396 105.891 92.0955 105.52 92.0132 105.324L91.9652 105.194C91.5684 104.089 91.6284 102.882 92.1329 101.817C92.6373 100.752 93.5486 99.9097 94.6822 99.4597C95.8158 99.0097 97.0869 98.9859 98.2382 99.3932C99.3896 99.8005 100.335 100.608 100.883 101.653L100.924 101.712Z" fill="#263238"/>
<path opacity="0.2" d="M95.4157 253.439L94.8532 259.861H89.1937L89.7562 253.439H95.4157Z" fill="black"/>
<path opacity="0.2" d="M58.31 246.528L63.6951 247.525L61.1295 253.798L55.7444 252.8L58.31 246.528Z" fill="black"/>
<path d="M80.5501 81.2653C80.5501 86.5986 80.262 89.7413 82.91 92.5253C86.9025 96.7177 93.9751 94.4161 95.649 89.1284C97.165 84.3623 96.9112 76.4405 91.533 74.2106C86.1547 71.9808 80.5501 75.9319 80.5501 81.2653Z" fill="#FFB573"/>
<path d="M93.2343 83.945C93.7145 82.6932 95.6353 77.3142 92.0749 75.632C88.5146 73.9498 83.8429 73.4348 80.9411 74.6279C78.0394 75.8211 75.9333 80.196 75.9333 80.196C75.9333 80.196 77.3053 89.4087 82.958 91.0648C88.6106 92.7209 95.0179 86.3378 93.2343 83.945Z" fill="#263238"/>
<path d="M91.8623 76.3231C92.472 76.1366 93.0447 75.8545 93.5567 75.4886C95.6147 73.5912 91.972 72.3198 88.3637 72.0069C84.2477 71.6613 78.4304 73.2066 76.1048 76.0688C78.3069 77.1446 88.7204 77.1903 91.8623 76.3231Z" fill="#263238"/>
<path d="M91.5261 75.7885C92.0693 75.7854 92.6078 75.6928 93.1176 75.5146C95.8616 74.2106 92.6992 72.4959 89.8729 71.3484C86.6692 70.0444 81.5174 69.8944 78.8557 71.6939C80.3443 73.1283 88.7478 75.7363 91.5261 75.7885Z" fill="#263238"/>
<path d="M90.7715 83.2083C90.7744 84.3802 91.1925 85.5171 91.9583 86.4357C92.9804 87.6158 94.1809 86.9312 94.4759 85.5294C94.7435 84.2645 94.5377 82.1259 93.2343 81.4544C91.9309 80.7828 90.7852 81.7738 90.7715 83.2083Z" fill="#FFB573"/>
<path d="M88.0344 146.081C88.0344 146.081 88.9673 186.785 83.2324 201.794C74.2321 225.592 64.4291 253.159 64.4291 253.159L54.098 250.974C54.098 250.974 62.426 220.95 66.9467 200.927C71.0627 182.932 67.8797 160.777 68.504 146.081H88.0344Z" fill="#D36681"/>
<g opacity="0.3">
<path opacity="0.3" d="M88.0344 146.081C88.0344 146.081 88.9673 186.785 83.2324 201.794C74.2321 225.592 64.4291 253.159 64.4291 253.159L54.098 250.974C54.098 250.974 62.426 220.95 66.9467 200.927C71.0627 182.932 67.8797 160.777 68.504 146.081H88.0344Z" fill="white"/>
</g>
<path opacity="0.2" d="M88.0824 155.176C85.2629 154.387 83.0197 154.687 82.3406 157.099C80.5638 163.404 84.3986 180.037 86.3125 187.646C87.6914 176.692 88.0344 163.652 88.0824 155.176Z" fill="black"/>
<path d="M67.228 250.179C67.276 250.179 64.6692 253.367 64.6692 253.367L53.3708 250.981L54.6605 247.297L67.228 250.179Z" fill="#D36681"/>
<path d="M98.784 146.081C98.784 146.081 105.068 180.285 104.958 196.689C104.841 215.082 97.0073 258.629 97.0073 258.629H87.4033C87.4033 258.629 88.6106 214.867 88.8987 198.11C89.2143 179.854 78.8488 146.094 78.8488 146.094L98.784 146.081Z" fill="#D36681"/>
<g opacity="0.3">
<path opacity="0.3" d="M98.784 146.081C98.784 146.081 105.068 180.285 104.958 196.689C104.841 215.082 97.0073 258.629 97.0073 258.629H87.4033C87.4033 258.629 88.6106 214.867 88.8987 198.11C89.2143 179.854 78.8488 146.094 78.8488 146.094L98.784 146.081Z" fill="white"/>
</g>
<path d="M99.0172 254.991C99.0584 254.991 98.3312 258.772 98.3312 258.772H86.6692L86.4977 255.395L99.0172 254.991Z" fill="#D36681"/>
<path d="M87.9932 157.784C87.9642 157.793 87.9331 157.793 87.904 157.784L83.9115 155.548C83.8895 155.534 83.8709 155.515 83.8567 155.494C83.8425 155.473 83.8332 155.449 83.8292 155.424L83.006 149.308C83.0026 149.285 83.0045 149.261 83.0116 149.239C83.0187 149.216 83.0308 149.195 83.0472 149.178C83.064 149.161 83.0842 149.148 83.1067 149.139C83.1291 149.13 83.1532 149.125 83.1775 149.125H90.8333C90.8758 149.124 90.9175 149.138 90.9494 149.164C90.9814 149.191 91.0013 149.229 91.0048 149.269L91.7388 155.189C91.742 155.219 91.7368 155.25 91.7235 155.277C91.7102 155.305 91.6894 155.328 91.6633 155.346L88.0824 157.732C88.0594 157.758 88.0281 157.776 87.9932 157.784ZM84.1585 155.28L87.9864 157.425L91.4164 155.15L90.7304 149.471H83.3764L84.1585 155.28Z" fill="white"/>
</svg>
