<svg width="542" height="534" viewBox="0 0 542 534" fill="none" xmlns="http://www.w3.org/2000/svg">
<g clip-path="url(#clip0)">
<path fill-rule="evenodd" clip-rule="evenodd" d="M202.627 134.028C233.896 122.582 267.493 135.383 299.865 143.82C331.319 152.016 365.474 157.604 387.15 182.115C408.903 206.715 410.317 241.667 415.131 274.165C420.244 308.676 433.091 346.087 415.896 376.156C398.657 406.302 361.212 416.561 328.069 426.414C298.228 435.285 266.133 440.533 236.874 429.376C209.515 418.944 197.432 388.63 176.04 368.444C151.165 344.971 110.344 334.759 101.522 301.653C92.5524 267.993 114.659 234.669 132.507 205.078C150.168 175.798 170.651 145.732 202.627 134.028Z" fill="#F9F871"/>
<path d="M261.519 469.043C378.675 469.043 473.649 464.207 473.649 458.24C473.649 452.274 378.675 447.437 261.519 447.437C144.362 447.437 49.3886 452.274 49.3886 458.24C49.3886 464.207 144.362 469.043 261.519 469.043Z" fill="#F5F5F5"/>
<path d="M195.273 450.166H203.828L205.579 432.883H197.023L195.273 450.166Z" fill="#FFB573"/>
<path d="M205.218 449.298H194.78C194.607 449.301 194.44 449.353 194.304 449.446C194.168 449.539 194.07 449.668 194.025 449.813L192.067 456.446C192.017 456.604 192.011 456.77 192.048 456.93C192.085 457.091 192.165 457.242 192.281 457.371C192.397 457.5 192.545 457.603 192.715 457.673C192.885 457.743 193.072 457.777 193.259 457.772C196.618 457.725 199.08 457.553 203.303 457.553C205.907 457.553 213.73 457.782 217.329 457.782C220.929 457.782 221.508 454.69 220.053 454.404C213.489 453.153 208.62 451.416 206.574 449.756C206.205 449.459 205.72 449.296 205.218 449.298V449.298Z" fill="#263238"/>
<path opacity="0.2" d="M197.023 432.892H205.579L204.671 441.797H196.115L197.023 432.892Z" fill="black"/>
<path d="M213.029 278.316C213.029 278.316 218.5 336.236 216.968 358.1C215.239 382.035 208.675 440.069 208.675 440.069H193.008C193.008 440.069 194.375 386.024 193.577 362.767C192.68 336.226 183.5 278.678 183.5 278.678L213.029 278.316Z" fill="#263238"/>
<path d="M210.032 440.365H191.575L191.771 435.555L211.344 435.24L210.032 440.365Z" fill="#D36681"/>
<path d="M207.997 450.605C208.584 450.642 209.169 450.508 209.66 450.224C209.821 450.111 209.948 449.964 210.026 449.797C210.105 449.63 210.133 449.448 210.108 449.269C210.117 449.168 210.091 449.068 210.035 448.979C209.979 448.891 209.894 448.819 209.791 448.773C208.85 448.344 206.038 449.823 205.721 449.995C205.686 450.013 205.658 450.04 205.64 450.072C205.623 450.104 205.617 450.141 205.622 450.176C205.627 450.209 205.644 450.241 205.669 450.266C205.694 450.292 205.727 450.31 205.765 450.319C206.494 450.488 207.243 450.584 207.997 450.605V450.605ZM209.331 449.059C209.422 449.059 209.511 449.075 209.594 449.107C209.594 449.107 209.703 449.174 209.703 449.317C209.716 449.436 209.696 449.557 209.644 449.668C209.593 449.779 209.512 449.878 209.408 449.956C208.451 450.338 207.363 450.385 206.366 450.09C207.271 449.586 208.277 449.237 209.331 449.059Z" fill="#D36681"/>
<path d="M205.808 450.376C205.841 450.385 205.875 450.385 205.907 450.376C206.815 449.956 208.587 448.324 208.445 447.513C208.422 447.383 208.346 447.265 208.232 447.179C208.118 447.094 207.972 447.046 207.822 447.046C207.666 447.031 207.508 447.044 207.358 447.083C207.207 447.123 207.067 447.188 206.946 447.275C205.929 447.981 205.633 450.138 205.622 450.224C205.616 450.254 205.62 450.286 205.633 450.314C205.647 450.343 205.67 450.368 205.699 450.386C205.736 450.391 205.774 450.388 205.808 450.376ZM207.668 447.351H207.756C208.018 447.351 208.04 447.485 208.04 447.532C208.128 448.019 206.946 449.26 206.082 449.842C206.178 448.986 206.558 448.174 207.176 447.504C207.308 447.39 207.483 447.322 207.668 447.313V447.351Z" fill="#D36681"/>
<path d="M131.007 437.063L139.004 439.458L148.041 423.692L140.044 421.297L131.007 437.063Z" fill="#FFB573"/>
<path d="M140.35 439.754L132.024 434.534C131.885 434.45 131.717 434.409 131.547 434.42C131.378 434.43 131.218 434.491 131.094 434.591L125.153 439.172C125.01 439.28 124.896 439.415 124.82 439.566C124.744 439.718 124.709 439.882 124.716 440.047C124.723 440.212 124.773 440.374 124.862 440.52C124.951 440.666 125.077 440.792 125.23 440.89C127.943 442.522 130.022 443.61 133.392 445.729C135.47 447.026 141.564 451.149 144.431 452.943C147.297 454.738 149.825 452.447 148.807 451.474C144.431 447.151 141.652 443.238 141.149 440.833C141.053 440.396 140.767 440.01 140.35 439.754Z" fill="#263238"/>
<path d="M201.257 215.5L203.336 215.099L205.524 214.651C206.979 214.336 208.434 213.992 209.9 213.63C212.789 212.895 215.633 212.084 218.379 211.158C221.076 210.266 223.7 209.217 226.235 208.018C228.581 206.92 230.764 205.573 232.734 204.01L233.39 203.456C233.565 203.275 233.74 203.122 233.926 202.931C234.298 202.531 234.692 202.092 235.075 201.595C235.863 200.641 236.65 199.553 237.394 198.427C238.871 196.165 240.337 193.779 241.771 191.336C244.55 186.469 247.241 181.411 249.911 176.42L256.026 178.137C254.663 183.717 252.906 189.219 250.764 194.609C249.67 197.32 248.576 200.04 247.11 202.76C246.399 204.115 245.633 205.48 244.714 206.882C244.254 207.579 243.74 208.285 243.16 209.011C242.876 209.373 242.515 209.755 242.197 210.118L241.224 211.072C239.933 212.305 238.539 213.453 237.055 214.508C235.617 215.498 234.119 216.422 232.57 217.275C229.58 218.903 226.445 220.317 223.193 221.503C220.045 222.673 216.819 223.677 213.533 224.509C211.906 224.929 210.265 225.311 208.609 225.655C207.789 225.836 206.957 226.008 206.115 226.16C205.272 226.313 204.485 226.437 203.489 226.59L201.257 215.5Z" fill="#FFB573"/>
<path d="M196.968 228.375C203.533 232.411 227.416 225.798 227.416 225.798L224.134 207.388C224.134 207.388 214.364 209.402 204.113 212.026C197.143 213.782 189.758 223.984 196.968 228.375Z" fill="#D36681"/>
<path d="M248.849 179.407L250.469 171.533L258.696 176.124C258.373 177.232 257.794 178.27 256.994 179.176C256.195 180.082 255.192 180.836 254.046 181.392L248.849 179.407Z" fill="#FFB573"/>
<path d="M252.788 167.057L259.156 165.072L258.707 176.124L250.469 171.533L252.788 167.057Z" fill="#FFB573"/>
<path opacity="0.2" d="M140.044 421.297L148.041 423.702L143.381 431.824L135.372 429.428L140.044 421.297Z" fill="black"/>
<path d="M166.334 213.964C167.982 222.162 168.918 230.456 169.135 238.777C169.321 244.599 169.223 250.124 168.982 255.144C168.446 266.883 167.199 275.796 167.275 278.85L213.04 278.354C223.762 236.286 214.277 213.859 214.277 213.859C210.733 213.086 207.137 212.51 203.511 212.131C202.745 212.055 201.968 211.988 201.17 211.931C194.682 211.675 188.184 211.745 181.706 212.141C180.481 212.208 179.233 212.303 178.019 212.408C171.805 212.933 166.334 213.964 166.334 213.964Z" fill="#D36681"/>
<path d="M181.651 212.103C188.129 211.707 194.628 211.637 201.115 211.893C201.903 211.95 202.69 212.017 203.456 212.093H203.73C204.824 214.651 204.966 220.167 198.544 220.616C189.791 221.226 181.651 216.235 177.964 212.351C179.211 212.265 180.47 212.17 181.651 212.103Z" fill="white"/>
<path opacity="0.2" d="M176.662 225.263C176.07 231.415 173.477 237.292 169.19 242.203C169.19 241.067 169.19 239.913 169.124 238.748C168.982 234.377 168.676 229.844 168.129 225.254L176.662 225.263Z" fill="black"/>
<path d="M184.146 192.978C185.24 198.427 186.181 208.419 181.695 212.065C183.598 213.805 185.916 215.158 188.486 216.029C191.055 216.9 193.813 217.267 196.564 217.104C201.957 216.951 202.307 213.658 201.159 211.855C194.211 210.48 194.518 205.957 195.852 201.7L184.146 192.978Z" fill="#FFB573"/>
<path opacity="0.2" d="M188.916 196.518L195.841 201.7C195.517 202.687 195.29 203.696 195.163 204.716C192.505 204.411 188.905 201.901 188.686 199.467C188.558 198.48 188.635 197.481 188.916 196.518V196.518Z" fill="black"/>
<path d="M207.843 177.698C213.073 175.417 210.677 168.422 210.677 168.422C210.677 168.422 207.909 168.365 204.889 171.285C206.257 167.678 203.959 161.799 203.194 159.518C192.701 163.488 192.001 167.325 192.001 167.325C192.001 167.325 189.813 164.461 187.756 164.299C186.13 165.172 184.87 166.479 184.164 168.027C183.458 169.575 183.344 171.28 183.839 172.888C182.11 172.012 180.177 171.484 178.183 171.342C177.389 173.513 177.517 175.861 178.544 177.956C177.337 178.501 176.36 179.367 175.754 180.428C176.711 180.958 177.731 181.396 178.796 181.735C178.632 184.598 179.332 188.549 181.695 190.783L205.765 180.972C209.835 182.508 211.651 181.401 211.651 181.401C211.651 181.401 210.71 178.385 207.843 177.698Z" fill="#263238"/>
<path d="M183.621 184.77C183.938 192.157 183.697 196.509 187.877 200.259C194.167 205.89 204.714 202.397 206.935 194.991C208.938 188.311 208.029 177.374 199.857 174.52C191.684 171.667 183.292 177.431 183.621 184.77Z" fill="#FFB573"/>
<path d="M191.432 176.477C191.979 180.351 185.962 183.214 187.362 188.941C186.32 190.288 185.056 191.494 183.61 192.519L181.17 186.688L182.384 176L190.524 175.398L191.432 176.477Z" fill="#263238"/>
<path d="M185.787 176C192.165 179.607 202.865 178.968 205.841 178.071C204.353 173.404 198.369 172.077 198.369 172.077C198.369 172.077 188.336 171.285 185.787 176Z" fill="#263238"/>
<path d="M198.938 194.963C197.951 194.999 196.969 194.822 196.08 194.447C195.19 194.072 194.421 193.512 193.839 192.815C193.813 192.77 193.806 192.718 193.82 192.669C193.834 192.62 193.868 192.577 193.916 192.548C193.939 192.534 193.966 192.525 193.994 192.52C194.021 192.515 194.05 192.516 194.078 192.521C194.105 192.526 194.132 192.537 194.154 192.551C194.177 192.566 194.197 192.584 194.211 192.605C194.762 193.242 195.479 193.753 196.304 194.097C197.128 194.441 198.035 194.607 198.949 194.581C198.977 194.581 199.005 194.586 199.031 194.595C199.057 194.605 199.08 194.619 199.1 194.637C199.119 194.655 199.134 194.676 199.144 194.699C199.154 194.723 199.158 194.747 199.156 194.772C199.156 194.822 199.133 194.871 199.092 194.907C199.051 194.942 198.996 194.963 198.938 194.963Z" fill="#263238"/>
<path d="M179.573 192.958C180.115 193.734 180.834 194.405 181.684 194.93C182.534 195.455 183.499 195.824 184.518 196.012C187.264 196.518 188.555 194.314 187.712 192.119C186.947 190.143 184.605 187.509 181.881 187.996C181.289 188.106 180.736 188.341 180.272 188.681C179.808 189.02 179.446 189.454 179.219 189.943C178.991 190.433 178.904 190.964 178.966 191.489C179.027 192.015 179.236 192.519 179.573 192.958Z" fill="#FFB573"/>
<path opacity="0.2" d="M190.863 296.401L187.122 302.824C188.839 314.963 190.809 329.851 192.122 343.011C195.108 329.775 197.045 304.36 190.863 296.401Z" fill="black"/>
<path d="M198.467 278.478C198.467 278.478 187.833 331.407 183.085 353.013C177.877 376.672 147.735 431.289 147.735 431.289L133.085 426.899C133.085 426.899 157.297 372.501 159.923 349.158C162.91 322.617 167.22 278.803 167.22 278.803L198.467 278.478Z" fill="#263238"/>
<path d="M148.938 431.967L131.674 426.794L133.632 422.232L152.057 427.424L148.938 431.967Z" fill="#D36681"/>
<path d="M196.421 186.698C196.421 187.299 196.76 187.786 197.209 187.776C197.658 187.767 198.041 187.28 198.051 186.679C198.062 186.078 197.723 185.591 197.264 185.6C196.804 185.61 196.432 186.097 196.421 186.698Z" fill="#263238"/>
<path d="M204.222 186.612C204.222 187.213 204.561 187.7 205.01 187.69C205.458 187.681 205.841 187.194 205.863 186.593C205.885 185.992 205.524 185.515 205.064 185.515C204.605 185.515 204.244 186.02 204.222 186.612Z" fill="#263238"/>
<path d="M201.739 186.975C202.51 188.8 203.571 190.522 204.889 192.09C203.642 193.102 201.498 192.519 201.498 192.519L201.739 186.975Z" fill="#ED893E"/>
<path d="M194.058 184.522C194.131 184.534 194.207 184.527 194.277 184.504C194.346 184.48 194.407 184.44 194.452 184.388C194.755 184.023 195.151 183.724 195.608 183.514C196.066 183.304 196.572 183.188 197.089 183.176C197.197 183.182 197.304 183.15 197.386 183.087C197.467 183.025 197.518 182.937 197.526 182.842C197.532 182.797 197.528 182.751 197.513 182.707C197.497 182.663 197.472 182.623 197.438 182.588C197.404 182.553 197.363 182.525 197.316 182.504C197.269 182.484 197.218 182.472 197.165 182.47C196.512 182.476 195.869 182.614 195.288 182.874C194.707 183.134 194.203 183.509 193.817 183.968C193.753 184.043 193.724 184.136 193.737 184.228C193.749 184.32 193.801 184.405 193.883 184.465C193.937 184.494 193.996 184.513 194.058 184.522V184.522Z" fill="#263238"/>
<path d="M207.636 184.236C207.714 184.258 207.798 184.258 207.876 184.236C207.973 184.196 208.049 184.125 208.088 184.038C208.127 183.951 208.125 183.854 208.084 183.768C207.824 183.269 207.426 182.833 206.925 182.5C206.425 182.167 205.839 181.947 205.218 181.859C205.111 181.848 205.003 181.874 204.917 181.931C204.831 181.988 204.774 182.072 204.758 182.165C204.75 182.21 204.753 182.256 204.766 182.3C204.779 182.344 204.802 182.386 204.834 182.422C204.865 182.459 204.905 182.489 204.95 182.512C204.995 182.535 205.045 182.55 205.097 182.556V182.556C205.58 182.646 206.031 182.836 206.412 183.11C206.793 183.384 207.092 183.734 207.285 184.131C207.329 184.173 207.384 184.204 207.445 184.223C207.506 184.241 207.572 184.245 207.636 184.236V184.236Z" fill="#263238"/>
<path d="M141.707 442.245C142.15 442.566 142.706 442.745 143.282 442.751C143.485 442.735 143.681 442.677 143.853 442.58C144.024 442.484 144.166 442.352 144.267 442.197C144.339 442.115 144.383 442.017 144.395 441.915C144.407 441.812 144.385 441.708 144.332 441.615C143.873 440.795 140.645 440.661 140.284 440.604C140.243 440.602 140.203 440.611 140.168 440.63C140.133 440.649 140.105 440.676 140.087 440.709C140.063 440.736 140.049 440.769 140.049 440.804C140.049 440.839 140.063 440.872 140.087 440.9C140.564 441.403 141.107 441.854 141.707 442.245V442.245ZM143.785 441.615C143.863 441.654 143.927 441.71 143.971 441.778C143.995 441.814 144.008 441.855 144.008 441.897C144.008 441.939 143.995 441.98 143.971 442.016C143.904 442.122 143.808 442.213 143.692 442.279C143.576 442.346 143.442 442.386 143.304 442.398C142.702 442.446 141.772 441.93 140.788 440.995C141.824 441.026 142.843 441.237 143.785 441.615V441.615Z" fill="#D36681"/>
<path d="M140.142 440.928C140.17 440.938 140.201 440.938 140.23 440.928C141.225 441.033 143.731 440.546 144.157 439.773C144.223 439.655 144.239 439.521 144.203 439.394C144.167 439.267 144.081 439.155 143.96 439.077C143.848 438.986 143.714 438.917 143.569 438.875C143.424 438.832 143.27 438.816 143.118 438.829C141.838 438.914 140.186 440.575 140.109 440.642C140.091 440.669 140.081 440.701 140.081 440.732C140.081 440.764 140.091 440.796 140.109 440.823C140.105 440.86 140.117 440.898 140.142 440.928V440.928ZM143.61 439.315H143.676C143.873 439.478 143.818 439.573 143.796 439.611C143.545 440.069 141.816 440.565 140.711 440.565C141.344 439.901 142.184 439.41 143.129 439.153C143.307 439.151 143.48 439.209 143.61 439.315V439.315Z" fill="#D36681"/>
<path d="M174.409 225.426L171.717 228.289C170.809 229.243 169.912 230.245 169.026 231.247C167.253 233.232 165.525 235.243 163.84 237.279C162.188 239.321 160.558 241.382 159.091 243.463C157.625 245.543 156.214 247.662 155.065 249.781L154.836 250.181L154.748 250.363C154.666 250.506 154.6 250.657 154.551 250.811C154.402 251.243 154.285 251.683 154.201 252.128C153.989 253.224 153.858 254.33 153.807 255.44C153.698 257.797 153.73 260.307 153.884 262.827C154.168 267.866 154.693 273.076 155.273 278.192L149.015 279.461C146.949 274.369 145.322 269.151 144.146 263.848C143.539 261.108 143.123 258.338 142.899 255.555C142.795 254.042 142.795 252.525 142.899 251.012C142.978 250.153 143.113 249.299 143.304 248.454C143.435 247.986 143.534 247.547 143.742 247.013L144.026 246.269L144.256 245.772C146.63 240.564 149.63 235.59 153.205 230.932C154.934 228.642 156.75 226.428 158.676 224.252C159.628 223.173 160.601 222.114 161.597 221.055C162.593 219.995 163.577 218.993 164.715 217.886L174.409 225.426Z" fill="#FFB573"/>
<path d="M166.334 213.964C158.194 214.975 149.365 231.696 149.365 231.696L164.77 244.408C164.77 244.408 171.159 236 176.422 227.84C182.144 218.955 176.181 212.742 166.334 213.964Z" fill="#D36681"/>
<path d="M154.529 276.579L159.682 282.525L148.971 284.786C148.971 284.786 145.908 278.841 149.409 276.961L154.529 276.579Z" fill="#FFB573"/>
<path d="M159.507 288.756L150.569 290.264L148.971 284.786L159.682 282.525L159.507 288.756Z" fill="#FFB573"/>
<path d="M403.191 432.873L395.116 435.889L383.924 420.782L391.987 417.756L403.191 432.873Z" fill="#FFC3BD"/>
<path opacity="0.2" d="M391.998 417.756L383.924 420.782L389.701 428.569L397.775 425.553L391.998 417.756Z" fill="black"/>
<path d="M329.078 280.702C329.078 280.702 343.301 343.155 350.423 364.685C358.224 388.343 385.149 428.35 385.149 428.35L399.93 422.814C399.93 422.814 383.519 390.557 376.955 367.271C369.526 340.759 359.252 278.516 359.252 278.516L329.078 280.702Z" fill="#D36681"/>
<path opacity="0.2" d="M340.85 298.634C342.677 315.994 343.115 328.219 343.87 341.656C340.128 327.398 336.135 310.869 333.235 298.634H340.85Z" fill="black"/>
<path d="M344.253 450.386L335.467 450.271L333.454 432.501L342.229 432.616L344.253 450.386Z" fill="#FFC3BD"/>
<path opacity="0.2" d="M333.454 432.501L334.494 441.663L343.279 441.787L342.24 432.625L333.454 432.501Z" fill="black"/>
<path d="M331.233 439.878L346.102 440.079C346.102 440.079 340.237 389.679 338.312 365.868C337.721 358.625 337.995 348.384 338.695 337.362C339.57 323.466 340.15 317.902 341.353 300.342C342.207 287.821 343.246 279.709 343.246 279.709L312.47 281.914C312.47 281.914 311.266 342.716 314.756 365.897C318.411 389.966 331.233 439.878 331.233 439.878Z" fill="#D36681"/>
<path d="M335.544 449.422L345.139 449.555C345.312 449.555 345.48 449.607 345.614 449.703C345.748 449.799 345.839 449.932 345.872 450.08L347.491 456.914C347.533 457.079 347.531 457.251 347.485 457.416C347.439 457.58 347.35 457.734 347.225 457.864C347.101 457.994 346.943 458.097 346.766 458.165C346.588 458.234 346.394 458.266 346.2 458.259C342.743 458.164 337.743 457.916 333.4 457.858C328.312 457.792 327.732 457.973 321.769 457.858C318.17 457.811 317.229 454.623 318.739 454.356C325.632 453.134 327.426 453.067 333.421 449.956C334.06 449.613 334.794 449.428 335.544 449.422V449.422Z" fill="#263238"/>
<path d="M329.362 440.127L347.075 440.365L347.174 435.374L328.214 434.839L329.362 440.127Z" fill="#D36681"/>
<path opacity="0.3" d="M329.362 440.127L347.075 440.365L347.174 435.374L328.214 434.839L329.362 440.127Z" fill="black"/>
<path d="M334.669 450.433C334.704 450.419 334.735 450.398 334.759 450.371C334.784 450.345 334.802 450.314 334.811 450.281C334.816 450.244 334.808 450.208 334.788 450.175C334.769 450.143 334.739 450.117 334.701 450.099C334.308 449.909 330.807 448.305 329.723 448.802C329.622 448.85 329.537 448.92 329.476 449.005C329.415 449.09 329.379 449.188 329.373 449.288V449.288C329.351 449.451 329.372 449.617 329.437 449.771C329.502 449.925 329.607 450.064 329.745 450.176C330.697 450.93 333.224 450.662 334.636 450.433H334.669ZM329.997 449.097C330.664 448.906 332.568 449.565 333.947 450.166C332.01 450.424 330.566 450.328 330.03 449.909C329.939 449.834 329.869 449.741 329.827 449.638C329.786 449.535 329.772 449.425 329.789 449.317C329.788 449.278 329.8 449.239 329.823 449.205C329.847 449.171 329.88 449.144 329.92 449.126L329.997 449.097Z" fill="#D36681"/>
<path d="M334.669 450.434H334.723C334.751 450.414 334.774 450.39 334.789 450.361C334.804 450.333 334.812 450.302 334.811 450.271C334.811 450.185 334.603 448.114 333.498 447.303C333.343 447.183 333.16 447.091 332.963 447.036C332.765 446.98 332.556 446.96 332.349 446.979C331.78 446.979 331.605 447.265 331.561 447.475C331.386 448.334 333.465 450.023 334.515 450.453C334.568 450.461 334.621 450.454 334.669 450.434V450.434ZM332.174 447.341H332.382C332.535 447.329 332.688 447.345 332.833 447.387C332.979 447.43 333.112 447.499 333.224 447.59C333.865 448.262 334.248 449.093 334.319 449.966C333.224 449.384 331.846 448.057 331.955 447.542C331.977 447.513 331.999 447.389 332.174 447.341V447.341Z" fill="#D36681"/>
<path d="M393.278 435.536L402.479 430.764C402.629 430.686 402.805 430.654 402.978 430.675C403.152 430.696 403.311 430.768 403.431 430.879L408.902 435.956C409.034 436.08 409.133 436.229 409.191 436.392C409.248 436.554 409.263 436.726 409.233 436.894C409.204 437.062 409.131 437.222 409.02 437.362C408.91 437.502 408.765 437.618 408.595 437.702C405.608 439.191 403.344 440.165 399.624 442.102C397.326 443.295 392.031 446.273 388.869 447.914C385.707 449.556 383.486 447.103 384.493 446.129C389.263 441.739 391.407 439.01 392.272 436.586C392.441 436.137 392.801 435.761 393.278 435.536V435.536Z" fill="#263238"/>
<path d="M263.707 179.884L265.414 173.203L256.344 170.903C256.344 170.903 253.587 177.364 258.915 180.447L263.707 179.884Z" fill="#FFC3BD"/>
<path d="M264.232 166.733L257.186 163.431L256.322 170.942L265.392 173.242L264.232 166.733Z" fill="#FFC3BD"/>
<path d="M307.82 228.651C304.45 227.831 301.398 226.924 298.236 225.931C295.074 224.939 292.011 223.86 288.936 222.677C285.862 221.494 282.82 220.253 279.801 218.86C278.291 218.192 276.792 217.428 275.293 216.684L273.105 215.491L272.547 215.195L271.716 214.718C271.169 214.381 270.654 214.037 270.173 213.687C268.457 212.393 266.964 210.888 265.742 209.221C264.675 207.785 263.738 206.279 262.941 204.716C261.514 201.852 260.386 198.881 259.571 195.841C258.001 190.073 257.168 184.17 257.088 178.242L265.151 177.288C266.848 182.468 268.86 187.565 271.179 192.558C272.266 194.885 273.554 197.137 275.031 199.295C275.679 200.244 276.41 201.147 277.219 201.996C277.833 202.639 278.544 203.207 279.33 203.685C279.461 203.762 279.596 203.832 279.735 203.895C279.805 203.91 279.872 203.936 279.932 203.972L280.435 204.172L282.427 205.012C283.805 205.546 285.162 206.09 286.562 206.606C289.352 207.646 292.219 208.61 295.107 209.564C297.995 210.519 300.916 211.473 303.859 212.313L312.612 214.918L307.82 228.651Z" fill="#D36681"/>
<path d="M336.835 191.746C336.2 197.425 336.091 207.751 340.981 211.091C337.841 214.403 333.695 218.268 326.124 219.146C318.553 220.024 319.373 215.328 321.113 212.78C328.082 210.69 327.382 206.1 325.653 201.863L336.835 191.746Z" fill="#FFC3BD"/>
<path d="M316.988 186.23C316.912 186.851 316.485 187.318 316.026 187.28C315.566 187.242 315.249 186.707 315.314 186.087C315.38 185.467 315.818 185.009 316.277 185.047C316.737 185.085 317.054 185.619 316.988 186.23Z" fill="#263238"/>
<path d="M316.737 186.832C315.686 188.641 314.353 190.314 312.776 191.804C313.22 192.144 313.744 192.395 314.311 192.54C314.878 192.685 315.474 192.72 316.058 192.644L316.737 186.832Z" fill="#ED847E"/>
<path d="M318.87 183.93C318.807 183.909 318.751 183.874 318.707 183.829C318.663 183.784 318.632 183.73 318.619 183.673C318.517 183.225 318.294 182.806 317.968 182.449C317.643 182.092 317.224 181.808 316.748 181.621C316.696 181.604 316.648 181.579 316.608 181.547C316.567 181.515 316.534 181.476 316.511 181.432C316.487 181.389 316.474 181.342 316.472 181.294C316.469 181.246 316.477 181.198 316.496 181.153C316.515 181.108 316.543 181.067 316.58 181.031C316.618 180.996 316.662 180.967 316.712 180.947C316.762 180.926 316.816 180.914 316.871 180.912C316.926 180.91 316.98 180.917 317.032 180.934C317.637 181.167 318.17 181.522 318.587 181.97C319.003 182.418 319.292 182.946 319.428 183.51C319.451 183.604 319.43 183.702 319.371 183.782C319.312 183.863 319.218 183.919 319.111 183.94C319.032 183.961 318.947 183.957 318.87 183.93V183.93Z" fill="#263238"/>
<path d="M341.058 186.727C339.362 194.19 338.804 198.627 333.859 201.996C326.408 207.035 316.299 202.34 315.402 194.59C314.592 187.614 317.492 176.591 326.397 174.549C328.36 174.099 330.421 174.094 332.386 174.535C334.351 174.976 336.154 175.848 337.624 177.069C339.093 178.289 340.18 179.818 340.781 181.508C341.382 183.198 341.478 184.995 341.058 186.727Z" fill="#FFC3BD"/>
<path d="M323.695 188.807C321.233 186.335 322.152 181.01 323.695 178.462C321.879 179.473 315.697 179.111 315.664 174.883C315.61 168.689 327.546 167.248 334.089 168.336C341.627 169.634 348.388 175.799 350.992 173.671C353.673 177.794 348.979 179.235 348.979 179.235C348.979 179.235 353.64 189.494 336.583 199.543C334.243 199.256 331.863 199.344 329.559 199.801C329.031 199.8 328.525 199.618 328.148 199.295C326.419 197.787 321.693 193.13 323.695 188.807Z" fill="#263238"/>
<path d="M348.334 179.006C348.334 179.006 351.55 179.598 352.644 177.794C352.327 180.371 350.522 180.39 348.334 179.006Z" fill="#263238"/>
<path d="M329.351 191.174C328.271 192.838 326.476 194.061 324.362 194.571C321.562 195.22 320.183 193.025 320.993 190.754C321.715 188.683 324.056 185.858 326.857 186.211C329.658 186.564 330.631 189.131 329.351 191.174Z" fill="#FFC3BD"/>
<path d="M362.754 217.609C364.012 218.659 365.04 219.604 366.123 220.616C367.206 221.627 368.235 222.629 369.23 223.67C371.254 225.721 373.18 227.85 375.062 230.006C376.944 232.163 378.738 234.377 380.434 236.687L381.867 238.51C382.403 239.197 382.841 239.903 383.3 240.6C384.162 241.984 384.911 243.419 385.543 244.894C386.758 247.672 387.648 250.55 388.202 253.484C388.753 256.297 389.063 259.143 389.132 261.996C389.229 264.779 389.134 267.565 388.847 270.337C388.584 273.116 388.116 275.876 387.447 278.602L379.362 277.829C379.219 275.453 379.011 272.857 378.694 270.395C378.377 267.932 377.961 265.451 377.447 263.046C376.553 258.438 374.929 253.961 372.622 249.743C372.073 248.809 371.463 247.904 370.795 247.032C370.456 246.622 370.139 246.192 369.788 245.82C369.591 245.62 369.471 245.467 369.23 245.228L368.519 244.503C366.594 242.594 364.69 240.686 362.732 238.777C360.773 236.868 358.837 234.96 356.889 233.137L351.145 227.649L362.754 217.609Z" fill="#D36681"/>
<path d="M341.102 223.67C339.701 229.195 359.143 239.254 359.143 239.254L374.526 227.802C370.623 222.925 366.229 218.361 361.397 214.164C353.421 207.236 343.377 214.718 341.102 223.67Z" fill="#263238"/>
<path opacity="0.2" d="M354.614 229.462C351.835 228.136 351.408 231.161 351.835 235.007C355.708 237.479 359.132 239.254 359.132 239.254L361.091 237.794C359.548 234.272 357.403 230.789 354.614 229.462Z" fill="black"/>
<path d="M379.187 276.627L375.138 281.341L384.865 284.844C384.865 284.844 387.403 281.026 386.867 278.163C386.744 277.617 386.442 277.115 385.997 276.717C385.552 276.318 384.984 276.042 384.361 275.92L382.589 275.558C381.964 275.426 381.309 275.457 380.704 275.647C380.099 275.837 379.571 276.177 379.187 276.627Z" fill="#FFC3BD"/>
<path d="M373.18 288.909L382.348 290.684L384.865 284.844L375.138 281.341L373.18 288.909Z" fill="#FFC3BD"/>
<path d="M358.126 215.376C354.143 244.713 364.865 280.921 365.128 286.953C358.257 287.449 324.297 290.178 310.194 291.181C302.01 238.949 309.549 214.174 309.549 214.174C309.549 214.174 312.47 213.353 316.485 212.561C317.743 212.313 319.111 212.074 320.533 211.855C321.31 211.731 322.12 211.626 322.929 211.521C329.555 210.931 336.214 210.67 342.874 210.738C344.132 210.738 345.423 210.738 346.671 210.824C347.918 210.91 348.957 210.938 350.029 211.005C351.681 211.12 353.213 211.253 354.515 211.377C355.054 211.431 355.576 211.577 356.05 211.807C356.525 212.037 356.942 212.347 357.277 212.719C357.613 213.091 357.861 213.518 358.007 213.974C358.152 214.43 358.193 214.906 358.126 215.376V215.376Z" fill="#263238"/>
<path opacity="0.2" d="M307.207 228.27C307.043 229.768 306.912 231.4 306.803 233.156C309.91 232.889 313.684 232.201 315.282 230.636C317.229 228.651 311.277 228.298 307.207 228.27Z" fill="black"/>
<path d="M318.925 230.942C311.409 234.187 297.175 228.651 297.175 228.651L297.404 209.402C297.404 209.402 312.776 211.559 323.662 211.463C334.822 211.368 327.163 227.372 318.925 230.942Z" fill="#263238"/>
<path d="M383.519 429.285L400.926 422.776L398.694 418.234L378.946 423.902L383.519 429.285Z" fill="#D36681"/>
<path opacity="0.3" d="M383.519 429.285L400.926 422.776L398.694 418.234L378.946 423.902L383.519 429.285Z" fill="black"/>
<path d="M391.571 437.97C392.229 437.611 392.838 437.188 393.388 436.71C393.409 436.682 393.421 436.648 393.421 436.614C393.421 436.581 393.409 436.547 393.388 436.519C393.376 436.485 393.351 436.455 393.317 436.434C393.283 436.413 393.243 436.403 393.202 436.405C392.819 436.405 389.504 436.357 388.924 437.158C388.86 437.249 388.826 437.353 388.826 437.459C388.826 437.565 388.86 437.669 388.924 437.76C389.008 437.923 389.137 438.066 389.299 438.175C389.461 438.285 389.652 438.359 389.854 438.39C390.465 438.432 391.074 438.283 391.571 437.97V437.97ZM392.72 436.758C391.626 437.655 390.532 438.122 389.963 438.036C389.824 438.015 389.693 437.963 389.582 437.887C389.472 437.81 389.384 437.711 389.329 437.597C389.301 437.562 389.286 437.521 389.286 437.478C389.286 437.436 389.301 437.394 389.329 437.359C389.613 436.949 391.385 436.786 392.72 436.767V436.758Z" fill="#D36681"/>
<path d="M393.344 436.748C393.378 436.728 393.408 436.702 393.431 436.672C393.45 436.644 393.459 436.613 393.459 436.581C393.459 436.549 393.45 436.518 393.431 436.49C393.366 436.414 391.889 434.582 390.587 434.439C390.43 434.411 390.269 434.414 390.114 434.447C389.959 434.48 389.814 434.542 389.69 434.629V434.629C389.556 434.7 389.455 434.81 389.403 434.938C389.351 435.067 389.352 435.207 389.405 435.336C389.744 436.156 392.239 436.805 393.267 436.777L393.344 436.748ZM389.996 434.839C390.153 434.765 390.334 434.738 390.51 434.763C391.342 434.878 392.337 435.851 392.808 436.366C391.714 436.252 389.974 435.66 389.766 435.183C389.766 435.135 389.712 435.03 389.919 434.887L389.996 434.839Z" fill="#D36681"/>
<path opacity="0.9" d="M258.51 134.38H257.23V139.791H258.51V134.38Z" fill="#D36681"/>
<path opacity="0.9" d="M258.51 142.435H257.23V156.111H258.51V142.435Z" fill="#D36681"/>
<path opacity="0.9" d="M271.864 155.662L265.153 161.509L266.057 162.299L272.768 156.452L271.864 155.662Z" fill="#D36681"/>
<path opacity="0.9" d="M283.28 168.126H273.379V169.243H283.28V168.126Z" fill="#D36681"/>
<path opacity="0.9" d="M241.074 153.251L240.169 154.04L249.661 162.321L250.566 161.531L241.074 153.251Z" fill="#D36681"/>
<path opacity="0.9" d="M242.362 168.126H237.931V169.243H242.362V168.126Z" fill="#D36681"/>
</g>
<defs>
<clipPath id="clip0">
<rect width="542" height="534" fill="white"/>
</clipPath>
</defs>
</svg>
