<svg width="542" height="534" viewBox="0 0 542 534" fill="none" xmlns="http://www.w3.org/2000/svg">
<path fill-rule="evenodd" clip-rule="evenodd" d="M247.884 33.4751C299.558 36.2861 339.699 75.1226 380.764 106.98C420.666 137.934 466.024 166.818 481.962 215.066C497.958 263.488 478.559 314.231 465.522 363.553C451.677 415.931 447.102 477.181 404.118 509.563C361.026 542.027 301.258 533.742 247.884 527.511C199.829 521.901 150.774 509.74 115.821 475.906C83.1374 444.269 84.4551 393.614 66.271 351.711C45.1266 302.986 -6.91833 263.422 0.767902 210.779C8.58309 157.254 60.5762 123.235 104.2 91.9347C147.365 60.9645 195.043 30.6005 247.884 33.4751Z" fill="#F9F871"/>
<path d="M234.231 16.9439C228.032 23.5831 212.898 16.9439 210.588 35.2257C208.087 54.9371 217.571 64.408 205.324 69.5901C186.08 77.6314 172.334 109.769 199.056 121.824C225.777 133.879 282.685 121.247 276.279 96.6829C269.874 72.1193 271.138 58.9371 278.699 47.3632C288.664 32.0642 286.534 12.4078 278.41 5.2875C265.764 -5.84656 248.293 1.82357 234.231 16.9439Z" fill="#263238"/>
<path d="M267.303 96.0232C267.198 96.0272 267.096 95.9911 267.017 95.9221C266.938 95.8531 266.888 95.7565 266.877 95.652C266.868 95.5968 266.869 95.5401 266.882 95.4855C266.895 95.4309 266.919 95.3796 266.952 95.3345C266.986 95.2895 267.028 95.2517 267.077 95.2236C267.125 95.1955 267.179 95.1776 267.235 95.171C272.54 94.4424 275.702 93.1366 277.187 91.0472C279.028 88.4493 278.231 84.5867 277.187 79.6932C275.565 71.7344 273.324 60.8341 280.472 47.0608C289.145 30.3598 285.97 12.0504 277.846 6.05729C277.756 5.99123 277.695 5.89214 277.677 5.78151C277.659 5.67087 277.685 5.5576 277.75 5.46622C277.819 5.37474 277.92 5.31353 278.033 5.29556C278.146 5.2776 278.261 5.3043 278.355 5.37C286.822 11.5693 290.094 30.3735 281.228 47.4595C274.231 60.9578 276.431 71.6932 278.025 79.5283C279.07 84.6142 279.894 88.6417 277.833 91.5421C276.211 93.8376 272.87 95.2534 267.317 96.0232H267.303Z" fill="#263238"/>
<path d="M197.997 72.2155C197.129 72.2119 196.261 72.1568 195.399 72.0506C195.343 72.0438 195.289 72.0259 195.24 71.998C195.191 71.97 195.148 71.9326 195.113 71.8878C195.078 71.843 195.053 71.7918 195.039 71.7372C195.024 71.6825 195.021 71.6255 195.028 71.5695C195.035 71.5133 195.053 71.4591 195.081 71.4099C195.109 71.3607 195.146 71.3176 195.191 71.2831C195.236 71.2486 195.287 71.2233 195.342 71.2087C195.396 71.1942 195.453 71.1906 195.509 71.1983C199.413 71.6794 202.245 71.1021 204.155 69.4251C207.729 66.2774 207.784 59.6932 207.825 52.0643C207.825 43.4319 207.949 33.6587 213.544 26.992C213.58 26.9487 213.624 26.9129 213.674 26.8867C213.724 26.8605 213.779 26.8444 213.835 26.8393C213.891 26.8342 213.948 26.8402 214.001 26.857C214.055 26.8737 214.105 26.9009 214.149 26.9371C214.192 26.9732 214.228 27.0174 214.254 27.0674C214.28 27.1173 214.296 27.1719 214.301 27.2281C214.306 27.2842 214.3 27.3408 214.284 27.3947C214.267 27.4485 214.24 27.4985 214.204 27.5419C208.801 33.9749 208.705 43.5831 208.705 52.078C208.705 59.8993 208.609 66.6622 204.746 70.0712C202.842 71.601 200.435 72.3656 197.997 72.2155Z" fill="#263238"/>
<path d="M332.912 314.69C323.743 314.58 320.142 314.003 315.922 314.072C311.702 314.141 310.699 314.883 306.3 314.69C303.331 314.567 303.317 311.034 304.458 308.615C305.352 306.718 306.451 304.807 307.468 302.443L319.097 303.295C320.664 307.721 328.444 309.618 335.262 311.185C337.97 311.831 336.582 314.732 332.912 314.69Z" fill="#D36681"/>
<path d="M272.279 145.824C272.279 145.824 303.042 172.285 334.135 200.353C347.276 212.243 319.716 302.897 319.716 302.897C319.139 304.835 308.884 302.072 307.345 300.546C307.345 300.546 305.778 230.182 312.444 216.01C243.496 198.58 232.719 164.724 232.719 164.724L237.668 143.721L272.279 145.824Z" fill="#263238"/>
<path opacity="0.2" d="M237.269 173.068C241.128 178.462 245.702 183.308 250.863 187.474C257.736 179.432 255.812 166.443 255.812 166.443L237.269 173.068Z" fill="black"/>
<path d="M322.108 298.979C321.915 300.354 321.585 302.787 321.407 304.587C321.379 304.879 321.241 305.149 321.022 305.343C320.802 305.537 320.517 305.64 320.224 305.632C315.624 305.271 311.068 304.48 306.616 303.268C306.402 303.208 306.212 303.081 306.076 302.905C305.94 302.73 305.864 302.514 305.86 302.292L305.764 297.275C305.763 297.111 305.797 296.95 305.862 296.801C305.928 296.651 306.024 296.517 306.144 296.407C306.265 296.297 306.407 296.213 306.561 296.161C306.716 296.11 306.88 296.091 307.042 296.106L321.228 297.824C321.363 297.839 321.493 297.882 321.611 297.949C321.729 298.015 321.833 298.106 321.915 298.214C321.997 298.321 322.057 298.445 322.09 298.577C322.123 298.708 322.129 298.845 322.108 298.979Z" fill="#263238"/>
<path opacity="0.3" d="M322.108 298.979C321.915 300.354 321.585 302.787 321.407 304.587C321.379 304.879 321.241 305.149 321.022 305.343C320.802 305.537 320.517 305.64 320.224 305.632C315.624 305.271 311.068 304.48 306.616 303.268C306.402 303.208 306.212 303.081 306.076 302.905C305.94 302.73 305.864 302.514 305.86 302.292L305.764 297.275C305.763 297.111 305.797 296.95 305.862 296.801C305.928 296.651 306.024 296.517 306.144 296.407C306.265 296.297 306.407 296.213 306.561 296.161C306.716 296.11 306.88 296.091 307.042 296.106L321.228 297.824C321.363 297.839 321.493 297.882 321.611 297.949C321.729 298.015 321.833 298.106 321.915 298.214C321.997 298.321 322.057 298.445 322.09 298.577C322.123 298.708 322.129 298.845 322.108 298.979Z" fill="white"/>
<path d="M198.313 380.436C188.994 380.436 185.942 376.931 180.733 375.969C176.334 375.144 175.166 375.529 171.619 374.911C168.65 374.388 168.416 372.354 170.245 369.344C171.437 367.262 172.449 365.082 173.269 362.828L187.399 363.763C188.87 367.543 192.265 375.227 197.447 376.134C202.327 377.082 202.025 380.436 198.313 380.436Z" fill="#D36681"/>
<path d="M270.149 145.742C270.149 145.742 237.64 203.542 224.554 239.295C210.808 276.848 188.925 338.264 187.344 363.763C185.008 364.876 177.337 364.45 173.214 362.828C173.214 362.828 169.392 274.855 195.853 239.611C202.162 164.133 212.637 152.065 223.771 142.869L270.149 145.742Z" fill="#263238"/>
<path d="M189.049 358.553C188.88 360.293 188.834 362.043 188.911 363.79C188.93 364.094 188.828 364.394 188.627 364.623C188.426 364.852 188.143 364.992 187.839 365.014C182.575 365.495 175.234 363.804 172.911 363.227C172.695 363.173 172.503 363.049 172.364 362.875C172.225 362.702 172.147 362.487 172.142 362.264L171.963 357.343C171.961 357.182 171.992 357.021 172.055 356.872C172.118 356.723 172.211 356.589 172.329 356.478C172.446 356.366 172.586 356.281 172.738 356.227C172.89 356.172 173.052 356.15 173.214 356.161L188.114 357.44C188.249 357.45 188.381 357.487 188.501 357.549C188.622 357.611 188.728 357.696 188.816 357.8C188.903 357.904 188.968 358.024 189.008 358.153C189.048 358.282 189.062 358.418 189.049 358.553Z" fill="#263238"/>
<path opacity="0.3" d="M189.049 358.553C188.88 360.293 188.834 362.043 188.911 363.79C188.93 364.094 188.828 364.394 188.627 364.623C188.426 364.852 188.143 364.992 187.839 365.014C182.575 365.495 175.234 363.804 172.911 363.227C172.695 363.173 172.503 363.049 172.364 362.875C172.225 362.702 172.147 362.487 172.142 362.264L171.963 357.343C171.961 357.182 171.992 357.021 172.055 356.872C172.118 356.723 172.211 356.589 172.329 356.478C172.446 356.366 172.586 356.281 172.738 356.227C172.89 356.172 173.052 356.15 173.214 356.161L188.114 357.44C188.249 357.45 188.381 357.487 188.501 357.549C188.622 357.611 188.728 357.696 188.816 357.8C188.903 357.904 188.968 358.024 189.008 358.153C189.048 358.282 189.062 358.418 189.049 358.553Z" fill="white"/>
<path d="M278.767 89.0403C280.142 91.6383 281.626 94.5386 283.138 97.2878C284.65 100.037 286.176 102.786 287.716 105.466C290.822 110.869 294.066 116.161 297.544 121.15L295.675 119.487C297.054 120.457 298.575 121.208 300.183 121.714C302.129 122.367 304.124 122.863 306.149 123.199C308.266 123.583 310.465 123.845 312.706 124.051C314.946 124.257 317.297 124.381 319.441 124.518H319.73C320.622 124.569 321.47 124.93 322.125 125.538C322.781 126.146 323.205 126.963 323.324 127.85C323.442 128.736 323.249 129.636 322.776 130.395C322.303 131.154 321.581 131.725 320.733 132.01C318.277 132.827 315.764 133.461 313.214 133.906C310.652 134.362 308.062 134.642 305.462 134.745C302.703 134.851 299.94 134.685 297.214 134.25C294.137 133.786 291.162 132.801 288.417 131.336C287.846 131.024 287.338 130.609 286.919 130.113L286.547 129.673C284.362 127.061 282.231 124.394 280.279 121.659C278.327 118.924 276.417 116.161 274.644 113.412C272.87 110.662 271.152 107.735 269.53 104.834C267.908 101.934 266.369 99.061 264.898 95.8857C264.126 94.0814 264.072 92.0503 264.747 90.2076C265.423 88.3649 266.777 86.8498 268.532 85.9721C270.288 85.0944 272.312 84.9203 274.191 85.4855C276.071 86.0507 277.663 87.3125 278.644 89.0128L278.767 89.0403Z" fill="#FFB573"/>
<path d="M271.18 77.9475C280.156 80.9028 281.613 84.9303 286.534 99.8032C283.262 108.724 270.039 113.247 270.039 113.247C270.039 113.247 254.424 87.817 271.18 77.9475Z" fill="#D36681"/>
<path d="M283.468 97.3015C282.96 102.222 281.695 108.092 279.042 119.625C276.98 129.412 276.953 148.491 273.654 149.494C267.317 152.628 251.455 151.419 223.771 142.869C224.65 128.573 226.314 118.869 221.558 86.0712C221.258 84.3518 221.346 82.5874 221.815 80.9062C222.283 79.225 223.121 77.6695 224.266 76.3528C225.412 75.0361 226.836 73.9914 228.436 73.2947C230.037 72.598 231.772 72.2669 233.516 72.3255C235.523 72.3255 237.64 72.4905 239.798 72.6829C247.412 73.1408 254.982 74.1469 262.451 75.6932C264.884 76.243 267.4 76.8891 269.791 77.5489C274.004 78.7519 277.668 81.3778 280.162 84.9793C282.656 88.5808 283.824 92.9354 283.468 97.3015Z" fill="#D36681"/>
<path d="M186.561 154.154L189.31 151.638C189.822 151.171 190.214 150.587 190.453 149.936C190.692 149.286 190.771 148.587 190.685 147.9L189.929 141.343C189.784 140.054 189.335 138.819 188.617 137.738C187.9 136.658 186.936 135.764 185.805 135.13L184.43 134.346C179.523 138.209 177.063 145.989 177.063 145.989L176.114 148.133C175.906 148.567 175.785 149.037 175.76 149.518C175.735 149.998 175.806 150.479 175.969 150.932C176.131 151.384 176.382 151.8 176.707 152.155C177.031 152.51 177.423 152.797 177.86 152.999L182.08 154.924C182.822 155.24 183.639 155.336 184.434 155.199C185.229 155.062 185.967 154.7 186.561 154.154Z" fill="#FFB573"/>
<path d="M330.85 121.137L327.331 119.762C326.68 119.516 325.979 119.43 325.288 119.511C324.596 119.593 323.935 119.839 323.358 120.229L317.86 123.913C316.781 124.639 315.892 125.614 315.268 126.755C314.643 127.896 314.302 129.17 314.273 130.47V132.106C319.949 134.69 328.018 133.288 328.018 133.288L330.355 133.15C330.836 133.134 331.309 133.023 331.747 132.824C332.184 132.624 332.578 132.34 332.905 131.987C333.232 131.634 333.486 131.22 333.653 130.769C333.819 130.317 333.894 129.837 333.874 129.357L333.654 124.724C333.59 123.917 333.291 123.146 332.792 122.508C332.293 121.87 331.618 121.393 330.85 121.137Z" fill="#FFB573"/>
<path d="M229.75 90.4974L227.991 91.3084L226.066 92.1881C224.788 92.8067 223.523 93.4527 222.259 94.1125C219.716 95.4871 217.241 96.8616 214.808 98.305C212.375 99.7483 210.025 101.357 207.743 102.992C205.461 104.628 203.344 106.415 201.283 108.243L202.19 107.088C201.52 108.074 200.931 109.113 200.43 110.195C199.825 111.446 199.262 112.807 198.712 114.195C197.612 116.944 196.54 119.886 195.551 122.841C194.561 125.796 193.557 128.793 192.581 131.79L189.612 140.821C189.325 141.708 188.724 142.46 187.924 142.938C187.123 143.416 186.175 143.586 185.258 143.418C184.341 143.25 183.516 142.755 182.936 142.024C182.357 141.294 182.062 140.377 182.107 139.446C182.258 136.133 182.561 132.917 182.932 129.673C183.303 126.429 183.77 123.198 184.307 119.954C184.843 116.711 185.544 113.453 186.437 110.154C186.877 108.504 187.358 106.855 187.963 105.123C188.602 103.216 189.421 101.375 190.41 99.6245C190.583 99.3377 190.781 99.0664 191.001 98.8135L191.331 98.4699C193.595 95.9735 196.019 93.6272 198.588 91.4458C201.12 89.2939 203.773 87.2883 206.533 85.4389C209.257 83.5924 212.079 81.8946 214.987 80.353C216.444 79.5833 217.915 78.8547 219.413 78.1399C220.169 77.7963 220.911 77.4389 221.695 77.109C222.478 76.7791 223.193 76.4905 224.169 76.1193C226.041 75.371 228.132 75.3882 229.991 76.1674C231.851 76.9466 233.329 78.4253 234.108 80.2847C234.888 82.144 234.905 84.2351 234.156 86.1069C233.408 87.9788 231.954 89.4816 230.107 90.2912L229.75 90.4974Z" fill="#FFB573"/>
<path d="M243.028 75.8994C236.293 71.0746 232.197 70.5523 215.894 77.6313C213.956 87.8857 220.307 102.937 220.307 102.937C220.307 102.937 241.997 91.6383 243.028 75.8994Z" fill="#D36681"/>
<path d="M244.788 47.3357C245.791 54.8821 246.437 68.5592 241.049 72.7928C241.049 72.7928 248.087 72.6691 261.544 83.6795C266.589 78.1812 263.702 75.8032 263.702 75.8032C255.688 72.7654 256.252 66.7035 257.997 61.1639L244.788 47.3357Z" fill="#FFB573"/>
<path d="M258.699 81.4527C253.791 81.4527 251.303 88.5867 251.303 88.5867C251.303 88.5867 239.509 79.1846 237.901 72.5729C239.467 71.9415 240.999 71.2304 242.492 70.4423C242.492 70.4423 256.252 78.2911 258.699 81.4527Z" fill="white"/>
<path d="M263.4 81.274C263.4 81.274 267.111 82.6485 268.334 88.1468C270.85 77.6726 265.943 76.0231 265.943 76.0231C264.713 75.1011 263.184 74.6699 261.654 74.8135C262.657 75.5139 263.382 76.5451 263.701 77.7264C264.02 78.9076 263.914 80.1636 263.4 81.274Z" fill="white"/>
<path opacity="0.2" d="M250.176 52.9715L257.984 61.219C257.558 62.5082 257.25 63.8331 257.063 65.1777C253.984 64.3117 249.915 60.3117 249.778 56.9303C249.665 55.5974 249.801 54.2553 250.176 52.9715Z" fill="black"/>
<path d="M236.32 36.3529C239.07 48.0918 240.073 53.109 247.125 58.4698C257.723 66.5248 271.482 61.3014 272.224 49.1502C272.884 38.1536 268.183 20.834 255.729 17.535C253.09 16.7416 250.287 16.6673 247.61 17.3195C244.933 17.9717 242.478 19.3269 240.5 21.2451C238.521 23.1633 237.091 25.5749 236.356 28.2308C235.621 30.8867 235.609 33.6906 236.32 36.3529Z" fill="#FFB573"/>
<path d="M238.616 44.7928C242.932 42.6759 247.509 32.2704 241.365 27.3494C246.437 28.2979 252.252 26.9371 257.626 22.7858C264.637 17.2875 274.96 30.9371 271.565 22.9233C266.671 11.3769 251.922 8.49027 238.575 18.0848C225.228 27.6793 226.176 39.3495 238.616 44.7928Z" fill="#263238"/>
<path d="M234.96 42.4422C234.913 42.4375 234.869 42.4179 234.834 42.3863C234.799 42.3547 234.775 42.3127 234.766 42.2665C234.757 42.2204 234.763 42.1725 234.783 42.1299C234.803 42.0873 234.836 42.0522 234.877 42.0299C238.314 40.5453 252.898 37.4388 253.516 37.3151C253.544 37.3069 253.574 37.3048 253.603 37.3089C253.632 37.3129 253.659 37.3231 253.684 37.3387C253.709 37.3543 253.73 37.375 253.746 37.3993C253.762 37.4237 253.773 37.4512 253.778 37.48C253.786 37.5344 253.774 37.59 253.743 37.6358C253.713 37.6817 253.666 37.7143 253.613 37.7275C253.461 37.7275 238.492 40.9577 235.042 42.4285L234.96 42.4422Z" fill="white"/>
<path opacity="0.2" d="M252.65 37.5625C251.177 36.9146 249.507 36.8751 248.004 37.4526C249.531 37.7906 251.109 37.8279 252.65 37.5625Z" fill="black"/>
<path opacity="0.2" d="M252.527 38.6072C251.812 38.4563 251.072 38.463 250.36 38.6268C249.648 38.7906 248.98 39.1075 248.403 39.5556C249.829 39.5329 251.234 39.2097 252.527 38.6072Z" fill="black"/>
<path d="M255.207 37.3975C255.4 38.401 256.073 39.1432 256.719 39.0608C257.365 38.9783 257.723 38.1123 257.53 37.1089C257.338 36.1054 256.65 35.3769 256.018 35.4456C255.386 35.5144 255.015 36.4078 255.207 37.3975Z" fill="#263238"/>
<path d="M267.276 36.0917C267.468 37.0814 268.156 37.8237 268.788 37.755C269.42 37.6862 269.791 36.7928 269.599 35.8031C269.406 34.8134 268.733 34.0574 268.087 34.1398C267.441 34.2223 267.083 35.0883 267.276 36.0917Z" fill="#263238"/>
<path d="M267.771 34.2361L269.998 33.2464C269.998 33.2464 269.145 35.267 267.771 34.2361Z" fill="#263238"/>
<path d="M265.022 38.0024C266.211 40.2449 267.68 42.3278 269.393 44.2017C268.924 44.5952 268.374 44.8796 267.782 45.0341C267.19 45.1886 266.571 45.2095 265.97 45.0952L265.022 38.0024Z" fill="#ED893E"/>
<path d="M260.692 49.5351C261.245 49.5822 261.801 49.5822 262.355 49.5351C262.393 49.5302 262.429 49.5176 262.461 49.498C262.494 49.4784 262.522 49.4523 262.544 49.4213C262.566 49.3903 262.581 49.3551 262.589 49.3179C262.597 49.2807 262.596 49.2423 262.589 49.2052C262.575 49.1262 262.532 49.0553 262.468 49.0068C262.404 48.9583 262.325 48.9359 262.245 48.944C261.001 49.0947 259.739 48.967 258.55 48.57C257.361 48.1729 256.276 47.5166 255.372 46.6485C255.345 46.621 255.313 46.5993 255.278 46.5844C255.242 46.5695 255.204 46.5618 255.166 46.5618C255.127 46.5618 255.089 46.5695 255.054 46.5844C255.019 46.5993 254.987 46.621 254.96 46.6485C254.908 46.7045 254.879 46.7781 254.879 46.8547C254.879 46.9312 254.908 47.0049 254.96 47.0609C256.506 48.5554 258.544 49.4351 260.692 49.5351Z" fill="#263238"/>
<path d="M233.53 46.8684C234.192 47.8135 235.044 48.6107 236.031 49.2094C237.017 49.808 238.118 50.1951 239.262 50.3461C242.121 50.5797 242.74 47.2533 241.283 44.2979C239.977 41.645 236.912 38.3048 234.41 39.4594C231.908 40.6141 231.674 44.4354 233.53 46.8684Z" fill="#FFB573"/>
<path d="M251.345 29.8237C251.421 29.8237 251.497 29.8064 251.566 29.7731C251.635 29.7398 251.695 29.6913 251.743 29.6312C252.185 29.065 252.76 28.6169 253.417 28.3267C254.075 28.0365 254.793 27.9133 255.509 27.968C255.584 27.9796 255.66 27.9758 255.733 27.9568C255.806 27.9378 255.874 27.9041 255.933 27.8577C255.992 27.8113 256.041 27.7532 256.077 27.6871C256.113 27.6209 256.135 27.5481 256.142 27.4731C256.148 27.3153 256.097 27.1605 255.999 27.0369C255.9 26.9133 255.761 26.8291 255.606 26.7996C254.701 26.7195 253.791 26.8646 252.956 27.222C252.122 27.5793 251.388 28.1379 250.822 28.8477C250.756 28.9415 250.717 29.052 250.71 29.1667C250.702 29.2814 250.727 29.3959 250.782 29.4972C250.836 29.5986 250.917 29.6828 251.017 29.7405C251.116 29.7981 251.23 29.8269 251.345 29.8237Z" fill="#263238"/>
<path d="M269.503 29.3151C269.576 29.3233 269.651 29.3165 269.721 29.2953C269.792 29.274 269.858 29.2387 269.915 29.1914C269.97 29.1376 270.013 29.0735 270.043 29.0026C270.073 28.9318 270.088 28.8558 270.088 28.779C270.088 28.7022 270.073 28.6262 270.043 28.5553C270.013 28.4845 269.97 28.4204 269.915 28.3666C269.321 27.6207 268.563 27.0218 267.7 26.6165C266.837 26.2112 265.892 26.0105 264.939 26.0298C264.863 26.036 264.789 26.0583 264.723 26.0952C264.656 26.1321 264.598 26.1829 264.552 26.244C264.507 26.3051 264.475 26.3753 264.459 26.4498C264.442 26.5242 264.442 26.6013 264.458 26.6759C264.482 26.8313 264.562 26.9723 264.684 27.0714C264.806 27.1705 264.961 27.2206 265.118 27.212C265.874 27.2039 266.621 27.3694 267.303 27.696C267.984 28.0225 268.582 28.5012 269.049 29.0951C269.104 29.163 269.173 29.2179 269.251 29.2559C269.33 29.2939 269.416 29.3141 269.503 29.3151Z" fill="#263238"/>
<path d="M258.932 43.6244C256.032 43.6244 253.516 40.5453 253.241 36.6003C253.075 34.7423 253.503 32.8793 254.465 31.2807C254.844 30.6031 255.38 30.0261 256.029 29.598C256.677 29.17 257.418 28.9033 258.19 28.8202C261.228 28.614 263.894 31.7618 264.183 35.8443C264.472 39.9268 262.231 43.4045 259.221 43.6106L258.932 43.6244ZM258.479 29.3151H258.231C257.524 29.3962 256.846 29.6441 256.253 30.0384C255.661 30.4327 255.17 30.9621 254.822 31.5831C253.91 33.1037 253.505 34.8755 253.668 36.6415C253.929 40.4766 256.417 43.4319 259.166 43.2532C261.915 43.0746 263.991 39.7756 263.729 35.9405C263.468 32.1054 261.159 29.3151 258.479 29.3151Z" fill="white"/>
<path d="M271.784 42.8821C268.884 42.8821 266.355 39.8168 266.08 35.8718C265.92 34.0142 266.348 32.1533 267.303 30.5522C267.686 29.8743 268.225 29.2974 268.875 28.8694C269.525 28.4415 270.268 28.1749 271.042 28.0917C274.053 27.8855 276.747 31.0333 277.022 35.102C277.181 36.9596 276.754 38.8205 275.798 40.4216C275.417 41.101 274.879 41.6791 274.228 42.1073C273.578 42.5354 272.834 42.8012 272.059 42.8821H271.784ZM271.331 28.5178H271.07C270.362 28.5989 269.685 28.8468 269.092 29.2411C268.499 29.6354 268.009 30.1649 267.661 30.7859C266.76 32.3114 266.357 34.0792 266.506 35.8443C266.767 39.5557 269.104 42.456 271.784 42.456H272.032C272.74 42.3782 273.419 42.1316 274.012 41.737C274.606 41.3423 275.095 40.8111 275.441 40.188C276.346 38.6695 276.75 36.9044 276.595 35.1433C276.334 31.4182 273.998 28.5178 271.331 28.5178Z" fill="white"/>
<path d="M266.396 36.4354C266.36 36.4334 266.324 36.4223 266.293 36.4031C266.262 36.3839 266.236 36.3572 266.217 36.3254C265.695 35.5007 264.169 36.3941 264.156 36.3941C264.132 36.4091 264.106 36.4192 264.079 36.4238C264.052 36.4284 264.024 36.4275 263.997 36.4211C263.97 36.4147 263.944 36.4029 263.922 36.3864C263.9 36.37 263.881 36.3493 263.867 36.3254C263.832 36.2854 263.813 36.2341 263.813 36.1811C263.813 36.128 263.832 36.0768 263.867 36.0368C263.949 36.0368 265.764 34.9096 266.506 36.0368C266.523 36.0594 266.535 36.0855 266.541 36.1133C266.547 36.141 266.546 36.1697 266.54 36.1973C266.533 36.2248 266.521 36.2506 266.503 36.2728C266.485 36.2949 266.463 36.3129 266.437 36.3254C266.438 36.3456 266.435 36.3657 266.428 36.3846C266.421 36.4034 266.41 36.4207 266.396 36.4354Z" fill="white"/>
<path d="M255.743 35.5419L257.956 34.5659C257.956 34.5659 257.118 36.5866 255.743 35.5419Z" fill="#263238"/>
<path d="M274.644 469.949C421.836 469.949 541.16 462.982 541.16 454.388C541.16 445.795 421.836 438.828 274.644 438.828C127.451 438.828 8.12735 445.795 8.12735 454.388C8.12735 462.982 127.451 469.949 274.644 469.949Z" fill="#F5F5F5"/>
<path d="M247.331 450.787C247.47 451.211 247.503 451.662 247.429 452.102C247.354 452.541 247.174 452.956 246.903 453.311C246.633 453.665 246.28 453.949 245.876 454.136C245.471 454.324 245.027 454.411 244.582 454.388H53.1034C47.124 454.388 47.124 415.447 53.1034 415.447H244.637C245.08 415.425 245.523 415.512 245.926 415.699C246.329 415.886 246.681 416.168 246.951 416.521C247.221 416.873 247.402 417.286 247.478 417.724C247.553 418.162 247.522 418.611 247.386 419.034C244.994 426.457 244.994 443.378 247.331 450.787Z" fill="#D36681"/>
<path opacity="0.8" d="M247.056 419.997H130.863C126.286 419.997 126.286 449.839 130.863 449.839H247.056C245.09 442.347 245.09 427.474 247.056 419.997Z" fill="white"/>
<path opacity="0.2" d="M125.076 450.787C125.215 451.211 125.249 451.662 125.174 452.102C125.1 452.541 124.919 452.956 124.649 453.311C124.378 453.665 124.025 453.949 123.621 454.136C123.216 454.324 122.772 454.411 122.327 454.388H53.1034C47.124 454.388 47.124 415.447 53.1034 415.447H122.382C122.826 415.425 123.268 415.512 123.671 415.699C124.074 415.886 124.426 416.168 124.696 416.521C124.966 416.873 125.147 417.286 125.223 417.724C125.299 418.162 125.267 418.611 125.131 419.034C122.739 426.457 122.739 443.378 125.076 450.787Z" fill="black"/>
<path d="M82.6293 415.447H66.8079C60.8285 415.447 60.8285 454.388 66.8079 454.388H82.6293C76.7049 454.388 76.7049 415.447 82.6293 415.447Z" fill="#D36681"/>
<path d="M95.0967 415.447H88.8836C82.9042 415.447 82.9042 454.388 88.8836 454.388H95.0967C89.0761 454.388 89.0761 415.447 95.0967 415.447Z" fill="#D36681"/>
<path d="M41.9419 412.216C41.2821 413.811 42.9041 415.447 45.1034 415.447H217.31C224.334 415.447 224.334 380.436 217.31 380.436H45.0897C42.8903 380.436 41.2683 382.058 41.9281 383.667C44.6773 390.333 44.6773 405.55 41.9419 412.216Z" fill="#263238"/>
<path opacity="0.2" d="M41.9419 412.216C41.2821 413.811 42.9041 415.447 45.1034 415.447H129.544C136.568 415.447 136.568 380.436 129.544 380.436H45.0897C42.8903 380.436 41.2683 382.058 41.9281 383.667C44.6773 390.333 44.6773 405.55 41.9419 412.216Z" fill="black"/>
<path opacity="0.8" d="M42.2443 384.519H126.093C131.468 384.519 131.468 411.35 126.093 411.35H42.2443C44.5536 404.574 44.5536 391.254 42.2443 384.519Z" fill="white"/>
<path opacity="0.2" d="M153.942 388.244C153.42 386.691 154.932 385.179 157.021 385.179H205.228C210.341 385.179 210.341 410.691 205.228 410.691H157.021C154.932 410.691 153.42 409.192 153.942 407.639C155.592 401.279 155.592 394.604 153.942 388.244Z" fill="white"/>
<path d="M502.452 396.588C502.604 397.053 502.647 397.546 502.579 398.031C502.511 398.515 502.333 398.977 502.058 399.382C501.783 399.787 501.419 400.123 500.994 400.366C500.569 400.608 500.095 400.75 499.606 400.78H297.269C290.946 400.78 290.946 355.419 297.269 355.419H499.606C500.087 355.452 500.553 355.593 500.972 355.831C501.39 356.07 501.749 356.399 502.023 356.795C502.296 357.192 502.477 357.644 502.551 358.12C502.625 358.596 502.591 359.082 502.452 359.543C499.991 368.271 499.991 387.969 502.452 396.588Z" fill="#D36681"/>
<path opacity="0.5" d="M502.452 396.588C502.604 397.053 502.647 397.546 502.579 398.031C502.511 398.515 502.333 398.977 502.058 399.382C501.783 399.787 501.419 400.123 500.994 400.366C500.569 400.608 500.095 400.75 499.606 400.78H297.269C290.946 400.78 290.946 355.419 297.269 355.419H499.606C500.087 355.452 500.553 355.593 500.972 355.831C501.39 356.07 501.749 356.399 502.023 356.795C502.296 357.192 502.477 357.644 502.551 358.12C502.625 358.596 502.591 359.082 502.452 359.543C499.991 368.271 499.991 387.969 502.452 396.588Z" fill="white"/>
<path opacity="0.8" d="M502.177 360.752H379.414C374.575 360.752 374.575 395.474 379.414 395.474H502.177C500.074 386.773 500.074 369.467 502.177 360.752Z" fill="white"/>
<path opacity="0.6" d="M373.297 396.588C373.449 397.053 373.492 397.546 373.424 398.031C373.356 398.515 373.178 398.977 372.903 399.382C372.628 399.787 372.264 400.123 371.839 400.366C371.414 400.608 370.94 400.75 370.451 400.78H297.269C290.946 400.78 290.946 355.419 297.269 355.419H370.451C370.932 355.452 371.398 355.593 371.817 355.831C372.235 356.07 372.594 356.399 372.868 356.795C373.141 357.192 373.322 357.644 373.396 358.12C373.47 358.596 373.436 359.082 373.297 359.543C370.864 368.271 370.864 387.969 373.297 396.588Z" fill="#D36681"/>
<path opacity="0.5" d="M343.606 358.814C343.749 358.459 343.807 358.075 343.775 357.694C343.743 357.312 343.622 356.943 343.421 356.617C343.221 356.291 342.947 356.016 342.62 355.815C342.294 355.614 341.926 355.493 341.544 355.46H313.64C307.317 355.46 307.317 400.821 313.64 400.821H341.544C341.926 400.787 342.295 400.663 342.621 400.461C342.947 400.259 343.221 399.983 343.421 399.655C343.622 399.328 343.743 398.959 343.775 398.576C343.807 398.194 343.749 397.81 343.606 397.454C340.788 389.027 340.788 367.213 343.606 358.814Z" fill="white"/>
<path d="M487.936 449.399C488.099 450.002 488.116 450.635 487.985 451.245C487.855 451.856 487.581 452.427 487.186 452.91C486.791 453.394 486.286 453.777 485.714 454.026C485.142 454.276 484.518 454.386 483.895 454.347H273.668C264.692 454.347 264.678 400.739 273.668 400.739H483.977C484.601 400.7 485.224 400.81 485.797 401.06C486.369 401.309 486.873 401.692 487.268 402.176C487.663 402.659 487.937 403.23 488.068 403.841C488.198 404.451 488.182 405.084 488.019 405.687C484.431 415.9 484.445 439.199 487.936 449.399Z" fill="#D36681"/>
<path opacity="0.2" d="M487.936 449.399C488.099 450.002 488.116 450.635 487.985 451.245C487.855 451.856 487.581 452.427 487.186 452.91C486.791 453.394 486.286 453.777 485.714 454.026C485.142 454.276 484.518 454.386 483.895 454.347H273.668C264.692 454.347 264.678 400.739 273.668 400.739H483.977C484.601 400.7 485.224 400.81 485.797 401.06C486.369 401.309 486.873 401.692 487.268 402.176C487.663 402.659 487.937 403.23 488.068 403.841C488.198 404.451 488.182 405.084 488.019 405.687C484.431 415.9 484.445 439.199 487.936 449.399Z" fill="white"/>
<path opacity="0.8" d="M487.524 407.007H360.417C353.544 407.007 353.544 448.079 360.417 448.079H487.538C484.596 437.784 484.596 417.316 487.524 407.007Z" fill="white"/>
<path opacity="0.6" d="M351.73 449.426C351.895 450.028 351.915 450.661 351.786 451.272C351.658 451.883 351.385 452.454 350.991 452.938C350.597 453.422 350.093 453.805 349.521 454.055C348.949 454.305 348.325 454.415 347.702 454.375H273.668C264.692 454.375 264.678 400.766 273.668 400.766H347.702C348.325 400.727 348.949 400.837 349.521 401.087C350.094 401.337 350.598 401.72 350.993 402.203C351.388 402.687 351.662 403.258 351.793 403.868C351.923 404.479 351.906 405.112 351.743 405.715C348.238 415.928 348.238 439.213 351.73 449.426Z" fill="#D36681"/>
<path opacity="0.5" d="M307.386 402.636C307.501 402.439 307.559 402.215 307.554 401.988C307.55 401.761 307.483 401.539 307.361 401.347C307.239 401.155 307.066 401.001 306.862 400.901C306.658 400.801 306.43 400.759 306.204 400.78H293.626C284.664 400.78 284.664 454.388 293.626 454.388H306.259C306.485 454.409 306.713 454.367 306.917 454.267C307.121 454.167 307.294 454.013 307.416 453.821C307.538 453.629 307.605 453.408 307.609 453.181C307.614 452.953 307.556 452.729 307.441 452.533C301.984 444.244 301.984 410.911 307.386 402.636Z" fill="white"/>
<path opacity="0.5" d="M327.015 402.636C327.128 402.438 327.185 402.214 327.18 401.986C327.175 401.759 327.109 401.537 326.987 401.345C326.865 401.153 326.694 400.997 326.49 400.895C326.287 400.793 326.06 400.749 325.833 400.766H313.255C304.293 400.766 304.293 454.375 313.255 454.375H325.833C326.058 454.393 326.284 454.349 326.486 454.248C326.688 454.147 326.859 453.992 326.979 453.801C327.099 453.609 327.165 453.389 327.169 453.163C327.173 452.937 327.115 452.714 327.001 452.519C321.613 444.244 321.613 410.897 327.015 402.636Z" fill="white"/>
<path d="M485.874 326.938C485.631 323.12 484.733 319.373 483.221 315.859L484.459 315.254C486.03 318.917 486.96 322.823 487.208 326.8L485.874 326.938Z" fill="#D36681"/>
<path d="M477.256 309.907H443.111V311.282H477.256V309.907Z" fill="#D36681"/>
<path d="M254.726 351.708C254.025 353.577 255.743 355.46 258.066 355.46H477.256C484.665 355.46 484.665 314.718 477.256 314.718H258.066C255.743 314.718 254.025 316.615 254.726 318.484C257.613 326.223 257.613 343.941 254.726 351.708Z" fill="#D36681"/>
<path opacity="0.2" d="M254.726 351.708C254.025 353.577 255.743 355.46 258.066 355.46H384.527C391.95 355.46 391.95 314.718 384.527 314.718H258.066C255.743 314.718 254.025 316.615 254.726 318.484C257.613 326.223 257.613 343.941 254.726 351.708Z" fill="black"/>
<path opacity="0.8" d="M255.056 319.488H380.857C386.548 319.488 386.548 350.704 380.857 350.704H255.056C257.489 342.869 257.489 327.323 255.056 319.488Z" fill="white"/>
<path opacity="0.2" d="M410.3 323.804C409.751 322.003 411.345 320.257 413.544 320.257H464.486C469.888 320.257 469.888 349.935 464.486 349.935H413.544C411.345 349.935 409.751 348.189 410.3 346.374C412.101 340.67 412.101 329.522 410.3 323.804Z" fill="white"/>
</svg>
