<svg width="207" height="73" viewBox="0 0 207 73" fill="none" xmlns="http://www.w3.org/2000/svg">
<g clip-path="url(#clip0)" filter="url(#filter0_d)">
<path d="M16.9348 9.49323H46.1176V12.3229H16.9348V9.49323Z" fill="#F8F8F8"/>
<path d="M47.7389 14.6049H16.7078C16.2941 14.5983 15.8858 14.4974 15.5077 14.3083C15.1295 14.1192 14.7892 13.8458 14.5074 13.5046C14.2257 13.1634 14.0081 12.7615 13.8681 12.3231C13.728 11.8847 13.6682 11.4188 13.6923 10.9537C13.6903 10.028 14.0006 9.13607 14.5604 8.45823C15.1202 7.78038 15.8878 7.36728 16.7078 7.30248H47.7389C48.1689 7.30248 48.5813 7.11013 48.8853 6.76776C49.1894 6.42539 49.3602 5.96105 49.3602 5.47687C49.3602 4.99268 49.1894 4.52832 48.8853 4.18595C48.5813 3.84358 48.1689 3.65125 47.7389 3.65125H16.7078C15.0275 3.71751 13.4358 4.51602 12.2682 5.87839C11.1007 7.24075 10.4487 9.06046 10.4498 10.9537C10.4341 11.2516 10.4341 11.5503 10.4498 11.8483C10.4341 11.9938 10.4341 12.1409 10.4498 12.2864V54.7685C10.4487 56.6618 11.1007 58.4815 12.2682 59.8438C13.4358 61.2062 15.0275 62.0047 16.7078 62.071H47.7389C48.1689 62.071 48.5813 61.8786 48.8853 61.5363C49.1894 61.1939 49.3602 60.7295 49.3602 60.2454V16.887V16.7226V16.5583C49.3611 16.0617 49.194 15.5832 48.8928 15.2204C48.5917 14.8575 48.179 14.6374 47.7389 14.6049Z" fill="#F8F8F8"/>
<path d="M57.2 9.45C57.2 8.98333 57.3 8.58333 57.5 8.25C57.7 7.9 57.9917 7.725 58.375 7.725H69.175C69.5583 7.725 69.85 7.9 70.05 8.25C70.25 8.58333 70.35 8.98333 70.35 9.45C70.35 9.95 70.2417 10.375 70.025 10.725C69.825 11.0583 69.5417 11.225 69.175 11.225H65.725V24.8C65.725 25.1833 65.5333 25.4833 65.15 25.7C64.7667 25.9 64.3083 26 63.775 26C63.2417 26 62.7833 25.9 62.4 25.7C62.0167 25.4833 61.825 25.1833 61.825 24.8V11.225H58.375C58.0083 11.225 57.7167 11.0583 57.5 10.725C57.3 10.375 57.2 9.95 57.2 9.45ZM70.6498 24.8V8.925C70.6498 8.54167 70.8165 8.25 71.1498 8.05C71.4831 7.83333 71.8831 7.725 72.3498 7.725H81.2498C81.6331 7.725 81.9248 7.89167 82.1248 8.225C82.3248 8.55833 82.4248 8.95 82.4248 9.4C82.4248 9.88333 82.3165 10.2917 82.0998 10.625C81.8998 10.9583 81.6165 11.125 81.2498 11.125H74.5498V15.35H78.2998C78.6665 15.35 78.9498 15.5 79.1498 15.8C79.3665 16.1 79.4748 16.4583 79.4748 16.875C79.4748 17.2583 79.3748 17.6 79.1748 17.9C78.9748 18.2 78.6831 18.35 78.2998 18.35H74.5498V22.6H81.2498C81.6165 22.6 81.8998 22.7667 82.0998 23.1C82.3165 23.4333 82.4248 23.8417 82.4248 24.325C82.4248 24.775 82.3248 25.1667 82.1248 25.5C81.9248 25.8333 81.6331 26 81.2498 26H72.3498C71.8831 26 71.4831 25.9 71.1498 25.7C70.8165 25.4833 70.6498 25.1833 70.6498 24.8ZM81.6264 24.4C81.6264 24.35 81.643 24.2583 81.6764 24.125L86.3264 8.875C86.4597 8.45833 86.7597 8.14167 87.2264 7.925C87.7097 7.69167 88.2597 7.575 88.8764 7.575C89.493 7.575 90.0347 7.69167 90.5014 7.925C90.9847 8.14167 91.293 8.45833 91.4264 8.875L96.1014 24.125C96.1347 24.2583 96.1514 24.35 96.1514 24.4C96.1514 24.8333 95.8764 25.2083 95.3264 25.525C94.793 25.8417 94.2347 26 93.6514 26C92.9347 26 92.5097 25.7583 92.3764 25.275L91.5264 22.15H86.2514L85.4014 25.275C85.268 25.7583 84.843 26 84.1264 26C83.543 26 82.9764 25.8417 82.4264 25.525C81.893 25.2083 81.6264 24.8333 81.6264 24.4ZM87.0514 19.15H90.7014L88.8764 12.45L87.0514 19.15ZM96.148 20.25V13.625C96.148 11.5917 96.698 10.1 97.798 9.15C98.9147 8.2 100.365 7.725 102.148 7.725C103.981 7.725 105.481 8.16667 106.648 9.05C107.831 9.93333 108.423 11.15 108.423 12.7C108.423 13.4167 108.273 13.9083 107.973 14.175C107.673 14.425 107.173 14.55 106.473 14.55C105.223 14.55 104.573 14.1583 104.523 13.375C104.473 11.875 103.731 11.125 102.298 11.125C100.798 11.125 100.048 11.9583 100.048 13.625V20.25C100.048 21.9167 100.806 22.75 102.323 22.75C102.79 22.75 103.173 22.675 103.473 22.525C103.79 22.375 104.015 22.15 104.148 21.85C104.281 21.5333 104.365 21.275 104.398 21.075C104.448 20.875 104.49 20.6 104.523 20.25C104.59 19.4667 105.231 19.075 106.448 19.075C107.165 19.075 107.673 19.2083 107.973 19.475C108.273 19.725 108.423 20.2083 108.423 20.925C108.423 22.5417 107.831 23.8167 106.648 24.75C105.481 25.6833 103.981 26.15 102.148 26.15C100.365 26.15 98.9147 25.675 97.798 24.725C96.698 23.775 96.148 22.2833 96.148 20.25ZM109.136 24.8V8.9C109.136 8.51667 109.328 8.225 109.711 8.025C110.094 7.825 110.553 7.725 111.086 7.725C111.619 7.725 112.078 7.825 112.461 8.025C112.844 8.225 113.036 8.51667 113.036 8.9V15.025H118.011V8.9C118.011 8.51667 118.203 8.225 118.586 8.025C118.969 7.825 119.428 7.725 119.961 7.725C120.494 7.725 120.953 7.825 121.336 8.025C121.719 8.225 121.911 8.51667 121.911 8.9V24.8C121.911 25.1833 121.719 25.4833 121.336 25.7C120.953 25.9 120.494 26 119.961 26C119.428 26 118.969 25.9 118.586 25.7C118.203 25.4833 118.011 25.1833 118.011 24.8V18.025H113.036V24.8C113.036 25.1833 112.844 25.4833 112.461 25.7C112.078 25.9 111.619 26 111.086 26C110.553 26 110.094 25.9 109.711 25.7C109.328 25.4833 109.136 25.1833 109.136 24.8ZM123.365 24.8V8.925C123.365 8.54167 123.531 8.25 123.865 8.05C124.198 7.83333 124.598 7.725 125.065 7.725H133.965C134.348 7.725 134.64 7.89167 134.84 8.225C135.04 8.55833 135.14 8.95 135.14 9.4C135.14 9.88333 135.031 10.2917 134.815 10.625C134.615 10.9583 134.331 11.125 133.965 11.125H127.265V15.35H131.015C131.381 15.35 131.665 15.5 131.865 15.8C132.081 16.1 132.19 16.4583 132.19 16.875C132.19 17.2583 132.09 17.6 131.89 17.9C131.69 18.2 131.398 18.35 131.015 18.35H127.265V22.6H133.965C134.331 22.6 134.615 22.7667 134.815 23.1C135.031 23.4333 135.14 23.8417 135.14 24.325C135.14 24.775 135.04 25.1667 134.84 25.5C134.64 25.8333 134.348 26 133.965 26H125.065C124.598 26 124.198 25.9 123.865 25.7C123.531 25.4833 123.365 25.1833 123.365 24.8ZM135.591 24.8V8.9C135.591 8.58333 135.7 8.30833 135.916 8.075C136.15 7.84167 136.441 7.725 136.791 7.725H141.966C146.066 7.725 148.116 9.50833 148.116 13.075C148.116 15.675 147.108 17.3667 145.091 18.15L148.141 23.675C148.225 23.7917 148.266 23.9417 148.266 24.125C148.266 24.6083 148 25.0667 147.466 25.5C146.95 25.9333 146.4 26.15 145.816 26.15C145.233 26.15 144.816 25.9083 144.566 25.425L141.141 18.775H139.491V24.8C139.491 25.1833 139.3 25.4833 138.916 25.7C138.533 25.9 138.075 26 137.541 26C137.008 26 136.55 25.9 136.166 25.7C135.783 25.4833 135.591 25.1833 135.591 24.8ZM139.491 15.775H141.966C142.7 15.775 143.258 15.6 143.641 15.25C144.025 14.8833 144.216 14.2833 144.216 13.45C144.216 12.6167 144.025 12.025 143.641 11.675C143.258 11.3083 142.7 11.125 141.966 11.125H139.491V15.775ZM148.066 23C148.066 22.5333 148.232 22.0667 148.566 21.6C148.916 21.1333 149.316 20.9 149.766 20.9C150.016 20.9 150.291 21 150.591 21.2C150.907 21.3833 151.191 21.5917 151.441 21.825C151.707 22.0583 152.074 22.275 152.541 22.475C153.007 22.6583 153.499 22.75 154.016 22.75C154.666 22.75 155.232 22.6167 155.716 22.35C156.199 22.0667 156.441 21.65 156.441 21.1C156.441 20.55 156.166 20.0667 155.616 19.65C155.082 19.2333 154.424 18.8583 153.641 18.525C152.874 18.175 152.099 17.7917 151.316 17.375C150.532 16.9417 149.866 16.3333 149.316 15.55C148.782 14.7667 148.516 13.8333 148.516 12.75C148.516 11.0167 149.141 9.725 150.391 8.875C151.641 8.00833 153.149 7.575 154.916 7.575C155.349 7.575 155.799 7.6 156.266 7.65C156.749 7.7 157.282 7.8 157.866 7.95C158.466 8.08333 158.949 8.30833 159.316 8.625C159.699 8.94167 159.891 9.325 159.891 9.775C159.891 10.2083 159.749 10.6583 159.466 11.125C159.199 11.5917 158.824 11.825 158.341 11.825C158.141 11.825 157.716 11.6667 157.066 11.35C156.416 11.0333 155.699 10.875 154.916 10.875C154.082 10.875 153.457 11.025 153.041 11.325C152.624 11.6083 152.416 11.9583 152.416 12.375C152.416 12.7583 152.607 13.1083 152.991 13.425C153.391 13.7417 153.882 14.0167 154.466 14.25C155.049 14.4667 155.682 14.7583 156.366 15.125C157.066 15.475 157.707 15.8667 158.291 16.3C158.874 16.7167 159.357 17.3083 159.741 18.075C160.141 18.8417 160.341 19.7167 160.341 20.7C160.341 22.45 159.766 23.8167 158.616 24.8C157.466 25.7667 155.957 26.25 154.091 26.25C152.474 26.25 151.066 25.9167 149.866 25.25C148.666 24.5833 148.066 23.8333 148.066 23ZM160.246 9.4C160.246 8.86667 160.429 8.41667 160.796 8.05C161.179 7.66667 161.629 7.475 162.146 7.475C162.663 7.475 163.113 7.66667 163.496 8.05C163.879 8.41667 164.071 8.85833 164.071 9.375C164.071 9.64167 163.554 10.975 162.521 13.375C162.388 13.675 162.138 13.825 161.771 13.825C161.471 13.825 161.188 13.7333 160.921 13.55C160.654 13.3667 160.521 13.1333 160.521 12.85C160.521 12.7167 160.554 12.5833 160.621 12.45L161.246 11.1C160.579 10.7167 160.246 10.15 160.246 9.4ZM58.35 56.8V40.9C58.35 40.5167 58.5417 40.225 58.925 40.025C59.3083 39.825 59.7667 39.725 60.3 39.725C60.8333 39.725 61.2917 39.825 61.675 40.025C62.0583 40.225 62.25 40.5167 62.25 40.9V54.6H67.95C68.3 54.6 68.575 54.7667 68.775 55.1C68.975 55.4333 69.075 55.8333 69.075 56.3C69.075 56.7667 68.975 57.1667 68.775 57.5C68.575 57.8333 68.3 58 67.95 58H60.05C59.5833 58 59.1833 57.9 58.85 57.7C58.5167 57.4833 58.35 57.1833 58.35 56.8ZM68.9361 52.25V45.625C68.9361 43.5917 69.4945 42.1 70.6111 41.15C71.7278 40.2 73.2111 39.725 75.0611 39.725C76.9278 39.725 78.4195 40.2 79.5361 41.15C80.6528 42.1 81.2111 43.5917 81.2111 45.625V52.25C81.2111 54.2833 80.6528 55.775 79.5361 56.725C78.4195 57.675 76.9278 58.15 75.0611 58.15C73.2111 58.15 71.7278 57.675 70.6111 56.725C69.4945 55.775 68.9361 54.2833 68.9361 52.25ZM72.8361 52.25C72.8361 53.9167 73.5778 54.75 75.0611 54.75C76.5611 54.75 77.3111 53.9167 77.3111 52.25V45.625C77.3111 43.9583 76.5611 43.125 75.0611 43.125C73.5778 43.125 72.8361 43.9583 72.8361 45.625V52.25ZM82.3863 52.25V40.9C82.3863 40.5167 82.5697 40.225 82.9363 40.025C83.3197 39.825 83.7863 39.725 84.3363 39.725C84.8697 39.725 85.328 39.825 85.7113 40.025C86.0947 40.225 86.2863 40.5167 86.2863 40.9V52.25C86.2863 53.9167 87.0863 54.75 88.6863 54.75C90.2863 54.75 91.0863 53.9167 91.0863 52.25V40.9C91.0863 40.5167 91.2697 40.225 91.6363 40.025C92.0197 39.825 92.4863 39.725 93.0363 39.725C93.5697 39.725 94.028 39.825 94.4113 40.025C94.7947 40.225 94.9863 40.5167 94.9863 40.9V52.25C94.9863 54.2833 94.4113 55.775 93.2613 56.725C92.1113 57.675 90.5863 58.15 88.6863 58.15C86.7697 58.15 85.2363 57.675 84.0863 56.725C82.953 55.775 82.3863 54.2833 82.3863 52.25ZM96.3725 56.8V40.925C96.3725 40.5417 96.5641 40.25 96.9475 40.05C97.3308 39.8333 97.7891 39.725 98.3225 39.725C99.0725 39.725 99.6225 39.8333 99.9725 40.05C100.339 40.2667 100.747 40.8083 101.197 41.675L105.247 49.4V40.9C105.247 40.5167 105.439 40.225 105.822 40.025C106.206 39.825 106.664 39.725 107.197 39.725C107.731 39.725 108.189 39.825 108.572 40.025C108.956 40.225 109.147 40.5167 109.147 40.9V56.8C109.147 57.1833 108.956 57.4833 108.572 57.7C108.189 57.9 107.731 58 107.197 58C106.131 58 105.406 57.65 105.022 56.95L100.272 48.3V56.8C100.272 57.1833 100.081 57.4833 99.6975 57.7C99.3141 57.9 98.8558 58 98.3225 58C97.7891 58 97.3308 57.9 96.9475 57.7C96.5641 57.4833 96.3725 57.1833 96.3725 56.8ZM110.401 52.25V45.625C110.401 43.5917 110.951 42.1 112.051 41.15C113.168 40.2 114.618 39.725 116.401 39.725C118.234 39.725 119.734 40.1667 120.901 41.05C122.084 41.9333 122.676 43.15 122.676 44.7C122.676 45.4167 122.526 45.9083 122.226 46.175C121.926 46.425 121.426 46.55 120.726 46.55C119.443 46.55 118.793 46.1583 118.776 45.375C118.776 45.1417 118.768 44.95 118.751 44.8C118.734 44.6333 118.684 44.4333 118.601 44.2C118.518 43.9667 118.401 43.7833 118.251 43.65C118.101 43.5167 117.876 43.4 117.576 43.3C117.293 43.1833 116.951 43.125 116.551 43.125C115.051 43.125 114.301 43.9583 114.301 45.625V52.25C114.301 53.9167 115.043 54.75 116.526 54.75C118.026 54.75 118.776 53.9167 118.776 52.25V51.4H117.301C116.934 51.4 116.643 51.2583 116.426 50.975C116.226 50.675 116.126 50.3167 116.126 49.9C116.126 49.5167 116.234 49.175 116.451 48.875C116.668 48.5583 116.951 48.4 117.301 48.4H121.501C121.868 48.4 122.151 48.525 122.351 48.775C122.568 49.0083 122.676 49.2917 122.676 49.625V52.25C122.676 54.2833 122.118 55.775 121.001 56.725C119.884 57.675 118.393 58.15 116.526 58.15C114.676 58.15 113.193 57.675 112.076 56.725C110.959 55.775 110.401 54.2833 110.401 52.25ZM123.682 56.8V40.925C123.682 40.5417 123.849 40.25 124.182 40.05C124.515 39.8333 124.915 39.725 125.382 39.725H134.282C134.665 39.725 134.957 39.8917 135.157 40.225C135.357 40.5583 135.457 40.95 135.457 41.4C135.457 41.8833 135.349 42.2917 135.132 42.625C134.932 42.9583 134.649 43.125 134.282 43.125H127.582V47.35H131.332C131.699 47.35 131.982 47.5 132.182 47.8C132.399 48.1 132.507 48.4583 132.507 48.875C132.507 49.2583 132.407 49.6 132.207 49.9C132.007 50.2 131.715 50.35 131.332 50.35H127.582V54.6H134.282C134.649 54.6 134.932 54.7667 135.132 55.1C135.349 55.4333 135.457 55.8417 135.457 56.325C135.457 56.775 135.357 57.1667 135.157 57.5C134.957 57.8333 134.665 58 134.282 58H125.382C124.915 58 124.515 57.9 124.182 57.7C123.849 57.4833 123.682 57.1833 123.682 56.8Z" fill="#F8F8F8"/>
</g>
<defs>
<filter id="filter0_d" x="-2" y="-2" width="219" height="78" filterUnits="userSpaceOnUse" color-interpolation-filters="sRGB">
<feFlood flood-opacity="0" result="BackgroundImageFix"/>
<feColorMatrix in="SourceAlpha" type="matrix" values="0 0 0 0 0 0 0 0 0 0 0 0 0 0 0 0 0 0 127 0"/>
<feOffset dx="4" dy="4"/>
<feGaussianBlur stdDeviation="3"/>
<feColorMatrix type="matrix" values="0 0 0 0 0 0 0 0 0 0 0 0 0 0 0 0 0 0 0.3 0"/>
<feBlend mode="normal" in2="BackgroundImageFix" result="effect1_dropShadow"/>
<feBlend mode="normal" in="SourceGraphic" in2="effect1_dropShadow" result="shape"/>
</filter>
<clipPath id="clip0">
<rect width="207" height="66" fill="white"/>
</clipPath>
</defs>
</svg>
