<svg width="440" height="357" viewBox="0 0 440 357" fill="none" xmlns="http://www.w3.org/2000/svg">
<path d="M437.167 213.543C449.167 268.251 415.653 303.596 369.247 301.955C346.996 301.17 320.427 276.706 298.58 271.259C270.037 264.124 245.347 273.365 218.077 274.72C150.228 278.074 151.12 250.387 105.403 214.685C73.2926 189.591 21.4752 192.338 4.31381 148.394C-16.7128 94.6739 43.5603 68.7117 89.348 76.6799C141.962 85.8137 156.531 20.3076 236.891 27.5623C315.86 34.698 420.268 131.102 437.167 213.543Z" fill="#D36681"/>
<path opacity="0.9" d="M437.167 213.543C449.167 268.251 415.653 303.596 369.247 301.955C346.996 301.17 320.427 276.706 298.58 271.259C270.037 264.124 245.347 273.365 218.077 274.72C150.228 278.074 151.12 250.387 105.403 214.685C73.2926 189.591 21.4752 192.338 4.31381 148.394C-16.7128 94.6739 43.5603 68.7117 89.348 76.6799C141.962 85.8137 156.531 20.3076 236.891 27.5623C315.86 34.698 420.268 131.102 437.167 213.543Z" fill="#F9F871"/>
<path d="M226.864 356.914C333.882 356.914 420.638 351.849 420.638 345.601C420.638 339.353 333.882 334.287 226.864 334.287C119.845 334.287 33.0898 339.353 33.0898 345.601C33.0898 351.849 119.845 356.914 226.864 356.914Z" fill="#949494"/>
<path d="M326.055 92.9418L316.141 88.9442C316.141 88.9442 303.059 112.8 299.311 114.009C294.214 115.648 283.66 120.205 277.404 121.005C276.554 122.004 275.165 125.113 275.295 126.242C283.7 129.05 302.169 125.322 306.127 122.384C315.131 115.718 326.055 92.9418 326.055 92.9418Z" fill="#FFCBBE"/>
<path d="M329.103 87.515C330.952 94.3409 320.938 108.073 320.938 108.073L307.815 100.717C307.815 100.717 310.274 95.0705 313.272 89.3239C318.079 80.0395 326.994 79.7297 329.103 87.515Z" fill="#D36681"/>
<path opacity="0.2" d="M329.103 87.515C330.952 94.3409 320.938 108.073 320.938 108.073L307.815 100.717C307.815 100.717 310.274 95.0705 313.272 89.3239C318.079 80.0395 326.994 79.7297 329.103 87.515Z" fill="black"/>
<path opacity="0.2" d="M313.022 103.655L318.189 106.554L319.099 90.6931C316.091 93.0017 313.972 99.9576 313.022 103.655Z" fill="black"/>
<path d="M320.468 82.3781C320.468 82.3781 310.254 105.105 316.21 147.419H356.456C357.096 141.243 354.977 111.101 362.643 81.9983C358.228 81.1355 353.761 80.5646 349.271 80.2893C343.576 79.9593 337.866 79.9593 332.171 80.2893C328.223 80.6902 324.311 81.3885 320.468 82.3781Z" fill="#D36681"/>
<path opacity="0.2" d="M320.468 82.3781C320.468 82.3781 310.254 105.105 316.21 147.419H356.456C357.096 141.243 354.977 111.101 362.643 81.9983C358.228 81.1355 353.761 80.5646 349.271 80.2893C343.576 79.9593 337.866 79.9593 332.171 80.2893C328.223 80.6902 324.311 81.3885 320.468 82.3781Z" fill="black"/>
<g style="mix-blend-mode:multiply">
<path d="M311.133 346.5C311.074 347.58 326.334 348.449 345.213 348.449C364.092 348.449 379.463 347.58 379.523 346.5C379.583 345.421 364.332 344.561 345.443 344.561C326.554 344.561 311.203 345.431 311.133 346.5Z" fill="#E8ECF1"/>
</g>
<path d="M337.998 318.14L330.86 320.903L337.009 336.787L344.147 334.024L337.998 318.14Z" fill="#FFCBBE"/>
<path d="M369.828 338.815H362.303L359.544 321.395H367.07L369.828 338.815Z" fill="#FFCBBE"/>
<path d="M361.783 337.945H370.238C370.385 337.946 370.527 337.998 370.638 338.093C370.75 338.188 370.824 338.32 370.848 338.465L371.937 345.151C371.96 345.319 371.947 345.489 371.898 345.651C371.849 345.813 371.766 345.963 371.654 346.09C371.542 346.217 371.404 346.319 371.249 346.388C371.095 346.457 370.927 346.492 370.758 346.49C367.81 346.44 366.391 346.26 362.673 346.26C360.384 346.26 355.677 346.5 352.499 346.5C349.321 346.5 349.111 343.382 350.42 343.092C356.297 341.823 358.575 340.094 360.534 338.415C360.879 338.112 361.324 337.945 361.783 337.945Z" fill="#263238"/>
<path d="M336.798 335.367L344.793 333.028C344.936 332.988 345.088 332.998 345.225 333.056C345.361 333.114 345.473 333.217 345.543 333.348L348.541 339.344C348.611 339.497 348.646 339.662 348.645 339.829C348.645 339.997 348.607 340.162 348.536 340.313C348.464 340.464 348.361 340.598 348.232 340.705C348.104 340.813 347.953 340.89 347.792 340.933C344.883 341.733 342.935 342.223 339.297 343.282C336.788 344.012 334.23 345.201 331.751 345.99C330.032 346.54 325.995 346.56 323.906 346.56C320.818 346.56 320.128 343.302 321.457 343.152C324.805 342.782 325.255 342.952 327.104 342.023C330.129 340.7 332.871 338.807 335.179 336.446C335.614 335.95 336.173 335.578 336.798 335.367Z" fill="#263238"/>
<path d="M278.663 120.965L270.388 117.497L266.98 126.672C270.372 127.188 273.822 127.188 277.214 126.672L278.663 120.965Z" fill="#D36681"/>
<path d="M264.232 117.257L264.012 123.354L266.98 126.652L270.388 117.477L264.232 117.257Z" fill="#D36681"/>
<path d="M338.977 319.489L331.817 322.253L334.988 330.467L342.148 327.703L338.977 319.489Z" fill="#CF6F64"/>
<path d="M367.07 321.395H359.544L360.974 330.38H368.499L367.07 321.395Z" fill="#CF6F64"/>
<path opacity="0.2" d="M314.931 135.976C315.081 137.785 315.251 139.634 315.471 141.533L345.393 131.819C350.066 130.434 354.127 127.497 356.906 123.494C357.026 120.825 357.176 118.017 357.406 115.089C357.506 113.669 357.626 112.21 357.756 110.731C357.885 109.252 358.065 107.613 358.255 106.034L314.931 135.976Z" fill="black"/>
<path d="M324.705 103.196L323.706 103.076C324.296 98.0787 328.023 94.1411 331.951 94.241V95.2404C328.513 95.1704 325.235 98.7183 324.705 103.196Z" fill="white"/>
<path d="M330.032 112.42H329.862V111.421C333.3 111.551 336.528 107.963 337.058 103.495L338.057 103.615C337.528 108.502 333.92 112.42 330.032 112.42Z" fill="white"/>
<path d="M348.711 61.0309C347.302 66.5376 345.643 76.6215 349.271 80.2894C349.271 80.2894 346.732 85.876 336.508 85.876C327.164 85.876 332.171 80.2894 332.171 80.2894C338.387 78.8302 338.497 74.2929 337.678 69.9955L348.711 61.0309Z" fill="#FFCBBE"/>
<path d="M344.214 64.6887L337.688 69.9955C337.89 70.983 338.007 71.9861 338.037 72.9937C339.946 74.8925 343.774 70.0854 344.164 67.6269C344.362 66.659 344.379 65.6627 344.214 64.6887Z" fill="#CF6F64"/>
<path d="M326.464 60.9609C326.918 61.748 327.53 62.4329 328.261 62.9729C328.991 63.5128 329.826 63.8962 330.712 64.099C333.11 64.6287 334.309 62.42 333.65 60.2014C333.06 58.2026 331.091 55.5142 328.653 55.9739C328.13 56.0815 327.642 56.3127 327.227 56.6481C326.812 56.9835 326.484 57.4134 326.27 57.9018C326.055 58.3901 325.961 58.9227 325.995 59.455C326.029 59.9872 326.19 60.5036 326.464 60.9609Z" fill="#FFCBBE"/>
<path d="M330.432 43.3414C326.694 45.0504 325.375 59.9015 330.072 62.1002C334.769 64.2989 337.508 40.0934 330.432 43.3414Z" fill="#263238"/>
<path d="M349.85 52.7458C348.951 60.2014 348.851 64.5887 344.853 68.4065C343.614 69.6733 342.05 70.5733 340.332 71.0069C338.614 71.4405 336.809 71.3909 335.118 70.8635C333.426 70.3362 331.913 69.3517 330.746 68.0186C329.579 66.6856 328.802 65.0559 328.503 63.3095C327.294 56.6135 328.963 45.5501 336.438 42.5819C338.009 41.8891 339.736 41.629 341.441 41.8286C343.146 42.0282 344.767 42.6802 346.135 43.7171C347.503 44.7539 348.569 46.1379 349.223 47.7254C349.876 49.3129 350.092 51.0463 349.85 52.7458Z" fill="#FFCBBE"/>
<path d="M337.568 47.1991C343.104 45.79 347.172 44.8305 345.713 49.4378C343.784 55.5941 341.465 61.5505 344.574 61.8204C346.472 61.9903 354.867 58.4324 353.798 54.8246C352.869 51.6864 356.796 50.827 357.496 49.2379C360.084 43.4813 352.679 44.2409 353.998 40.743C355.317 37.2451 348.001 31.6085 344.004 34.4168C337.498 38.9541 326.334 38.8841 332.201 31.4186C336.408 26.0918 328.903 27.1811 328.903 27.1811C328.903 27.1811 333.44 29.8695 325.805 34.027C317.73 38.4644 325.135 50.3872 337.568 47.1991Z" fill="#263238"/>
<path d="M352.789 60.9609C351.695 62.5425 350.053 63.6611 348.181 64.099C345.713 64.6287 344.763 62.42 345.693 60.2014C346.522 58.2026 348.801 55.5142 351.159 55.9739C353.518 56.4336 354.058 59.0021 352.789 60.9609Z" fill="#FFCBBE"/>
<path d="M316.21 147.419C316.21 147.419 309.454 207.883 308.925 230.829C308.385 254.695 331.821 329.16 331.821 329.16L343.814 324.163C343.814 324.163 329.822 256.124 331.821 232.688C333.94 207.133 342.695 147.459 342.695 147.459L316.21 147.419Z" fill="#D36681"/>
<path opacity="0.2" d="M333 164.019C327.614 175.193 331.241 197.289 334.16 210.382C335.269 201.137 336.588 191.103 337.837 181.819C337.718 167.547 336.608 156.524 333 164.019Z" fill="black"/>
<path d="M343.284 320.206C343.344 320.206 344.703 324.024 344.703 324.024L330.872 329.84L328.693 325.783L343.284 320.206Z" fill="#D36681"/>
<path d="M330.492 147.419C330.492 147.419 335.659 204.925 339.077 226.462C342.834 250.058 357.566 328.641 357.566 328.641H371.347C371.347 328.641 363.092 251.967 361.533 228.601C359.834 203.256 356.456 147.419 356.456 147.419H330.492Z" fill="#D36681"/>
<path d="M371.557 325.053C371.617 325.053 372.017 328.901 372.017 328.901H356.866L355.787 324.483L371.557 325.053Z" fill="#D36681"/>
<path opacity="0.2" d="M366.28 320.496C366.249 320.496 366.219 320.485 366.195 320.465C366.171 320.445 366.155 320.417 366.15 320.386C366.071 319.686 358.625 250.428 357.226 229.44C355.707 206.674 352.649 156.174 352.619 155.664C352.617 155.648 352.619 155.631 352.625 155.615C352.63 155.6 352.639 155.585 352.65 155.573C352.661 155.561 352.675 155.551 352.69 155.544C352.705 155.538 352.722 155.534 352.739 155.534C352.771 155.534 352.803 155.547 352.827 155.569C352.851 155.591 352.866 155.622 352.868 155.654C352.868 156.164 355.957 206.624 357.476 229.43C358.875 250.418 366.32 319.626 366.39 320.376C366.393 320.392 366.393 320.409 366.388 320.425C366.384 320.442 366.377 320.457 366.366 320.47C366.356 320.483 366.343 320.494 366.328 320.502C366.313 320.51 366.297 320.514 366.28 320.516V320.496Z" fill="black"/>
<path d="M338.417 54.8246C338.417 55.4342 338.037 55.9239 337.638 55.9239C337.238 55.9239 336.948 55.4342 336.988 54.8246C337.028 54.2149 337.368 53.7252 337.768 53.7252C338.167 53.7252 338.457 54.2249 338.417 54.8246Z" fill="#263238"/>
<path d="M331.561 54.8246C331.561 55.4342 331.172 55.9239 330.782 55.9239C330.392 55.9239 330.092 55.4342 330.122 54.8246C330.152 54.2149 330.512 53.7252 330.912 53.7252C331.311 53.7252 331.601 54.2249 331.561 54.8246Z" fill="#263238"/>
<path d="M333.72 55.1344C332.886 56.996 331.811 58.7399 330.522 60.3213C331.521 61.3207 333.39 60.861 333.39 60.861L333.72 55.1344Z" fill="#FFB19D"/>
<path d="M333.9 63.4094C333.877 63.4095 333.854 63.4048 333.832 63.3956C333.811 63.3865 333.792 63.373 333.776 63.3562C333.76 63.3393 333.748 63.3194 333.74 63.2976C333.732 63.2758 333.728 63.2527 333.73 63.2295C333.732 63.1809 333.753 63.1352 333.789 63.1017C333.824 63.0682 333.871 63.0496 333.92 63.0496C334.684 63.0549 335.44 62.8889 336.132 62.5638C336.823 62.2386 337.434 61.7626 337.917 61.1708C337.952 61.1405 337.996 61.1239 338.042 61.1239C338.088 61.1239 338.133 61.1405 338.167 61.1708C338.199 61.2043 338.218 61.2491 338.218 61.2957C338.218 61.3423 338.199 61.3871 338.167 61.4206C337.649 62.0497 336.997 62.5548 336.259 62.8989C335.52 63.2431 334.714 63.4175 333.9 63.4094Z" fill="#263238"/>
<path d="M339.637 52.9857C339.589 53.0102 339.536 53.023 339.482 53.023C339.428 53.023 339.375 53.0102 339.327 52.9857C338.953 52.744 338.527 52.5936 338.085 52.5467C337.642 52.4999 337.194 52.5578 336.778 52.7158C336.738 52.7361 336.693 52.7481 336.648 52.751C336.603 52.7539 336.558 52.7477 336.515 52.7328C336.472 52.7179 336.432 52.6946 336.399 52.6642C336.365 52.6338 336.338 52.597 336.319 52.5559C336.281 52.467 336.281 52.3671 336.316 52.2775C336.351 52.1879 336.421 52.1157 336.508 52.0762C337.031 51.8628 337.597 51.7786 338.159 51.8308C338.721 51.883 339.262 52.07 339.737 52.376C339.775 52.4021 339.808 52.4355 339.833 52.4743C339.858 52.5131 339.875 52.5565 339.884 52.6021C339.892 52.6476 339.891 52.6944 339.882 52.7397C339.872 52.7849 339.853 52.8278 339.826 52.8657C339.776 52.923 339.71 52.9646 339.637 52.9857Z" fill="#263238"/>
<path d="M328.913 50.9869C328.86 50.974 328.811 50.9462 328.773 50.9069C328.74 50.8743 328.713 50.8355 328.695 50.7926C328.677 50.7497 328.668 50.7036 328.668 50.6571C328.668 50.6105 328.677 50.5645 328.695 50.5215C328.713 50.4786 328.74 50.4398 328.773 50.4072C329.156 49.9776 329.633 49.6422 330.167 49.4273C330.701 49.2123 331.277 49.1236 331.851 49.1679C331.897 49.175 331.941 49.1915 331.98 49.2163C332.02 49.2411 332.054 49.2737 332.08 49.3121C332.106 49.3505 332.124 49.3939 332.133 49.4396C332.142 49.4853 332.141 49.5323 332.131 49.5777C332.11 49.6702 332.055 49.7518 331.978 49.807C331.9 49.8622 331.806 49.8873 331.711 49.8775C331.257 49.8489 330.802 49.924 330.382 50.0972C329.961 50.2703 329.585 50.537 329.283 50.8769C329.237 50.9275 329.178 50.9645 329.113 50.9839C329.048 51.0033 328.979 51.0043 328.913 50.9869Z" fill="#263238"/>
<path d="M366.511 91.8324L356.117 89.0641C356.117 89.0641 345.923 114.159 342.315 115.788C337.418 118.027 325.015 125.782 319.738 129.45C319.449 130.699 319.679 134.007 320.338 134.917C329.333 133.278 346.552 126.652 350.15 123.284C358.355 115.598 366.511 91.8324 366.511 91.8324Z" fill="#FFCBBE"/>
<path d="M359.255 339.264C358.748 339.305 358.242 339.167 357.826 338.875C357.697 338.758 357.601 338.611 357.546 338.446C357.492 338.281 357.482 338.105 357.516 337.935C357.522 337.829 357.557 337.727 357.617 337.639C357.677 337.551 357.759 337.48 357.856 337.436C358.695 337.006 361.044 338.495 361.314 338.665C361.343 338.683 361.366 338.711 361.379 338.743C361.391 338.775 361.393 338.811 361.384 338.845C361.375 338.88 361.358 338.912 361.333 338.938C361.309 338.964 361.278 338.984 361.244 338.995C360.592 339.155 359.925 339.245 359.255 339.264ZM358.255 337.705C358.18 337.689 358.101 337.689 358.026 337.705C357.987 337.725 357.955 337.755 357.934 337.792C357.913 337.83 357.903 337.872 357.906 337.915C357.879 338.032 357.883 338.153 357.919 338.267C357.954 338.381 358.018 338.484 358.106 338.565C358.495 338.915 359.475 338.955 360.764 338.705C359.996 338.199 359.132 337.859 358.225 337.705H358.255Z" fill="#D36681"/>
<path d="M361.193 338.995C361.167 339.003 361.139 339.003 361.113 338.995C360.364 338.575 358.955 336.926 359.165 336.086C359.196 335.953 359.271 335.835 359.378 335.749C359.485 335.664 359.618 335.617 359.754 335.617C359.888 335.599 360.025 335.61 360.154 335.65C360.284 335.689 360.403 335.756 360.504 335.847C361.333 336.556 361.383 338.735 361.383 338.845C361.388 338.878 361.382 338.911 361.366 338.94C361.349 338.969 361.324 338.992 361.293 339.005C361.26 339.011 361.225 339.008 361.193 338.995ZM359.854 335.946H359.784C359.554 335.946 359.524 336.076 359.514 336.126C359.394 336.616 360.284 337.865 361.024 338.455C361.02 337.611 360.759 336.788 360.274 336.096C360.158 335.995 360.008 335.942 359.854 335.946Z" fill="#D36681"/>
<path d="M332.721 338.015C332.109 338.228 331.443 338.228 330.832 338.015C330.693 337.94 330.575 337.831 330.49 337.698C330.404 337.565 330.353 337.413 330.342 337.256C330.33 337.157 330.342 337.056 330.379 336.964C330.416 336.871 330.475 336.789 330.552 336.726C331.352 336.006 334.62 336.726 334.989 336.866C335.025 336.875 335.056 336.896 335.077 336.925C335.099 336.954 335.11 336.99 335.109 337.026C335.111 337.063 335.101 337.1 335.082 337.132C335.062 337.164 335.033 337.19 334.999 337.206C334.263 337.538 333.501 337.809 332.721 338.015ZM331.092 336.826C330.977 336.849 330.871 336.9 330.782 336.976C330.75 337 330.726 337.032 330.711 337.069C330.697 337.106 330.694 337.147 330.702 337.186C330.708 337.291 330.741 337.392 330.797 337.481C330.853 337.57 330.93 337.644 331.022 337.695C331.551 337.975 332.781 337.755 334.37 337.086C333.299 336.816 332.191 336.728 331.092 336.826Z" fill="#D36681"/>
<path d="M334.969 337.206H334.889C333.89 337.026 331.891 335.876 331.831 335.017C331.831 334.817 331.921 334.537 332.401 334.377C332.563 334.32 332.735 334.295 332.907 334.306C333.078 334.316 333.246 334.361 333.4 334.437C334.479 334.967 335.049 336.886 335.079 336.976C335.086 337.006 335.085 337.038 335.076 337.067C335.068 337.097 335.051 337.124 335.029 337.146C335.014 337.17 334.994 337.191 334.969 337.206ZM332.601 334.677H332.501C332.191 334.787 332.191 334.917 332.191 334.957C332.191 335.477 333.64 336.426 334.649 336.746C334.417 335.943 333.925 335.24 333.25 334.747C333.05 334.645 332.818 334.62 332.601 334.677Z" fill="#D36681"/>
<path d="M320.588 128.86L310.164 133.657L308.955 136.656L312.803 139.244C312.803 139.244 319.998 138.465 322.047 133.837L320.588 128.86Z" fill="#FFCBBE"/>
<path d="M321.028 135.087C320.795 133.084 320.134 131.155 319.089 129.43L320.738 128.191C321.978 130.178 322.77 132.412 323.056 134.737L321.028 135.087Z" fill="#263238"/>
<path d="M322.807 130.279C323.027 130.626 323.135 131.032 323.117 131.442C323.098 131.853 322.954 132.247 322.703 132.573C322.452 132.898 322.107 133.138 321.715 133.26C321.323 133.382 320.903 133.381 320.511 133.256C320.12 133.131 319.777 132.888 319.528 132.561C319.28 132.234 319.138 131.838 319.123 131.428C319.107 131.018 319.218 130.612 319.441 130.267C319.664 129.922 319.988 129.654 320.368 129.5C320.795 129.282 321.291 129.242 321.748 129.388C322.204 129.534 322.585 129.854 322.807 130.279Z" fill="#263238"/>
<path d="M303.118 137.535L304.507 138.934L313.862 134.937L310.164 133.657L303.118 137.535Z" fill="#FFCBBE"/>
<path opacity="0.2" d="M343.284 320.206C343.344 320.206 344.703 324.024 344.703 324.024L330.872 329.84L328.693 325.783L343.284 320.206Z" fill="black"/>
<path opacity="0.2" d="M371.557 325.053C371.617 325.053 372.017 328.901 372.017 328.901H356.866L355.787 324.483L371.557 325.053Z" fill="black"/>
<path d="M369.219 88.9542C371.967 97.8189 361.223 109.942 361.223 109.942L346.382 103.885C348.141 98.7615 350.17 93.7342 352.459 88.8242C357.016 79.0001 366.44 80.0095 369.219 88.9542Z" fill="#D36681"/>
<path opacity="0.2" d="M369.219 88.9542C371.967 97.8189 361.223 109.942 361.223 109.942L346.382 103.885C348.141 98.7615 350.17 93.7342 352.459 88.8242C357.016 79.0001 366.44 80.0095 369.219 88.9542Z" fill="black"/>
<path d="M221.747 0.137276H215.361V1.16666H221.747V0.137276Z" fill="#D36681"/>
<path d="M304.415 40.8794L303.643 58.0317L304.671 58.0781L305.444 40.9257L304.415 40.8794Z" fill="#D36681"/>
<path d="M302.429 4.75453H184.499L173.526 250.328H291.455L302.429 4.75453Z" fill="#4E4376"/>
<path opacity="0.56" d="M298.911 8.13249H180.981L170.008 253.706H287.937L298.911 8.13249Z" fill="#FAFAFA"/>
<path opacity="0.07" d="M295.393 11.5005H177.463L166.48 257.074H284.409L295.393 11.5005Z" fill="#D36681"/>
<path d="M281.971 118.606H181.311L180.472 137.395H281.131L281.971 118.606Z" fill="white"/>
<path d="M236.668 104.895H181.921L181.551 113.3H236.298L236.668 104.895Z" fill="#D36681"/>
<path d="M279.702 169.316H179.043L178.203 188.105H278.863L279.702 169.316Z" fill="white"/>
<path opacity="0.47" d="M261.243 213.48H193.554L192.544 235.996H260.234L261.243 213.48Z" fill="#D36681"/>
<path d="M256.716 239.494H189.027C188.997 239.502 188.966 239.502 188.937 239.494C188.927 239.465 188.927 239.433 188.937 239.404L189.936 216.878C189.936 216.862 189.939 216.847 189.945 216.833C189.951 216.819 189.96 216.807 189.972 216.796C189.983 216.786 189.996 216.778 190.011 216.773C190.025 216.768 190.041 216.766 190.056 216.768H257.745C257.758 216.762 257.772 216.758 257.785 216.758C257.799 216.758 257.813 216.762 257.825 216.768C257.832 216.78 257.836 216.794 257.836 216.808C257.836 216.822 257.832 216.836 257.825 216.848L256.846 239.424C256.834 239.448 256.815 239.467 256.792 239.479C256.769 239.492 256.742 239.497 256.716 239.494ZM189.146 239.254H256.596L257.596 216.968H190.146L189.146 239.254Z" fill="white"/>
<path d="M224.845 155.604H179.652L179.282 164.019H224.465L224.845 155.604Z" fill="#D36681"/>
<path d="M259.954 57.9127C259.696 63.3808 257.751 68.6349 254.387 72.9537C251.897 76.2159 248.693 78.8642 245.02 80.6954C241.347 82.5266 237.304 83.492 233.2 83.5174C229.884 83.5427 226.597 82.8887 223.543 81.5958C220.489 80.3029 217.732 78.3984 215.442 75.9997C213.152 73.6009 211.377 70.7587 210.227 67.6481C209.077 64.5375 208.576 61.2243 208.755 57.9127C209.106 51.0408 212.069 44.5628 217.039 39.8034C222.008 35.044 228.608 32.3628 235.489 32.308C238.807 32.2771 242.097 32.927 245.155 34.2177C248.213 35.5084 250.973 37.4124 253.266 39.812C255.559 42.2117 257.336 45.056 258.486 48.1693C259.636 51.2826 260.136 54.5987 259.954 57.9127Z" fill="white"/>
<path d="M262.363 37.6648C262.297 39.1188 261.78 40.5162 260.884 41.6624C260.22 42.5289 259.367 43.2323 258.39 43.719C257.413 44.2057 256.338 44.4628 255.247 44.4707C254.19 44.4772 253.147 44.2246 252.209 43.735C251.272 43.2455 250.469 42.5339 249.87 41.6624C249.077 40.4848 248.685 39.083 248.751 37.6648C248.847 35.8403 249.636 34.1214 250.957 32.8586C252.277 31.5957 254.03 30.8841 255.857 30.8689C256.738 30.8608 257.612 31.0334 258.424 31.3758C259.236 31.7183 259.97 32.2234 260.579 32.8601C261.189 33.4968 261.661 34.2516 261.968 35.0779C262.275 35.9042 262.409 36.7846 262.363 37.6648Z" fill="#D36681"/>
<path d="M192.155 128.001C192.107 128.806 191.755 129.563 191.171 130.12C190.587 130.676 189.813 130.99 189.007 130.999C188.617 131.004 188.231 130.928 187.872 130.778C187.512 130.627 187.188 130.404 186.918 130.123C186.648 129.842 186.439 129.509 186.303 129.144C186.167 128.779 186.108 128.39 186.128 128.001C186.172 127.194 186.522 126.434 187.107 125.877C187.692 125.319 188.468 125.007 189.277 125.003C189.666 124.999 190.051 125.076 190.41 125.227C190.769 125.378 191.092 125.601 191.362 125.881C191.631 126.162 191.841 126.495 191.977 126.859C192.113 127.224 192.174 127.612 192.155 128.001Z" fill="#263238"/>
<path d="M205.627 128.001C205.581 128.807 205.23 129.566 204.646 130.122C204.061 130.679 203.286 130.993 202.479 130.999C202.09 131.002 201.705 130.926 201.347 130.775C200.989 130.624 200.665 130.401 200.397 130.12C200.128 129.839 199.92 129.506 199.784 129.142C199.649 128.777 199.59 128.389 199.61 128.001C199.654 127.196 200.002 126.437 200.585 125.88C201.169 125.323 201.942 125.009 202.749 125.003C203.138 124.998 203.524 125.073 203.884 125.224C204.243 125.374 204.567 125.597 204.837 125.878C205.107 126.159 205.316 126.493 205.452 126.858C205.588 127.223 205.647 127.612 205.627 128.001Z" fill="#263238"/>
<path d="M219.108 128.001C219.063 128.807 218.712 129.566 218.127 130.122C217.543 130.679 216.768 130.993 215.96 130.999C215.571 131.002 215.186 130.926 214.827 130.775C214.468 130.624 214.144 130.401 213.875 130.12C213.605 129.84 213.396 129.507 213.26 129.142C213.123 128.778 213.063 128.389 213.082 128.001C213.128 127.195 213.479 126.436 214.063 125.879C214.648 125.322 215.423 125.009 216.23 125.003C216.62 124.998 217.006 125.073 217.365 125.224C217.725 125.374 218.049 125.597 218.319 125.878C218.589 126.159 218.798 126.493 218.934 126.858C219.069 127.223 219.129 127.612 219.108 128.001Z" fill="#263238"/>
<path d="M189.886 178.711C189.838 179.516 189.486 180.273 188.902 180.829C188.318 181.386 187.544 181.7 186.738 181.709C186.349 181.712 185.963 181.636 185.604 181.485C185.246 181.333 184.922 181.111 184.652 180.83C184.383 180.549 184.174 180.216 184.037 179.852C183.901 179.488 183.84 179.099 183.859 178.711C183.905 177.904 184.256 177.146 184.841 176.589C185.425 176.032 186.2 175.719 187.007 175.712C187.397 175.709 187.782 175.785 188.141 175.937C188.499 176.088 188.823 176.31 189.093 176.591C189.362 176.872 189.572 177.205 189.708 177.569C189.844 177.933 189.905 178.322 189.886 178.711Z" fill="#263238"/>
<path d="M203.358 178.711C203.312 179.515 202.963 180.272 202.38 180.829C201.798 181.385 201.025 181.7 200.22 181.709C199.83 181.713 199.444 181.638 199.085 181.487C198.725 181.337 198.401 181.114 198.131 180.833C197.861 180.552 197.652 180.219 197.516 179.854C197.38 179.489 197.321 179.1 197.341 178.711C197.387 177.904 197.738 177.146 198.323 176.589C198.907 176.032 199.682 175.719 200.489 175.712C200.878 175.709 201.263 175.785 201.621 175.937C201.98 176.088 202.303 176.311 202.572 176.592C202.84 176.872 203.049 177.205 203.184 177.57C203.319 177.934 203.378 178.322 203.358 178.711Z" fill="#263238"/>
<path d="M216.87 178.71C216.824 179.517 216.473 180.275 215.888 180.832C215.304 181.389 214.529 181.702 213.722 181.709C213.333 181.71 212.948 181.633 212.59 181.482C212.232 181.33 211.909 181.107 211.639 180.827C211.37 180.546 211.161 180.214 211.024 179.85C210.887 179.487 210.826 179.099 210.843 178.71C210.891 177.905 211.243 177.148 211.827 176.592C212.411 176.035 213.185 175.721 213.991 175.712C214.381 175.708 214.767 175.783 215.126 175.934C215.486 176.084 215.81 176.307 216.08 176.588C216.35 176.869 216.559 177.202 216.695 177.567C216.831 177.932 216.89 178.321 216.87 178.71Z" fill="#263238"/>
<path d="M230.322 178.711C230.274 179.516 229.922 180.273 229.338 180.829C228.754 181.386 227.98 181.7 227.174 181.709C226.785 181.71 226.4 181.633 226.042 181.482C225.684 181.33 225.361 181.107 225.092 180.827C224.822 180.546 224.613 180.214 224.476 179.85C224.339 179.487 224.278 179.099 224.295 178.711C224.343 177.905 224.695 177.148 225.279 176.592C225.863 176.035 226.637 175.721 227.444 175.712C227.833 175.709 228.218 175.785 228.577 175.937C228.935 176.088 229.259 176.31 229.529 176.591C229.798 176.872 230.008 177.205 230.144 177.569C230.28 177.933 230.341 178.322 230.322 178.711Z" fill="#263238"/>
<path d="M243.854 178.711C243.806 179.516 243.454 180.273 242.87 180.829C242.286 181.386 241.512 181.7 240.705 181.709C240.316 181.713 239.93 181.638 239.57 181.487C239.211 181.337 238.887 181.114 238.617 180.833C238.347 180.552 238.138 180.219 238.002 179.854C237.866 179.489 237.807 179.1 237.827 178.711C237.873 177.904 238.224 177.146 238.808 176.589C239.393 176.032 240.168 175.719 240.975 175.712C241.364 175.709 241.75 175.785 242.109 175.937C242.467 176.088 242.791 176.31 243.061 176.591C243.33 176.872 243.539 177.205 243.676 177.569C243.812 177.933 243.873 178.322 243.854 178.711Z" fill="#263238"/>
<path d="M241.808 56.5792C245.991 52.4886 246.213 45.9318 242.304 41.9343C238.395 37.9367 231.835 38.0121 227.652 42.1028C223.469 46.1934 223.247 52.7501 227.156 56.7477C231.065 60.7452 237.625 60.6698 241.808 56.5792Z" fill="#D36681"/>
<path d="M254.387 72.9537C251.897 76.2159 248.693 78.8642 245.02 80.6954C241.347 82.5266 237.304 83.492 233.2 83.5174C229.221 83.5512 225.294 82.6052 221.766 80.763C218.239 78.9208 215.218 76.2388 212.972 72.9537C217.829 68.1166 225.515 64.9585 234.03 64.9585C242.544 64.9585 249.96 68.1166 254.387 72.9537Z" fill="#D36681"/>
<path opacity="0.1" d="M241.808 56.5792C245.991 52.4886 246.213 45.9318 242.304 41.9343C238.395 37.9367 231.835 38.0121 227.652 42.1028C223.469 46.1934 223.247 52.7501 227.156 56.7477C231.065 60.7452 237.625 60.6698 241.808 56.5792Z" fill="white"/>
<path opacity="0.1" d="M254.387 72.9537C251.897 76.2159 248.693 78.8642 245.02 80.6954C241.347 82.5266 237.304 83.492 233.2 83.5174C229.221 83.5512 225.294 82.6052 221.766 80.763C218.239 78.9208 215.218 76.2388 212.972 72.9537C217.829 68.1166 225.515 64.9585 234.03 64.9585C242.544 64.9585 249.96 68.1166 254.387 72.9537Z" fill="white"/>
<path d="M107.345 141.922C106.396 144.001 105.396 146.29 104.527 148.509C103.657 150.727 102.768 153.016 101.998 155.294C100.427 159.785 99.2302 164.398 98.4203 169.086L98.2004 170.555C98.1795 170.807 98.2032 171.061 98.2704 171.305C98.5063 172.133 98.8777 172.917 99.3697 173.624C100.653 175.453 102.142 177.13 103.807 178.621C105.563 180.253 107.404 181.791 109.324 183.228C111.243 184.707 113.261 186.146 115.25 187.505L113.381 191.013C108.632 188.944 104.125 186.36 99.9394 183.308C97.7065 181.679 95.6913 179.772 93.943 177.631C92.9067 176.357 92.0986 174.913 91.5544 173.364C91.238 172.396 91.0761 171.384 91.0747 170.365C91.0747 170.126 91.0747 169.776 91.0747 169.606V169.116L91.1747 168.117C91.7476 162.91 92.8424 157.774 94.4427 152.786C95.2222 150.327 96.0517 147.879 97.0012 145.49C97.9506 143.102 98.93 140.763 100.139 138.335L107.345 141.922Z" fill="#FFCBBE"/>
<path d="M113.841 186.886L120.907 183.308L119.078 191.063C119.078 191.063 114.231 192.422 111.982 190.064L113.841 186.886Z" fill="#D36681"/>
<path d="M127.373 184.577L125.494 190.993L119.078 191.063L120.907 183.308L127.373 184.577Z" fill="#D36681"/>
<path d="M137.347 104.505C137.725 105.89 138.251 107.23 138.916 108.502C138.722 108.723 138.472 108.887 138.192 108.976C137.912 109.066 137.613 109.078 137.327 109.012L137.347 104.505Z" fill="#FFCBBE"/>
<path d="M137.137 104.565C137.551 104.565 137.887 104.05 137.887 103.416C137.887 102.781 137.551 102.266 137.137 102.266C136.723 102.266 136.388 102.781 136.388 103.416C136.388 104.05 136.723 104.565 137.137 104.565Z" fill="#263238"/>
<path d="M136.917 102.306L138.437 101.876C138.437 101.876 137.697 103.056 136.917 102.306Z" fill="#263238"/>
<path d="M117.829 111.84C118.738 116.488 119.648 125.013 116.39 128.121C116.39 128.121 117.669 132.838 126.314 132.838C135.818 132.838 130.851 128.121 130.851 128.121C125.664 126.881 125.794 123.034 126.703 119.416L117.829 111.84Z" fill="#D36681"/>
<path d="M115.3 101.247C115.78 109.012 115.82 112.31 119.737 116.298C125.644 122.294 135.078 120.016 136.927 112.3C138.596 105.304 137.537 93.7912 129.931 90.7031C128.262 90.0154 126.445 89.7649 124.651 89.9753C122.858 90.1858 121.148 90.8503 119.683 91.9059C118.219 92.9615 117.047 94.3733 116.28 96.0078C115.513 97.6423 115.176 99.4455 115.3 101.247Z" fill="#FFCBBE"/>
<path d="M116.07 92.512C112.172 93.9312 106.975 92.8718 109.014 104.895C111.173 117.627 107.854 121.814 107.854 121.814C107.854 121.814 122.636 124.963 137.727 121.625C137.727 121.625 133.119 113.569 134.409 107.633C136.058 100.137 134.758 97.3691 134.758 97.3691C134.758 97.3691 121.546 90.5132 116.07 92.512Z" fill="#263238"/>
<path d="M132.56 105.294C132.564 106.771 132.987 108.216 133.779 109.462C134.839 111.081 136.088 110.461 136.398 108.742C136.678 107.233 136.468 104.565 135.119 103.525C133.769 102.486 132.58 103.505 132.56 105.294Z" fill="#FFCBBE"/>
<path d="M112.682 93.8212C111.563 90.6731 116.899 85.826 128.193 87.8248C139.486 89.8236 139.976 99.228 139.976 99.228L137.697 96.5096L137.797 99.3679L126.194 101.597L112.682 93.8212Z" fill="#263238"/>
<path d="M113.641 128.65C113.574 128.194 113.689 127.73 113.959 127.356C114.23 126.983 114.636 126.73 115.09 126.652C118.608 126.072 126.603 124.893 130.621 125.452C133.619 125.872 134.399 127.611 134.529 129.04C134.549 129.29 134.516 129.542 134.43 129.778C134.345 130.015 134.211 130.23 134.036 130.41C133.861 130.59 133.649 130.73 133.415 130.821C133.181 130.913 132.93 130.953 132.68 130.939L115.31 130.159C114.901 130.139 114.511 129.977 114.207 129.702C113.903 129.427 113.703 129.056 113.641 128.65Z" fill="#D36681"/>
<path opacity="0.6" d="M113.641 128.65C113.574 128.194 113.689 127.73 113.959 127.356C114.23 126.983 114.636 126.73 115.09 126.652C118.608 126.072 126.603 124.893 130.621 125.452C133.619 125.872 134.399 127.611 134.529 129.04C134.549 129.29 134.516 129.542 134.43 129.778C134.345 130.015 134.211 130.23 134.036 130.41C133.861 130.59 133.649 130.73 133.415 130.821C133.181 130.913 132.93 130.953 132.68 130.939L115.31 130.159C114.901 130.139 114.511 129.977 114.207 129.702C113.903 129.427 113.703 129.056 113.641 128.65Z" fill="black"/>
<path d="M123.685 303.246L130.131 307.723L140.915 293.102L134.469 288.635L123.685 303.246Z" fill="#D36681"/>
<path d="M108.654 302.956L115.46 306.834L125.005 291.373L118.199 287.495L108.654 302.956Z" fill="#D36681"/>
<path d="M140.905 293.102L135.348 300.638L128.902 296.17L134.459 288.635L140.905 293.102Z" fill="#CF6F64"/>
<path d="M118.189 287.495L125.004 291.383L120.087 299.348L113.271 295.461L118.189 287.495Z" fill="#CF6F64"/>
<path d="M129.122 177.461C129.122 177.461 154.287 209.172 149.56 239.504C145.752 263.999 123.665 297.17 123.665 297.17L113.281 292.013C120.601 277.347 126.847 262.169 131.97 246.6C133.55 241.766 134.011 236.637 133.319 231.598C132.626 226.56 130.798 221.745 127.973 217.517C115.22 198.898 94.7925 209.982 108.534 177.461H129.122Z" fill="#D36681"/>
<path opacity="0.6" d="M129.122 177.461C129.122 177.461 154.287 209.172 149.56 239.504C145.752 263.999 123.665 297.17 123.665 297.17L113.281 292.013C120.601 277.347 126.847 262.169 131.97 246.6C133.55 241.766 134.011 236.637 133.319 231.598C132.626 226.56 130.798 221.745 127.973 217.517C115.22 198.898 94.7925 209.982 108.534 177.461H129.122Z" fill="black"/>
<path opacity="0.4" d="M141.464 197.829L137.807 194.191C137.807 194.481 144.892 238.225 146.881 250.517C148.055 246.927 148.954 243.251 149.57 239.524C151.908 224.643 147.021 209.442 141.464 197.829Z" fill="black"/>
<path d="M140.356 177.461C140.356 177.461 170.657 217.317 171.517 241.213C172.226 261.201 138.537 299.928 138.537 299.928L128.742 293.592C128.742 293.592 148.461 266.088 153.428 243.622C151.509 221.355 110.933 177.461 110.933 177.461H140.356Z" fill="#D36681"/>
<path opacity="0.6" d="M140.356 177.461C140.356 177.461 170.657 217.317 171.517 241.213C172.226 261.201 138.537 299.928 138.537 299.928L128.742 293.592C128.742 293.592 148.461 266.088 153.428 243.622C151.509 221.355 110.933 177.461 110.933 177.461H140.356Z" fill="black"/>
<path d="M102.868 129.9C99.6296 130.669 96.5215 142.442 96.5215 142.442L109.184 150.897C109.184 150.897 113.401 141.583 111.922 137.505C110.393 133.258 106.935 128.93 102.868 129.9Z" fill="#D36681"/>
<path opacity="0.2" d="M105.346 137.485L104.467 147.749L109.174 150.907C110.474 147.981 111.436 144.916 112.042 141.773L105.346 137.485Z" fill="black"/>
<path d="M144.103 130.13C144.103 130.13 147.841 131.439 140.355 177.451H108.514C109.054 164.459 109.064 156.464 102.868 129.9C107.326 128.981 111.845 128.386 116.39 128.121C121.204 127.776 126.037 127.776 130.851 128.121C137.067 128.69 144.103 130.13 144.103 130.13Z" fill="#D36681"/>
<path d="M147.341 137.485C148.061 139.484 148.82 141.633 149.62 143.701C150.419 145.77 151.179 147.899 151.988 149.998L154.437 156.274L155.056 157.843L155.376 158.622L155.526 159.012C155.526 159.082 155.526 159.082 155.526 159.072C155.344 158.815 155.104 158.603 154.827 158.453C154.431 158.22 153.986 158.086 153.527 158.063C153.147 158.051 152.768 158.123 152.418 158.273C151.958 158.483 151.958 158.573 151.968 158.563C152.051 158.496 152.125 158.419 152.188 158.333C152.741 157.606 153.22 156.826 153.617 156.004C154.087 155.085 154.537 154.105 154.987 153.116C155.866 151.117 156.676 149.048 157.485 146.959C158.295 144.871 159.064 142.762 159.814 140.633L162.092 134.257L165.94 135.256C165.18 139.814 164.201 144.251 163.022 148.768C162.452 151.017 161.782 153.246 161.023 155.494C160.643 156.624 160.223 157.743 159.744 158.892C159.244 160.14 158.628 161.338 157.905 162.47C157.639 162.851 157.345 163.212 157.025 163.55C156.515 164.101 155.896 164.54 155.206 164.839C154.595 165.101 153.933 165.224 153.268 165.199C152.523 165.171 151.797 164.954 151.159 164.569C150.406 164.099 149.781 163.45 149.34 162.68C149.19 162.42 149.06 162.16 148.97 161.971L148.78 161.591L148.4 160.811L147.641 159.262C146.642 157.183 145.642 155.085 144.773 152.976C143.903 150.867 142.984 148.728 142.124 146.58C141.265 144.431 140.495 142.282 139.766 139.964L147.341 137.485Z" fill="#FFCBBE"/>
<path d="M144.103 130.13C147.931 131.039 152.238 142.352 152.238 142.352L140.855 152.036C140.855 152.036 133.489 139.704 134.979 135.636C136.528 131.399 139.106 128.94 144.103 130.13Z" fill="#D36681"/>
<path d="M163.901 130.679L167.899 127.341L170.677 131.669L168.628 135.276C168.628 135.276 165.37 138.275 162.492 136.746C162.035 135.719 161.926 134.571 162.18 133.476C162.434 132.381 163.038 131.399 163.901 130.679Z" fill="#FFCBBE"/>
<path d="M175.114 127.351L174.814 128.441L168.488 129.5L167.869 127.341L175.114 127.351Z" fill="#FFCBBE"/>
<path d="M139.316 300.438L127.903 293.062L129.952 289.504L142.774 297.389L139.316 300.438Z" fill="#D36681"/>
<path d="M119.927 306.314C118.926 306.192 117.964 305.851 117.109 305.315C117.074 305.302 117.043 305.28 117.022 305.249C117 305.219 116.988 305.182 116.988 305.145C116.988 305.108 117 305.071 117.022 305.041C117.043 305.01 117.074 304.987 117.109 304.975C117.419 304.875 120.107 304.046 120.887 304.685C120.974 304.758 121.041 304.853 121.08 304.96C121.118 305.067 121.128 305.183 121.107 305.295C121.093 305.475 121.033 305.648 120.933 305.799C120.834 305.949 120.697 306.071 120.537 306.154C120.35 306.256 120.141 306.311 119.927 306.314ZM117.679 305.215C118.928 305.854 119.927 306.084 120.407 305.844C120.512 305.787 120.599 305.703 120.662 305.601C120.725 305.5 120.761 305.384 120.767 305.265C120.767 305.105 120.767 305.035 120.677 304.995C120.257 304.655 118.758 304.915 117.659 305.215H117.679Z" fill="#263238"/>
<path d="M117.179 305.385C117.126 305.384 117.076 305.362 117.039 305.325C117.024 305.297 117.017 305.266 117.017 305.235C117.017 305.203 117.024 305.173 117.039 305.145C117.039 305.055 117.689 302.886 118.708 302.397C118.838 302.337 118.98 302.306 119.123 302.306C119.266 302.306 119.408 302.337 119.538 302.397C119.678 302.441 119.8 302.531 119.883 302.652C119.966 302.773 120.007 302.919 119.997 303.066C119.928 303.966 118.099 305.205 117.259 305.415L117.179 305.385ZM119.118 302.656C119.021 302.659 118.925 302.683 118.838 302.726C118.219 303.026 117.709 304.195 117.459 304.905C118.338 304.535 119.548 303.556 119.588 303.006C119.588 302.916 119.588 302.806 119.358 302.706C119.283 302.666 119.202 302.639 119.118 302.626V302.656Z" fill="#263238"/>
<path d="M134.189 310.632C133.059 310.632 131.49 309.182 130.631 308.293C130.609 308.262 130.597 308.226 130.597 308.188C130.597 308.15 130.609 308.114 130.631 308.083C130.651 308.051 130.679 308.025 130.712 308.007C130.746 307.989 130.783 307.981 130.821 307.983C131.221 307.983 134.689 308.503 135.178 309.482C135.23 309.57 135.257 309.67 135.257 309.772C135.257 309.874 135.23 309.974 135.178 310.062C135.105 310.214 134.994 310.346 134.856 310.444C134.718 310.542 134.557 310.603 134.389 310.622L134.189 310.632ZM131.291 308.433C132.55 309.652 133.659 310.332 134.289 310.252C134.399 310.237 134.504 310.196 134.595 310.132C134.685 310.067 134.759 309.981 134.808 309.882C134.831 309.848 134.843 309.808 134.843 309.767C134.843 309.726 134.831 309.686 134.808 309.652C134.549 309.112 132.7 308.653 131.291 308.433Z" fill="#263238"/>
<path d="M131.401 308.383C131.176 308.389 130.952 308.373 130.731 308.333C130.7 308.328 130.671 308.316 130.646 308.296C130.622 308.277 130.603 308.252 130.591 308.223C130.576 308.194 130.568 308.161 130.568 308.128C130.568 308.095 130.576 308.063 130.591 308.033C130.651 307.963 132 306.334 133.279 306.224C133.642 306.196 134 306.311 134.279 306.544C134.669 306.884 134.649 307.184 134.549 307.373C134.299 308.053 132.57 308.383 131.401 308.383ZM131.141 308.013C132.26 308.073 134.049 307.703 134.279 307.214C134.279 307.214 134.359 307.054 134.099 306.834C133.996 306.744 133.875 306.676 133.744 306.635C133.613 306.594 133.476 306.58 133.339 306.594C132.478 306.834 131.71 307.333 131.141 308.023V308.013Z" fill="#263238"/>
<path d="M117.449 304.305L108.974 301.907C108.828 301.863 108.671 301.874 108.532 301.938C108.394 302.003 108.284 302.116 108.224 302.257L105.366 308.683C105.299 308.847 105.268 309.024 105.274 309.202C105.28 309.38 105.324 309.554 105.402 309.713C105.48 309.873 105.591 310.014 105.728 310.128C105.865 310.241 106.024 310.324 106.196 310.372C109.194 311.151 110.633 311.371 114.361 312.441C116.659 313.08 119.937 314.269 123.106 315.169C126.274 316.068 127.333 312.98 126.104 312.321C120.547 309.382 120.107 307.324 118.588 305.125C118.316 304.727 117.913 304.437 117.449 304.305Z" fill="#D36681"/>
<path d="M130.861 307.124L123.625 302.127C123.503 302.037 123.352 301.996 123.2 302.011C123.049 302.026 122.909 302.095 122.806 302.207L118.009 307.364C117.892 307.497 117.805 307.653 117.753 307.823C117.701 307.993 117.686 308.171 117.709 308.347C117.732 308.523 117.792 308.692 117.885 308.843C117.978 308.994 118.102 309.123 118.249 309.222C120.797 310.931 122.116 311.621 125.304 313.83C127.303 315.189 131.171 318.207 133.869 320.086C136.568 321.965 138.576 319.386 137.617 318.367C133.32 313.78 132.38 310.901 131.671 308.293C131.547 307.82 131.261 307.406 130.861 307.124Z" fill="#D36681"/>
<path d="M124.994 297.829L111.952 291.343L113.301 287.805L127.233 294.641L124.994 297.829Z" fill="#D36681"/>
<path d="M108.034 175.582L106.935 178.461C106.825 178.681 107.085 178.91 107.455 178.91H140.515C140.805 178.91 141.045 178.77 141.065 178.591L141.345 175.732C141.345 175.542 141.115 175.372 140.805 175.372H108.554C108.457 175.363 108.359 175.378 108.269 175.414C108.178 175.451 108.098 175.508 108.034 175.582Z" fill="#D36681"/>
<path opacity="0.4" d="M108.034 175.582L106.935 178.461C106.825 178.681 107.085 178.91 107.455 178.91H140.515C140.805 178.91 141.045 178.77 141.065 178.591L141.345 175.732C141.345 175.542 141.115 175.372 140.805 175.372H108.554C108.457 175.363 108.359 175.378 108.269 175.414C108.178 175.451 108.098 175.508 108.034 175.582Z" fill="white"/>
<path d="M113.241 179.19H112.372C112.202 179.19 112.072 179.1 112.082 178.99L112.492 175.282C112.492 175.183 112.652 175.093 112.822 175.093H113.691C113.861 175.093 113.991 175.183 113.981 175.282L113.571 178.99C113.561 179.1 113.411 179.19 113.241 179.19Z" fill="#D36681"/>
<path d="M133.629 179.19H132.77C132.6 179.19 132.47 179.1 132.48 178.99L132.88 175.282C132.88 175.183 133.05 175.093 133.22 175.093H134.079C134.249 175.093 134.389 175.183 134.369 175.282L133.969 178.99C133.919 179.1 133.809 179.19 133.629 179.19Z" fill="#D36681"/>
<g style="mix-blend-mode:multiply">
<path d="M112.482 348.439C127.269 348.439 139.256 347.571 139.256 346.5C139.256 345.429 127.269 344.561 112.482 344.561C97.6951 344.561 85.708 345.429 85.708 346.5C85.708 347.571 97.6951 348.439 112.482 348.439Z" fill="#F5F5F5"/>
</g>
<path d="M128.792 343.762C124.055 342.383 118.798 340.614 115.62 338.765C115.53 338.705 115.43 338.675 115.34 338.625V317.178H124.925C125.652 317.135 126.336 316.815 126.836 316.285C127.335 315.754 127.614 315.053 127.614 314.324C127.614 313.596 127.335 312.894 126.836 312.364C126.336 311.834 125.652 311.514 124.925 311.471H115.39V213.71H109.634V311.471H100.109C99.7205 311.448 99.331 311.505 98.9648 311.638C98.5986 311.771 98.2634 311.977 97.9799 312.244C97.6964 312.512 97.4706 312.834 97.3162 313.192C97.1618 313.549 97.0821 313.935 97.0821 314.324C97.0821 314.714 97.1618 315.099 97.3162 315.457C97.4706 315.815 97.6964 316.137 97.9799 316.404C98.2634 316.672 98.5986 316.878 98.9648 317.011C99.331 317.144 99.7205 317.201 100.109 317.178H109.634V338.595C109.544 338.595 109.454 338.675 109.364 338.735C106.136 340.614 100.919 342.383 96.1817 343.732C95.8617 343.829 95.5869 344.037 95.4071 344.319C95.2273 344.6 95.1544 344.937 95.2015 345.268C95.2486 345.599 95.4126 345.902 95.6639 346.123C95.9152 346.343 96.2372 346.466 96.5715 346.47H128.402C128.722 346.448 129.024 346.318 129.259 346.1C129.494 345.882 129.647 345.59 129.692 345.274C129.738 344.957 129.673 344.634 129.51 344.358C129.346 344.083 129.093 343.873 128.792 343.762Z" fill="#E0E0E0"/>
<path d="M130.262 203.756H94.7228C91.8637 203.756 89.5459 206.073 89.5459 208.932V219.496C89.5459 222.355 91.8637 224.673 94.7228 224.673H130.262C133.121 224.673 135.438 222.355 135.438 219.496V208.932C135.438 206.073 133.121 203.756 130.262 203.756Z" fill="#D36681"/>
<path d="M94.3926 224.683V226.502C94.3926 228.001 96.0216 229.22 98.0204 229.22H127.003C129.002 229.22 130.631 228.001 130.631 226.502V224.683H94.3926Z" fill="#D36681"/>
<path opacity="0.3" d="M94.3926 224.683V226.502C94.3926 228.001 96.0216 229.22 98.0204 229.22H127.003C129.002 229.22 130.631 228.001 130.631 226.502V224.683H94.3926Z" fill="white"/>
</svg>
