<svg width="462" height="386" viewBox="0 0 462 386" fill="none" xmlns="http://www.w3.org/2000/svg">
<path d="M438.258 192.131C450.258 246.839 416.744 282.184 370.338 280.543C348.086 279.758 321.518 255.294 299.67 249.847C271.127 242.712 246.438 251.952 219.167 253.308C151.318 256.662 152.21 228.975 106.494 193.273C74.3834 168.179 22.5661 170.926 5.40463 126.982C-15.622 73.2618 44.6512 47.2996 90.4388 55.2679C143.053 64.4016 157.622 -1.10444 237.982 6.15022C316.951 13.286 421.358 109.69 438.258 192.131Z" fill="#D36681"/>
<path opacity="0.9" d="M438.258 192.131C450.258 246.839 416.744 282.184 370.338 280.543C348.086 279.758 321.518 255.294 299.67 249.847C271.127 242.712 246.438 251.952 219.167 253.308C151.318 256.662 152.21 228.975 106.494 193.273C74.3834 168.179 22.5661 170.926 5.40463 126.982C-15.622 73.2618 44.6512 47.2996 90.4388 55.2679C143.053 64.4016 157.622 -1.10444 237.982 6.15022C316.951 13.286 421.358 109.69 438.258 192.131Z" fill="#F9F871"/>
<path d="M231.322 385.081C358.674 385.081 461.913 379.054 461.913 371.619C461.913 364.183 358.674 358.156 231.322 358.156C103.97 358.156 0.730957 364.183 0.730957 371.619C0.730957 379.054 103.97 385.081 231.322 385.081Z" fill="#949494"/>
<path d="M243.703 311.274H91.985C89.5453 311.24 87.2089 310.284 85.4443 308.599C83.6797 306.914 82.6175 304.624 82.4707 302.188L68.8653 38.7011C68.7898 37.529 68.9573 36.3541 69.3572 35.2498C69.7571 34.1456 70.3808 33.1358 71.1892 32.2839C71.9976 31.432 72.9733 30.7562 74.055 30.299C75.1368 29.8417 76.3014 29.6129 77.4757 29.6268H229.193C231.632 29.6584 233.968 30.6115 235.733 32.2948C237.498 33.978 238.561 36.2666 238.708 38.7011L252.289 302.188C252.364 303.359 252.198 304.532 251.799 305.635C251.401 306.739 250.78 307.748 249.974 308.6C249.168 309.453 248.196 310.13 247.117 310.59C246.038 311.05 244.876 311.283 243.703 311.274Z" fill="#D36681"/>
<path opacity="0.8" d="M243.703 311.274H91.985C89.5453 311.24 87.2089 310.284 85.4443 308.599C83.6797 306.914 82.6175 304.624 82.4707 302.188L68.8653 38.7011C68.7898 37.529 68.9573 36.3541 69.3572 35.2498C69.7571 34.1456 70.3808 33.1358 71.1892 32.2839C71.9976 31.432 72.9733 30.7562 74.055 30.299C75.1368 29.8417 76.3014 29.6129 77.4757 29.6268H229.193C231.632 29.6584 233.968 30.6115 235.733 32.2948C237.498 33.978 238.561 36.2666 238.708 38.7011L252.289 302.188C252.364 303.359 252.198 304.532 251.799 305.635C251.401 306.739 250.78 307.748 249.974 308.6C249.168 309.453 248.196 310.13 247.117 310.59C246.038 311.05 244.876 311.283 243.703 311.274Z" fill="white"/>
<path d="M214.22 21.0401H197.439V22.2294H214.22V21.0401Z" fill="#D36681"/>
<path d="M191.623 21.0401H185.475V22.2294H191.623V21.0401Z" fill="#D36681"/>
<path d="M250.232 294.553H105.139C102.802 294.53 100.561 293.623 98.8662 292.015C97.1715 290.406 96.1491 288.215 96.0048 285.883L83.0178 33.8725C82.9456 32.7509 83.106 31.6265 83.4888 30.5697C83.8717 29.513 84.4687 28.5467 85.2426 27.7316C86.0164 26.9165 86.9503 26.27 87.9857 25.8328C89.0211 25.3955 90.1357 25.1769 91.2596 25.1907H236.353C238.689 25.2165 240.929 26.1264 242.622 27.7373C244.314 29.3481 245.333 31.5403 245.475 33.8725L258.462 285.883C258.534 287.003 258.374 288.126 257.992 289.181C257.609 290.236 257.013 291.201 256.24 292.015C255.468 292.829 254.535 293.475 253.501 293.912C252.467 294.348 251.354 294.567 250.232 294.553Z" fill="#D36681"/>
<path d="M250.232 288.761H105.139C104.288 288.732 103.477 288.391 102.861 287.803C102.245 287.216 101.866 286.422 101.797 285.574L88.7977 33.5752C88.7683 33.24 88.8103 32.9024 88.921 32.5846C89.0317 32.2668 89.2086 31.9762 89.4399 31.7318C89.6719 31.488 89.953 31.2962 90.2646 31.1691C90.5763 31.042 90.9113 30.9825 91.2476 30.9945H236.341C237.19 31.0266 237.997 31.3686 238.611 31.956C239.225 32.5433 239.602 33.3352 239.671 34.1818L252.729 286.18C252.758 286.514 252.716 286.85 252.605 287.167C252.495 287.483 252.319 287.773 252.088 288.017C251.858 288.26 251.579 288.453 251.269 288.581C250.96 288.709 250.626 288.771 250.291 288.761H250.232ZM91.2476 31.2918C90.9519 31.2822 90.6575 31.3344 90.3831 31.445C90.1087 31.5555 89.8604 31.7221 89.654 31.934C89.4554 32.1536 89.3035 32.4113 89.2074 32.6914C89.1114 32.9714 89.0731 33.2681 89.095 33.5633L102.082 285.562C102.148 286.334 102.494 287.055 103.055 287.589C103.616 288.123 104.353 288.435 105.127 288.464H250.22C250.514 288.475 250.807 288.424 251.08 288.313C251.353 288.202 251.599 288.035 251.802 287.821C252.005 287.605 252.16 287.348 252.256 287.067C252.353 286.786 252.388 286.488 252.361 286.192L239.385 34.1937C239.322 33.4229 238.978 32.702 238.42 32.1673C237.861 31.6326 237.126 31.3212 236.353 31.2918H91.2476Z" fill="white"/>
<path opacity="0.3" d="M199.481 122.838C215.984 105.904 214.909 78.0912 197.081 60.7175C179.253 43.3438 151.422 42.9878 134.919 59.9224C118.416 76.8571 119.491 104.669 137.319 122.043C155.148 139.417 182.978 139.773 199.481 122.838Z" fill="white"/>
<path d="M202.779 91.3866C203.112 97.231 201.937 103.063 199.366 108.322C196.583 113.963 192.263 118.703 186.904 121.996C181.545 125.289 175.364 127.001 169.075 126.934C162.556 126.876 156.165 125.131 150.521 121.869C144.877 118.607 140.174 113.94 136.869 108.322C133.788 103.184 132.016 97.369 131.707 91.3866C131.414 86.7986 132.071 82.1995 133.637 77.877C135.203 73.5546 137.644 69.6018 140.808 66.2662C143.971 62.9306 147.789 60.2838 152.023 58.4916C156.257 56.6994 160.815 55.8003 165.412 55.8506C174.98 55.9503 184.154 59.6719 191.088 66.2657C198.022 72.8595 202.199 81.8358 202.779 91.3866Z" fill="white"/>
<path d="M199.331 108.322C196.548 113.963 192.228 118.703 186.869 121.996C181.51 125.289 175.329 127.001 169.039 126.934C162.521 126.876 156.129 125.131 150.486 121.869C144.842 118.607 140.139 113.94 136.833 108.322C145.871 102.08 156.605 98.7598 167.589 98.8077C178.866 98.8502 189.889 102.154 199.331 108.322Z" fill="#D36681"/>
<path d="M178.217 90.5602C184.163 84.459 183.774 74.4368 177.348 68.1749C170.922 61.9131 160.893 61.7828 154.948 67.884C149.002 73.9851 149.391 84.0073 155.817 90.2692C162.243 96.5311 172.272 96.6614 178.217 90.5602Z" fill="#D36681"/>
<path d="M229.431 196.508H115.818C114.829 196.498 113.88 196.113 113.163 195.431C112.446 194.749 112.013 193.821 111.953 192.833L111.097 176.183C111.068 175.709 111.136 175.235 111.298 174.789C111.461 174.343 111.713 173.935 112.04 173.591C112.367 173.248 112.762 172.975 113.199 172.791C113.637 172.606 114.107 172.514 114.582 172.52H228.194C229.182 172.53 230.129 172.913 230.846 173.592C231.563 174.272 231.997 175.197 232.06 176.183L232.916 192.833C232.947 193.307 232.88 193.783 232.718 194.231C232.557 194.678 232.304 195.087 231.977 195.432C231.65 195.777 231.255 196.051 230.817 196.236C230.378 196.421 229.907 196.514 229.431 196.508Z" fill="white"/>
<path opacity="0.3" d="M194.644 163.327H147.192C146.198 163.319 145.245 162.934 144.525 162.249C143.805 161.565 143.372 160.632 143.315 159.64L143.136 156.072C143.105 155.597 143.172 155.121 143.334 154.674C143.496 154.227 143.748 153.818 144.075 153.473C144.402 153.128 144.797 152.854 145.236 152.669C145.674 152.484 146.145 152.391 146.621 152.397H194.062C195.051 152.407 196 152.792 196.717 153.474C197.435 154.156 197.867 155.084 197.927 156.072L198.117 159.64C198.146 160.114 198.078 160.588 197.917 161.035C197.756 161.481 197.504 161.89 197.179 162.235C196.853 162.581 196.461 162.856 196.025 163.043C195.589 163.231 195.119 163.328 194.644 163.327Z" fill="black"/>
<path opacity="0.3" d="M212.293 276.559H141.21C139.526 276.538 137.913 275.882 136.693 274.722C135.474 273.562 134.738 271.983 134.633 270.303L134.217 262.097C134.175 261.291 134.297 260.484 134.577 259.726C134.857 258.969 135.289 258.276 135.845 257.691C136.401 257.106 137.071 256.64 137.814 256.322C138.556 256.004 139.355 255.84 140.163 255.841H211.223C212.906 255.862 214.519 256.518 215.739 257.679C216.959 258.839 217.695 260.417 217.8 262.097L218.216 270.303C218.258 271.108 218.136 271.912 217.857 272.668C217.579 273.424 217.15 274.116 216.596 274.701C216.042 275.286 215.375 275.752 214.635 276.071C213.896 276.391 213.099 276.557 212.293 276.559Z" fill="black"/>
<path d="M231.512 236.777H117.888C116.899 236.764 115.952 236.378 115.235 235.697C114.518 235.016 114.085 234.089 114.023 233.102L113.166 216.452C113.137 215.978 113.205 215.503 113.368 215.056C113.53 214.61 113.782 214.201 114.109 213.857C114.436 213.512 114.83 213.238 115.268 213.052C115.705 212.867 116.176 212.773 116.651 212.777H230.264C231.253 212.787 232.202 213.172 232.919 213.854C233.637 214.536 234.069 215.464 234.129 216.452L234.997 233.102C235.025 233.576 234.955 234.05 234.792 234.496C234.629 234.942 234.377 235.35 234.05 235.694C233.724 236.038 233.33 236.312 232.894 236.498C232.457 236.685 231.987 236.78 231.512 236.777Z" fill="white"/>
<path d="M130.232 184.508C130.265 185.033 130.189 185.56 130.009 186.055C129.829 186.55 129.549 187.002 129.186 187.384C128.823 187.766 128.386 188.068 127.901 188.273C127.416 188.478 126.894 188.581 126.367 188.575C125.273 188.562 124.225 188.135 123.433 187.381C122.641 186.626 122.164 185.6 122.098 184.508C122.063 183.983 122.138 183.456 122.316 182.962C122.495 182.467 122.774 182.014 123.136 181.632C123.497 181.25 123.934 180.947 124.419 180.742C124.903 180.537 125.425 180.434 125.951 180.44C127.046 180.453 128.096 180.88 128.89 181.634C129.684 182.388 130.163 183.415 130.232 184.508Z" fill="#263238"/>
<path d="M142.756 184.508C142.79 185.033 142.716 185.559 142.537 186.054C142.359 186.549 142.08 187.002 141.718 187.383C141.356 187.765 140.919 188.068 140.435 188.273C139.95 188.479 139.429 188.581 138.903 188.575C137.808 188.565 136.758 188.139 135.965 187.384C135.173 186.629 134.696 185.601 134.633 184.508C134.599 183.983 134.673 183.456 134.852 182.962C135.03 182.467 135.309 182.014 135.671 181.632C136.033 181.25 136.47 180.947 136.954 180.742C137.439 180.537 137.96 180.434 138.486 180.44C139.581 180.451 140.631 180.877 141.424 181.632C142.217 182.387 142.693 183.415 142.756 184.508Z" fill="#263238"/>
<path d="M155.208 184.508C155.242 185.033 155.168 185.559 154.989 186.054C154.81 186.549 154.531 187.002 154.17 187.383C153.808 187.765 153.371 188.068 152.886 188.273C152.402 188.479 151.88 188.581 151.354 188.575C150.259 188.562 149.209 188.136 148.415 187.382C147.621 186.627 147.142 185.601 147.073 184.508C147.04 183.982 147.116 183.456 147.296 182.961C147.476 182.466 147.756 182.014 148.119 181.632C148.482 181.25 148.919 180.947 149.404 180.742C149.889 180.537 150.411 180.435 150.938 180.441C152.032 180.454 153.08 180.88 153.872 181.635C154.665 182.389 155.142 183.416 155.208 184.508Z" fill="#263238"/>
<path d="M167.754 184.508C167.787 185.032 167.711 185.558 167.532 186.052C167.353 186.546 167.074 186.998 166.712 187.38C166.351 187.761 165.915 188.064 165.431 188.27C164.947 188.476 164.427 188.58 163.901 188.575C162.806 188.562 161.756 188.136 160.962 187.382C160.168 186.627 159.689 185.601 159.62 184.508C159.587 183.983 159.663 183.458 159.842 182.964C160.021 182.47 160.3 182.018 160.662 181.636C161.023 181.255 161.459 180.952 161.943 180.746C162.427 180.54 162.947 180.436 163.473 180.441C164.568 180.453 165.618 180.88 166.412 181.634C167.206 182.388 167.686 183.415 167.754 184.508Z" fill="#263238"/>
<path d="M132.338 224.753C132.372 225.278 132.298 225.805 132.119 226.3C131.941 226.794 131.662 227.247 131.3 227.629C130.938 228.011 130.501 228.314 130.017 228.519C129.532 228.724 129.011 228.827 128.485 228.821C127.39 228.808 126.34 228.382 125.546 227.627C124.752 226.873 124.272 225.846 124.203 224.753C124.17 224.228 124.246 223.701 124.426 223.206C124.606 222.711 124.887 222.259 125.249 221.877C125.612 221.496 126.05 221.193 126.535 220.988C127.02 220.783 127.542 220.68 128.068 220.686C129.162 220.699 130.211 221.126 131.003 221.88C131.795 222.635 132.272 223.661 132.338 224.753Z" fill="#263238"/>
<path d="M144.837 224.753C144.869 225.278 144.794 225.804 144.614 226.298C144.435 226.792 144.156 227.244 143.795 227.625C143.433 228.007 142.997 228.31 142.513 228.515C142.03 228.721 141.509 228.825 140.983 228.821C139.888 228.808 138.839 228.382 138.045 227.627C137.251 226.873 136.771 225.846 136.702 224.753C136.668 224.228 136.742 223.702 136.921 223.207C137.099 222.712 137.378 222.26 137.74 221.878C138.102 221.496 138.539 221.193 139.023 220.988C139.508 220.783 140.029 220.68 140.555 220.686C141.65 220.699 142.7 221.125 143.494 221.88C144.288 222.634 144.768 223.66 144.837 224.753Z" fill="#263238"/>
<path d="M157.336 224.753C157.369 225.279 157.293 225.806 157.113 226.301C156.933 226.795 156.653 227.248 156.29 227.63C155.927 228.011 155.49 228.314 155.005 228.519C154.52 228.724 153.998 228.827 153.471 228.821C152.376 228.811 151.326 228.385 150.534 227.63C149.741 226.874 149.265 225.846 149.202 224.753C149.167 224.228 149.242 223.702 149.42 223.207C149.599 222.712 149.878 222.26 150.24 221.878C150.601 221.496 151.038 221.193 151.523 220.988C152.007 220.783 152.529 220.68 153.055 220.686C154.15 220.699 155.2 221.125 155.994 221.88C156.788 222.634 157.267 223.66 157.336 224.753Z" fill="#263238"/>
<path d="M169.824 224.753C169.858 225.278 169.784 225.805 169.605 226.3C169.427 226.794 169.148 227.247 168.786 227.629C168.424 228.011 167.987 228.314 167.503 228.519C167.018 228.724 166.497 228.827 165.97 228.821C164.875 228.808 163.826 228.382 163.032 227.627C162.238 226.873 161.758 225.846 161.689 224.753C161.656 224.228 161.732 223.701 161.912 223.206C162.092 222.711 162.372 222.259 162.735 221.877C163.098 221.496 163.535 221.193 164.021 220.988C164.506 220.783 165.028 220.68 165.554 220.686C166.649 220.696 167.699 221.122 168.492 221.877C169.284 222.632 169.76 223.66 169.824 224.753Z" fill="#263238"/>
<path d="M182.323 224.753C182.358 225.278 182.283 225.805 182.105 226.3C181.926 226.794 181.647 227.247 181.285 227.629C180.923 228.011 180.487 228.314 180.002 228.519C179.518 228.724 178.996 228.827 178.47 228.821C177.375 228.808 176.325 228.382 175.531 227.627C174.737 226.873 174.257 225.846 174.189 224.753C174.156 224.229 174.232 223.703 174.411 223.209C174.59 222.715 174.869 222.263 175.231 221.882C175.592 221.5 176.028 221.197 176.512 220.991C176.995 220.786 177.516 220.682 178.042 220.686C179.137 220.699 180.187 221.125 180.981 221.88C181.775 222.634 182.254 223.66 182.323 224.753Z" fill="#263238"/>
<path d="M194.823 224.753C194.856 225.279 194.78 225.806 194.6 226.301C194.42 226.795 194.14 227.248 193.777 227.63C193.414 228.011 192.977 228.314 192.492 228.519C192.007 228.724 191.484 228.827 190.958 228.821C189.864 228.808 188.816 228.381 188.024 227.626C187.231 226.872 186.754 225.845 186.688 224.753C186.654 224.228 186.728 223.702 186.907 223.207C187.086 222.712 187.365 222.26 187.726 221.878C188.088 221.496 188.525 221.193 189.01 220.988C189.494 220.783 190.016 220.68 190.542 220.686C191.637 220.699 192.687 221.125 193.481 221.88C194.275 222.634 194.754 223.66 194.823 224.753Z" fill="#263238"/>
<path d="M330.033 86.6413C330.33 87.0932 330.485 87.3311 330.675 87.6522L331.21 88.5323C331.555 89.1269 331.865 89.7215 332.162 90.3043C332.757 91.4936 333.351 92.6829 333.827 93.8722C334.824 96.2342 335.682 98.6526 336.396 101.115C337.836 105.979 338.784 110.975 339.226 116.029L339.309 116.968C339.319 117.158 339.319 117.349 339.309 117.539V118.169C339.329 118.996 339.282 119.824 339.167 120.643C338.939 122.162 338.54 123.65 337.977 125.079C336.933 127.632 335.549 130.032 333.863 132.215C330.717 136.242 326.985 139.774 322.79 142.692L319.508 138.851C322.495 135.478 325.14 131.817 327.405 127.922C328.424 126.155 329.223 124.269 329.783 122.308C330.01 121.477 330.142 120.624 330.176 119.763C330.212 119.395 330.212 119.025 330.176 118.657V118.407C330.188 118.297 330.188 118.185 330.176 118.074L330.033 117.242C329.268 112.809 328.187 108.437 326.798 104.16C326.108 102.031 325.264 99.9732 324.42 97.9633C324.003 96.9524 323.528 95.9653 323.052 95.0139L322.315 93.6105L321.946 92.9564L321.637 92.4331L330.033 86.6413Z" fill="#803E3C"/>
<path d="M318.973 142.716L323.278 151.814L326.691 144.12C326.691 144.12 323.658 137.46 319.555 138.078L318.973 142.716Z" fill="#7F3E3B"/>
<path d="M326.358 152.266L329.783 146.653L326.691 144.12L323.278 151.814L326.358 152.266Z" fill="#7F3E3B"/>
<path d="M306.997 362.081C307.887 362.058 308.773 361.939 309.637 361.724C309.681 361.71 309.72 361.686 309.752 361.652C309.783 361.619 309.805 361.578 309.815 361.534C309.823 361.488 309.816 361.441 309.797 361.399C309.778 361.356 309.747 361.321 309.708 361.296C309.363 361.07 306.343 359.119 305.177 359.643C305.048 359.703 304.937 359.796 304.856 359.913C304.774 360.03 304.725 360.167 304.713 360.309C304.677 360.524 304.694 360.744 304.763 360.952C304.831 361.159 304.949 361.346 305.106 361.498C305.645 361.914 306.317 362.121 306.997 362.081ZM308.959 361.379C307.235 361.736 305.926 361.676 305.391 361.212C305.282 361.104 305.202 360.97 305.158 360.822C305.115 360.675 305.109 360.518 305.141 360.368C305.141 360.166 305.26 360.106 305.344 360.071C305.986 359.785 307.734 360.63 308.959 361.379Z" fill="#D36681"/>
<path d="M309.577 361.724H309.696C309.732 361.701 309.761 361.669 309.782 361.631C309.803 361.594 309.814 361.552 309.815 361.51C309.815 361.391 309.815 358.525 308.721 357.561C308.587 357.441 308.428 357.35 308.255 357.297C308.083 357.244 307.901 357.228 307.722 357.252C307.534 357.254 307.353 357.319 307.208 357.438C307.063 357.557 306.963 357.722 306.925 357.906C306.699 359.036 308.507 361.177 309.458 361.724H309.577ZM307.877 357.692C307.973 357.689 308.069 357.706 308.159 357.741C308.248 357.775 308.33 357.828 308.4 357.894C309.027 358.819 309.351 359.917 309.327 361.034C308.376 360.273 307.246 358.655 307.389 357.977C307.389 357.87 307.472 357.728 307.77 357.692H307.877Z" fill="#D36681"/>
<path d="M295.77 357.228C295.798 357.193 295.816 357.152 295.822 357.108C295.828 357.063 295.823 357.018 295.806 356.977C295.789 356.936 295.761 356.9 295.725 356.873C295.69 356.846 295.648 356.829 295.603 356.824C295.116 356.824 290.846 356.622 289.871 357.668V357.74C289.79 357.843 289.738 357.965 289.719 358.094C289.7 358.223 289.716 358.355 289.764 358.477C289.827 358.681 289.94 358.867 290.091 359.018C290.242 359.169 290.428 359.282 290.632 359.345C292.012 359.773 294.45 358.215 295.782 357.252L295.77 357.228ZM290.228 357.978C290.763 357.407 293.118 357.252 294.878 357.276C293.034 358.536 291.5 359.131 290.727 358.893C290.592 358.852 290.47 358.779 290.37 358.679C290.271 358.58 290.197 358.457 290.156 358.322C290.132 358.277 290.12 358.226 290.12 358.174C290.12 358.122 290.132 358.071 290.156 358.025L290.228 357.978Z" fill="#D36681"/>
<path d="M295.77 357.228C295.788 357.191 295.797 357.151 295.797 357.109C295.797 357.068 295.788 357.028 295.77 356.99C295.711 356.895 294.379 354.612 292.809 354.136C292.583 354.07 292.347 354.051 292.114 354.079C291.88 354.108 291.656 354.184 291.453 354.303C290.882 354.636 290.846 355.028 290.918 355.278C291.227 356.384 294.26 357.359 295.568 357.347C295.609 357.347 295.649 357.335 295.685 357.314C295.72 357.294 295.749 357.264 295.77 357.228ZM291.5 354.85C291.568 354.784 291.644 354.728 291.726 354.683C291.873 354.59 292.039 354.529 292.211 354.507C292.384 354.484 292.559 354.5 292.725 354.552C293.76 354.826 294.723 356.158 295.163 356.812C293.748 356.657 291.596 355.789 291.417 355.123C291.402 355.073 291.402 355.019 291.417 354.968C291.431 354.918 291.461 354.872 291.5 354.838V354.85Z" fill="#D36681"/>
<path d="M308.864 51.807C307.675 57.7535 305.106 70.6097 309.233 74.5581C309.233 74.5581 307.615 80.5046 296.638 80.5046C284.555 80.5046 290.87 74.5581 290.87 74.5581C297.459 72.9883 297.292 68.0884 296.139 63.4977L308.864 51.807Z" fill="#7F3E3B"/>
<path d="M288.741 37.8686C288.808 37.8794 288.876 37.8794 288.943 37.8686C289 37.8407 289.05 37.802 289.091 37.7546C289.133 37.7071 289.164 37.6519 289.184 37.5922C289.204 37.5324 289.212 37.4693 289.208 37.4065C289.203 37.3437 289.186 37.2825 289.157 37.2264C288.837 36.5479 288.359 35.9562 287.763 35.5009C287.167 35.0456 286.471 34.7401 285.732 34.6099C285.608 34.5995 285.485 34.6368 285.388 34.7142C285.291 34.7916 285.227 34.9032 285.209 35.0262C285.195 35.1506 285.232 35.2753 285.309 35.3733C285.387 35.4712 285.501 35.5345 285.625 35.5494C286.208 35.6614 286.756 35.9107 287.224 36.2768C287.691 36.6429 288.064 37.1152 288.313 37.6545C288.359 37.7248 288.423 37.7817 288.498 37.8193C288.573 37.8569 288.657 37.8739 288.741 37.8686Z" fill="#263238"/>
<path d="M285.138 43.0895C284.202 44.8256 283.033 46.426 281.665 47.8467C282.035 48.1856 282.475 48.4399 282.954 48.5918C283.432 48.7438 283.938 48.7899 284.436 48.7268L285.138 43.0895Z" fill="#630F0F"/>
<path d="M286.029 41.7456C285.934 42.5425 285.423 43.1371 284.911 43.0776C284.4 43.0182 284.043 42.3165 284.138 41.5197C284.234 40.7228 284.745 40.1282 285.328 40.1877C285.91 40.2471 286.113 40.9488 286.029 41.7456Z" fill="#263238"/>
<path d="M285.482 40.259L283.651 39.5217C283.651 39.5217 284.424 41.0915 285.482 40.259Z" fill="#263238"/>
<path d="M306.271 354.969L296.566 357.228L290.667 334.917L300.372 332.658L306.271 354.969Z" fill="#7F3E3B"/>
<path d="M321.161 361.486H311.207L311.98 338.426H321.946L321.161 361.486Z" fill="#7F3E3B"/>
<path d="M310.41 360.332H321.601C321.795 360.331 321.983 360.4 322.13 360.527C322.276 360.654 322.372 360.83 322.398 361.022L323.67 369.87C323.696 370.094 323.673 370.321 323.604 370.535C323.536 370.75 323.422 370.947 323.272 371.115C323.121 371.282 322.937 371.416 322.731 371.507C322.525 371.598 322.302 371.644 322.077 371.642C318.176 371.583 316.297 371.345 311.373 371.345C308.34 371.345 303.916 371.666 299.742 371.666C295.567 371.666 295.33 367.528 297.078 367.159C304.88 365.47 306.116 363.163 308.745 360.951C309.209 360.554 309.799 360.335 310.41 360.332Z" fill="#263238"/>
<path d="M295.71 355.742L305.879 351.068C306.051 350.985 306.248 350.969 306.432 351.022C306.616 351.074 306.775 351.192 306.878 351.353L311.742 358.87C311.855 359.063 311.927 359.278 311.953 359.501C311.978 359.724 311.956 359.95 311.889 360.164C311.822 360.378 311.711 360.575 311.562 360.744C311.414 360.912 311.232 361.047 311.028 361.141C307.46 362.711 305.653 363.294 301.181 365.351C298.434 366.612 292.856 369.514 289.074 371.298C285.292 373.082 283.342 369.383 284.769 368.312C291.155 363.555 292.987 360.142 294.45 357.038C294.697 356.466 295.146 356.005 295.71 355.742Z" fill="#263238"/>
<path opacity="0.2" d="M290.667 334.917L293.831 346.881L303.417 344.158L300.384 332.658L290.667 334.917Z" fill="black"/>
<path opacity="0.2" d="M321.946 338.426H311.98L311.587 350.319H321.554L321.946 338.426Z" fill="black"/>
<path d="M326.465 76.8178C330.604 77.7335 335.028 92.6115 335.028 92.6115L323.326 105.063C323.326 105.063 313.609 91.0774 315.595 85.9396C317.605 80.5759 321.53 75.7474 326.465 76.8178Z" fill="#263238"/>
<path opacity="0.4" d="M319.853 86.2964C317.76 84.3817 316.344 84.9525 315.381 86.4748C314.43 90.8989 320.067 100.164 322.338 103.672C323.385 99.4856 324.586 90.6611 319.853 86.2964Z" fill="black"/>
<path d="M274.03 77.1151C274.03 77.1151 269.272 78.7801 278.787 137.234H319.223C318.545 120.774 318.521 110.617 326.358 76.8178C320.692 75.6487 314.949 74.8935 309.173 74.5581C303.06 74.1176 296.923 74.1176 290.81 74.5581C282.973 75.2836 274.03 77.1151 274.03 77.1151Z" fill="#263238"/>
<path opacity="0.4" d="M273.661 99.5451C273.922 102.387 274.267 105.587 274.719 109.202C278.037 106.217 280.749 97.7255 279.75 92.778C277.379 94.702 275.325 96.9854 273.661 99.5451Z" fill="black"/>
<path d="M277.99 90.6611C275.808 96.1528 273.351 101.531 270.628 106.776C267.937 112.21 264.752 117.385 261.114 122.237L260.353 123.176L259.972 123.64C259.841 123.795 259.734 123.937 259.532 124.151C258.816 124.932 258.019 125.634 257.153 126.245C255.624 127.303 253.949 128.137 252.182 128.718C249.1 129.703 245.9 130.271 242.668 130.407C236.614 130.648 230.554 130.108 224.638 128.802L225.292 123.807C228.028 123.807 230.894 123.807 233.617 123.581C236.353 123.446 239.077 123.144 241.776 122.677C244.282 122.286 246.733 121.599 249.078 120.631C250.025 120.227 250.91 119.69 251.706 119.038C252.01 118.783 252.286 118.496 252.527 118.181C252.527 118.181 252.67 117.991 252.765 117.86L253.038 117.468L253.597 116.683C256.582 112.073 259.24 107.261 261.554 102.28C263.932 97.226 266.311 91.9812 268.487 86.8197L277.99 90.6611Z" fill="#803E3C"/>
<path d="M274.029 77.1151C269.07 78.3044 262.981 91.9098 262.981 91.9098L273.256 107.014C273.256 107.014 286.945 89.781 285.316 84.5244C283.651 79.0417 280.083 75.6404 274.029 77.1151Z" fill="#263238"/>
<path d="M228.147 124.568L219.572 120.607L218.716 129.135C218.716 129.135 225.852 131.24 229.419 129.135L228.147 124.568Z" fill="#7F3E3B"/>
<path d="M214.446 119.751L213.625 126.245L218.716 129.135L219.572 120.607L214.446 119.751Z" fill="#7F3E3B"/>
<path d="M313.169 42.3284C311.349 52.0449 310.79 56.2074 305.224 60.6197C296.899 67.2559 285.304 62.9031 284.186 52.8417C283.163 43.7793 286.303 29.4127 296.376 26.6773C298.595 26.0652 300.934 26.0316 303.169 26.5799C305.405 27.1282 307.463 28.2401 309.146 29.8095C310.83 31.3789 312.084 33.3535 312.788 35.545C313.492 37.7366 313.623 40.0719 313.169 42.3284Z" fill="#7F3E3B"/>
<path d="M291.821 44.374C291.262 49.3333 291.048 62.2133 301.942 62.6177C315.274 63.1053 319.27 51.7119 318.081 47.1569C325.026 41.5078 326.025 31.7913 318.224 24.3582C310.422 16.9252 293.249 21.0758 288.491 28.3186C282.462 37.2977 291.821 44.374 291.821 44.374Z" fill="#263238"/>
<path d="M305.177 27.2482C304.535 22.0153 305.034 18.4118 309.934 18.4118C314.834 18.4118 321.518 20.1838 323.968 25.1907C326.418 30.1976 326.62 38.0351 319.782 37.2382C312.943 36.4414 305.95 33.5039 305.177 27.2482Z" fill="#D36681"/>
<path d="M312.765 25.9876C311.576 19.7557 317.153 2.20179 330.699 1.0125C336.979 0.477319 339.881 7.23248 336.646 8.35041C342.592 8.27905 346.398 16.1403 340.856 17.3176C345.232 20.1244 344.15 25.8805 337.906 28.711C333.256 30.8518 314.37 34.6218 312.765 25.9876Z" fill="#263238"/>
<path d="M327.238 32.6833C322.873 32.6833 318.318 32.041 315.488 30.1501C314.697 29.673 314.03 29.0142 313.544 28.2283C313.058 27.4424 312.766 26.5519 312.693 25.6308C312.69 25.5526 312.716 25.4759 312.767 25.4163C312.817 25.3567 312.889 25.3186 312.967 25.3097C313.006 25.3047 313.046 25.308 313.084 25.3193C313.122 25.3307 313.157 25.3498 313.188 25.3756C313.218 25.4013 313.242 25.4331 313.26 25.4688C313.277 25.5046 313.286 25.5435 313.288 25.5832C313.359 26.4145 313.626 27.2171 314.066 27.9259C314.507 28.6347 315.108 29.2297 315.821 29.6625C321.208 33.2303 333.66 32.0411 337.537 30.8518C340.891 29.7576 343.163 27.6288 343.615 25.1789C343.756 24.2798 343.645 23.3593 343.294 22.5196C342.943 21.6798 342.367 20.9536 341.629 20.4217C341.6 20.395 341.577 20.3628 341.562 20.327C341.546 20.2912 341.538 20.2526 341.538 20.2136C341.538 20.1746 341.546 20.136 341.562 20.1002C341.577 20.0644 341.6 20.0321 341.629 20.0054C341.684 19.951 341.759 19.9205 341.837 19.9205C341.915 19.9205 341.989 19.951 342.045 20.0054C342.875 20.6112 343.52 21.4358 343.909 22.3872C344.297 23.3385 344.414 24.3792 344.245 25.3929C343.757 28.0688 341.343 30.3523 337.775 31.5178C334.333 32.3856 330.787 32.7777 327.238 32.6833Z" fill="#263238"/>
<path d="M288.789 43.0895C287.681 44.643 287.225 46.5678 287.516 48.4532C287.909 50.9507 290.335 51.1172 292.095 49.5236C293.855 47.93 295.389 45.0519 294.093 42.9825C293.805 42.5355 293.407 42.1697 292.938 41.9198C292.468 41.67 291.943 41.5444 291.411 41.5552C290.879 41.5659 290.359 41.7125 289.9 41.9811C289.441 42.2497 289.059 42.6313 288.789 43.0895Z" fill="#7F3E3B"/>
<path d="M289.466 137.234C289.466 137.234 295.246 205.606 301.252 244.139C306.093 275.262 309.922 348.011 309.922 348.011H323.504C323.504 348.011 328.332 277.439 325.882 246.66C319.662 168.762 333.541 162.411 319.258 137.246L289.466 137.234Z" fill="#D36681"/>
<path opacity="0.4" d="M306.569 163.077C301.186 168.726 296.842 175.28 293.736 182.439C295.318 197.804 297.197 214.859 299.195 229.796C307.394 208.571 309.934 185.58 306.569 163.077Z" fill="black"/>
<path d="M279.964 136.805C279.964 136.805 267.417 211.481 265.443 245.138C270.367 276.262 290.513 342.053 290.513 342.053L302.87 337.569C302.87 337.569 296.031 265.831 288.598 246.196C305.332 189.86 317.629 175.612 314.049 137.234C305.474 137.234 279.964 136.805 279.964 136.805Z" fill="#D36681"/>
<path d="M288.86 345.335L305.557 340.804L304.606 334.144L286.731 338.985L288.86 345.335Z" fill="#263238"/>
<path d="M308.055 348.285H325.359L326.263 342.219L307.959 341.601L308.055 348.285Z" fill="#263238"/>
<path d="M319.853 134.855L321.673 138.482C321.815 138.768 321.482 139.053 321.019 139.053H278.585C278.228 139.053 277.919 138.875 277.895 138.637L277.526 135.069C277.526 134.819 277.824 134.605 278.216 134.605H319.187C319.31 134.589 319.435 134.603 319.552 134.646C319.668 134.69 319.772 134.762 319.853 134.855Z" fill="#D36681"/>
<path opacity="0.5" d="M319.853 134.855L321.673 138.482C321.815 138.768 321.482 139.053 321.019 139.053H278.585C278.228 139.053 277.919 138.875 277.895 138.637L277.526 135.069C277.526 134.819 277.824 134.605 278.216 134.605H319.187C319.31 134.589 319.435 134.603 319.552 134.646C319.668 134.69 319.772 134.762 319.853 134.855Z" fill="black"/>
<path d="M314.346 139.422H315.441C315.667 139.422 315.833 139.303 315.821 139.172L315.298 134.415C315.298 134.272 315.096 134.165 314.882 134.165H313.776C313.561 134.165 313.395 134.272 313.407 134.415L313.918 139.172C313.942 139.327 314.132 139.422 314.346 139.422Z" fill="#D36681"/>
<path d="M299.623 104.79C299.492 104.788 299.364 104.744 299.26 104.665C299.155 104.586 299.078 104.476 299.04 104.35C295.163 90.007 287.147 78.1854 283.258 76.4015C282.956 76.2159 282.593 76.1562 282.247 76.235C282.176 76.2729 282.097 76.2956 282.016 76.3018C281.935 76.3081 281.854 76.2977 281.777 76.2713C281.7 76.2449 281.629 76.203 281.569 76.1483C281.509 76.0936 281.461 76.0272 281.428 75.9532C281.395 75.8792 281.377 75.7991 281.376 75.718C281.374 75.6368 281.39 75.5562 281.421 75.4813C281.452 75.4063 281.498 75.3384 281.556 75.2819C281.615 75.2254 281.684 75.1815 281.76 75.1528C282.085 75.0334 282.432 74.9865 282.777 75.0152C283.122 75.044 283.457 75.1477 283.758 75.3193C287.873 77.2697 296.007 88.9247 300.075 103.589C302.989 103.589 307.484 103.196 308.578 103.101C309.934 101.484 319.9 89.0199 316.178 75.3787C316.156 75.3037 316.15 75.2252 316.159 75.1478C316.169 75.0704 316.194 74.9956 316.232 74.9279C316.271 74.8603 316.323 74.8011 316.385 74.7539C316.448 74.7067 316.518 74.6725 316.594 74.6533C316.745 74.6131 316.906 74.6344 317.042 74.7123C317.178 74.7902 317.278 74.9186 317.319 75.0695C321.47 90.2448 309.435 103.934 309.304 104.064C309.257 104.122 309.2 104.17 309.134 104.205C309.069 104.239 308.997 104.26 308.923 104.267C308.864 104.267 302.929 104.79 299.623 104.79Z" fill="#D36681"/>
<path d="M319.329 113.186C312.848 101.044 310.196 100.187 309.042 96.2864C309.916 94.1051 311.164 92.0928 312.729 90.34C311.944 90.114 310.255 89.781 309.161 89.5788C309.28 89.0437 309.411 88.5204 309.53 88.009C308.339 87.8758 307.135 87.932 305.962 88.1755V86.9862C304.451 86.6575 302.9 86.5573 301.359 86.6889C301.494 87.2518 301.625 87.8227 301.752 88.4014C300.562 88.6274 298.755 88.9961 297.887 89.2458C299.574 91.1565 300.813 93.4197 301.514 95.8702C298.017 101.876 284.436 140.48 306.533 143.442C328.63 146.403 325.799 125.341 319.329 113.186Z" fill="#D36681"/>
<path opacity="0.4" d="M319.329 113.186C312.848 101.044 310.196 100.187 309.042 96.2864C309.916 94.1051 311.164 92.0928 312.729 90.34C311.944 90.114 310.255 89.781 309.161 89.5788C309.28 89.0437 309.411 88.5204 309.53 88.009C308.339 87.8758 307.135 87.932 305.962 88.1755V86.9862C304.451 86.6575 302.9 86.5573 301.359 86.6889C301.494 87.2518 301.625 87.8227 301.752 88.4014C300.562 88.6274 298.755 88.9961 297.887 89.2458C299.574 91.1565 300.813 93.4197 301.514 95.8702C298.017 101.876 284.436 140.48 306.533 143.442C328.63 146.403 325.799 125.341 319.329 113.186Z" fill="white"/>
<path d="M300.61 94.7166C300.473 95.329 300.413 95.9563 300.432 96.5837C300.432 97.0238 301.621 97.3211 302.941 97.4519C304.261 97.5828 309.803 97.7968 309.625 97.1784C309.447 96.56 309.898 95.7156 309.922 95.1923C309.946 94.669 307.722 94.6452 305.855 94.7166C303.988 94.7879 300.979 94.0506 300.61 94.7166Z" fill="#D36681"/>
<path d="M287.754 139.422H288.848C289.062 139.422 289.229 139.303 289.217 139.172L288.705 134.415C288.705 134.272 288.503 134.165 288.277 134.165H287.219C287.005 134.165 286.838 134.272 286.85 134.415L287.362 139.172C287.338 139.327 287.528 139.422 287.754 139.422Z" fill="#D36681"/>
</svg>
