<svg width="500" height="375" viewBox="0 0 500 375" fill="none" xmlns="http://www.w3.org/2000/svg">
<path opacity="0.9" d="M497.21 212.312C510.858 274.578 472.741 314.805 419.961 312.938C394.653 312.044 364.436 284.201 339.587 278.001C307.124 269.881 279.044 280.397 248.028 281.94C170.86 285.758 171.875 254.246 119.88 213.612C83.3589 185.052 24.4248 188.178 4.90628 138.164C-19.0082 77.0224 49.5431 47.4738 101.619 56.5428C161.46 66.9383 178.03 -7.61685 269.427 0.63998C359.242 8.76146 477.988 118.483 497.21 212.312Z" fill="#F9F871"/>
<path d="M402.93 191.94H90.46V200.35H402.93V191.94Z" fill="#E0E0E0"/>
<path d="M392.95 14.94H390.82V191.87H392.95V14.94Z" fill="#E0E0E0"/>
<path d="M110.8 22.7H109.05V181.9H110.8V22.7Z" fill="#E0E0E0"/>
<path d="M390.79 15.01H100.44V191.94H390.79V15.01Z" fill="#F0F0F0"/>
<path d="M381.33 22.7H109.05V181.9H381.33V22.7Z" fill="#E0E0E0"/>
<path d="M110.66 116.42V191.42H154L110.66 116.42ZM120.1 154.24L135.37 180.71H120.1V154.24Z" fill="#FAFAFA"/>
<path opacity="0.1" d="M279.86 181.5H247.68V181.66C247.234 181.832 246.851 182.136 246.581 182.53C246.312 182.925 246.168 183.392 246.17 183.87V190.92C246.168 191.398 246.312 191.865 246.581 192.26C246.851 192.654 247.234 192.958 247.68 193.13V193.29H280.47C280.937 193.29 281.384 193.105 281.715 192.775C282.045 192.444 282.23 191.997 282.23 191.53V183.87C282.23 183.241 281.98 182.639 281.536 182.194C281.091 181.75 280.489 181.5 279.86 181.5V181.5Z" fill="black"/>
<path d="M280.48 186.37V190.5C280.48 190.732 280.434 190.962 280.345 191.176C280.256 191.39 280.125 191.584 279.961 191.748C279.796 191.912 279.601 192.041 279.387 192.129C279.172 192.217 278.942 192.261 278.71 192.26H245.92V186.36L280.48 186.37Z" fill="#F0F0F0"/>
<path d="M245.92 186.37V180.5H278.11C278.739 180.5 279.341 180.75 279.786 181.194C280.23 181.639 280.48 182.241 280.48 182.87V186.39L245.92 186.37Z" fill="#E0E0E0"/>
<path d="M256.21 186.37V189.9C256.207 190.528 255.957 191.129 255.513 191.573C255.069 192.017 254.468 192.267 253.84 192.27H246.78C246.469 192.27 246.161 192.209 245.873 192.09C245.586 191.97 245.324 191.796 245.104 191.576C244.884 191.356 244.71 191.095 244.59 190.807C244.471 190.519 244.41 190.211 244.41 189.9V186.37H256.21Z" fill="#FAFAFA"/>
<path d="M244.41 186.37V182.85C244.41 182.539 244.471 182.231 244.59 181.943C244.71 181.655 244.884 181.394 245.104 181.174C245.324 180.954 245.586 180.78 245.873 180.66C246.161 180.541 246.469 180.48 246.78 180.48H253.84C254.468 180.483 255.069 180.733 255.513 181.177C255.957 181.621 256.207 182.222 256.21 182.85V186.37H244.41Z" fill="#EBEBEB"/>
<path d="M280.47 187.33H256.42V187.83H280.47V187.33Z" fill="#E6E6E6"/>
<path d="M261.89 374.64C368.972 374.64 455.78 369.572 455.78 363.32C455.78 357.068 368.972 352 261.89 352C154.808 352 68 357.068 68 363.32C68 369.572 154.808 374.64 261.89 374.64Z" fill="#F5F5F5"/>
<path d="M259.73 54.31C259.73 55.06 259.6 55.81 259.51 56.55C259.42 57.29 259.3 58.03 259.19 58.79C259.08 59.55 258.98 60.29 258.86 61.04C258.74 61.79 258.63 62.55 258.56 63.3C258.57 63.4798 258.57 63.6601 258.56 63.84C258.549 64.0198 258.549 64.2002 258.56 64.38C258.57 64.5532 258.57 64.7268 258.56 64.9C258.56 65.08 258.56 65.25 258.51 65.42C258.488 65.6413 258.441 65.8594 258.37 66.07C258.3 66.28 258.213 66.4839 258.11 66.68C258.016 66.8972 257.872 67.0891 257.69 67.24C257.516 67.3936 257.306 67.5003 257.08 67.55C256.764 67.6088 256.438 67.5631 256.15 67.42C255.872 67.2852 255.642 67.0689 255.49 66.8C255.409 66.6068 255.349 66.4057 255.31 66.2C255.278 65.9881 255.262 65.7742 255.26 65.56C255.245 65.3403 255.245 65.1197 255.26 64.9C255.26 64.68 255.26 64.47 255.26 64.25C255.32 63.59 255.4 62.93 255.48 62.25C255.56 61.57 255.65 60.91 255.75 60.25C255.85 59.59 255.94 58.88 256.04 58.19C256.14 57.5 256.23 56.82 256.29 56.13C256.29 55.94 256.29 55.75 256.29 55.55C256.29 55.35 256.29 55.14 256.29 54.95C256.31 54.7572 256.31 54.5628 256.29 54.37C256.271 54.1828 256.22 54.0003 256.14 53.83C256.01 53.71 255.88 53.59 255.75 53.45C255.616 53.3233 255.492 53.1862 255.38 53.04C255.276 52.8929 255.196 52.7311 255.14 52.56C255.099 52.3755 255.099 52.1845 255.14 52C255.164 51.7352 255.228 51.4756 255.33 51.23C255.438 50.9821 255.58 50.75 255.75 50.54C255.918 50.327 256.121 50.1444 256.35 50C256.581 49.854 256.84 49.7585 257.11 49.72C257.244 49.7545 257.375 49.8014 257.5 49.86L257.87 50.05C258.176 50.2298 258.456 50.452 258.7 50.71C258.939 50.9735 259.144 51.2657 259.31 51.58C259.476 51.8969 259.604 52.2326 259.69 52.58C259.772 52.9408 259.808 53.3102 259.8 53.68C259.795 53.7833 259.795 53.8867 259.8 53.99L259.73 54.31Z" fill="#D36681"/>
<path d="M271.63 58.73C271.604 58.9087 271.546 59.0813 271.46 59.24C271.371 59.4012 271.26 59.5492 271.13 59.68C270.996 59.8025 270.844 59.9036 270.68 59.98C270.513 60.0572 270.333 60.1013 270.15 60.11C269.863 60.11 269.573 60.11 269.28 60.11C268.99 60.11 268.7 60.11 268.4 60.11C268.4 60.36 268.34 60.61 268.33 60.87C268.318 61.128 268.291 61.3851 268.25 61.64C268.215 61.8507 268.129 62.0497 268 62.22C267.871 62.3893 267.719 62.5406 267.55 62.67C267.378 62.8131 267.186 62.931 266.98 63.02C266.778 63.1071 266.56 63.1514 266.34 63.15C266.052 63.1028 265.793 62.9449 265.62 62.71C265.447 62.4801 265.331 62.213 265.28 61.93C265.211 61.6249 265.178 61.3128 265.18 61C265.18 60.68 265.18 60.38 265.18 60.11H264.43H263.66C263.451 60.1039 263.247 60.0417 263.07 59.93C262.891 59.8291 262.737 59.6889 262.62 59.52C262.497 59.354 262.396 59.1724 262.32 58.98C262.242 58.7798 262.217 58.5625 262.25 58.35C262.343 58.0451 262.533 57.7785 262.79 57.59C263.047 57.4073 263.335 57.2719 263.64 57.19C263.967 57.1039 264.302 57.0503 264.64 57.03L265.57 56.94V56.7C265.605 56.4009 265.655 56.1039 265.72 55.81C265.789 55.4979 265.896 55.1956 266.04 54.91C266.185 54.6462 266.378 54.4121 266.61 54.22C266.864 54.0258 267.18 53.93 267.5 53.95C267.673 53.9496 267.843 53.9872 268 54.06C268.152 54.1323 268.291 54.2304 268.41 54.35C268.529 54.4638 268.624 54.5997 268.69 54.75C268.754 54.9091 268.788 55.0786 268.79 55.25C268.754 55.5452 268.737 55.8426 268.74 56.14C268.741 56.4381 268.717 56.7357 268.67 57.03H268.95C269.253 57.0114 269.557 57.0114 269.86 57.03C270.167 57.0659 270.467 57.1468 270.75 57.27C271.011 57.3843 271.24 57.5591 271.42 57.78C271.524 57.9124 271.597 58.0665 271.634 58.231C271.67 58.3955 271.669 58.5661 271.63 58.73V58.73Z" fill="#D36681"/>
<path d="M279.26 54.31C279.26 55.06 279.13 55.81 279.04 56.55C278.95 57.29 278.84 58.03 278.72 58.79C278.6 59.55 278.51 60.29 278.39 61.04C278.27 61.79 278.16 62.55 278.09 63.3C278.1 63.4798 278.1 63.6601 278.09 63.84C278.079 64.0198 278.079 64.2002 278.09 64.38C278.1 64.5532 278.1 64.7268 278.09 64.9C278.09 65.08 278.09 65.25 278.04 65.42C278.018 65.6413 277.971 65.8594 277.9 66.07C277.83 66.28 277.743 66.4839 277.64 66.68C277.546 66.8972 277.402 67.0891 277.22 67.24C277.046 67.3936 276.836 67.5003 276.61 67.55C276.294 67.6088 275.968 67.5631 275.68 67.42C275.404 67.2822 275.175 67.0666 275.02 66.8C274.939 66.6068 274.879 66.4057 274.84 66.2C274.808 65.9881 274.792 65.7742 274.79 65.56C274.775 65.3403 274.775 65.1197 274.79 64.9C274.79 64.68 274.79 64.47 274.79 64.25C274.85 63.59 274.93 62.93 275.01 62.25C275.09 61.57 275.18 60.91 275.28 60.25C275.38 59.59 275.47 58.88 275.57 58.19C275.67 57.5 275.76 56.82 275.82 56.13C275.82 55.94 275.82 55.75 275.82 55.55C275.82 55.35 275.82 55.14 275.82 54.95C275.84 54.7572 275.84 54.5628 275.82 54.37C275.801 54.1828 275.75 54.0003 275.67 53.83C275.54 53.71 275.41 53.59 275.28 53.45C275.146 53.3233 275.022 53.1862 274.91 53.04C274.806 52.8929 274.726 52.7311 274.67 52.56C274.629 52.3755 274.629 52.1845 274.67 52C274.694 51.7352 274.758 51.4756 274.86 51.23C274.968 50.9821 275.11 50.75 275.28 50.54C275.448 50.327 275.651 50.1444 275.88 50C276.111 49.854 276.37 49.7585 276.64 49.72C276.774 49.7545 276.905 49.8014 277.03 49.86L277.4 50.05C277.706 50.2298 277.986 50.452 278.23 50.71C278.469 50.9735 278.674 51.2657 278.84 51.58C279.011 51.8948 279.139 52.2312 279.22 52.58C279.302 52.9408 279.338 53.3102 279.33 53.68C279.325 53.7833 279.325 53.8867 279.33 53.99L279.26 54.31Z" fill="#D36681"/>
<path d="M291.9 60.78C291.841 60.9857 291.738 61.1765 291.6 61.34C291.47 61.5089 291.315 61.6572 291.14 61.78C290.968 61.902 290.779 61.9996 290.58 62.07C290.383 62.1481 290.172 62.1888 289.96 62.19C288.96 62.26 288.03 62.29 287.07 62.28C286.11 62.27 285.17 62.28 284.22 62.17C284.007 62.1562 283.799 62.0983 283.61 62C283.428 61.9125 283.262 61.7941 283.12 61.65C282.978 61.4992 282.86 61.3271 282.77 61.14C282.684 60.9444 282.636 60.7338 282.63 60.52C282.614 60.3618 282.653 60.2028 282.74 60.07C282.818 59.9414 282.924 59.832 283.05 59.75C283.176 59.6558 283.314 59.5785 283.46 59.52L283.89 59.37C284.219 59.2816 284.553 59.2115 284.89 59.16C285.221 59.1128 285.555 59.0894 285.89 59.09H286.43L286.97 59.14C287.34 59.14 287.72 59.14 288.11 59.14H288.73H289.03C289.133 59.1546 289.237 59.1546 289.34 59.14H289.91C290.115 59.1553 290.319 59.1854 290.52 59.23C290.715 59.2701 290.905 59.3269 291.09 59.4C291.261 59.4669 291.42 59.5615 291.56 59.68C291.692 59.8021 291.789 59.9575 291.84 60.13C291.911 60.339 291.931 60.5616 291.9 60.78V60.78ZM292.38 56.78C292.409 56.978 292.377 57.18 292.29 57.36C292.2 57.5262 292.073 57.6698 291.92 57.78C291.761 57.8969 291.581 57.9818 291.39 58.03C291.202 58.0641 291.008 58.0641 290.82 58.03H284.28C284.083 58.0405 283.886 57.9991 283.71 57.91C283.544 57.8285 283.398 57.7126 283.28 57.57C283.166 57.4232 283.087 57.2521 283.05 57.07C283 56.8799 283 56.6801 283.05 56.49C283.077 56.3222 283.145 56.1639 283.25 56.03C283.352 55.8994 283.474 55.7848 283.61 55.69C283.748 55.5928 283.896 55.5091 284.05 55.44L284.5 55.24C284.824 55.1214 285.159 55.0376 285.5 54.99L286.5 54.87H287.01C287.18 54.8595 287.35 54.8595 287.52 54.87C287.86 54.87 288.2 54.87 288.52 54.87H288.84C288.95 54.8799 289.06 54.8799 289.17 54.87H289.5H289.84C290.133 54.8748 290.424 54.9083 290.71 54.97C291.001 55.026 291.281 55.1272 291.54 55.27C291.787 55.4069 291.999 55.5985 292.16 55.83C292.335 56.1068 292.412 56.4342 292.38 56.76V56.78Z" fill="#D36681"/>
<path d="M307.55 64.95C307.294 65.2272 306.998 65.4633 306.67 65.65C306.352 65.8394 306.017 66.0001 305.67 66.13C305.32 66.26 304.96 66.38 304.6 66.49C304.24 66.6 303.88 66.7 303.54 66.81C302.74 67.02 301.94 67.2 301.12 67.33C300.308 67.4695 299.483 67.5198 298.66 67.48C298.398 67.4856 298.14 67.4125 297.92 67.27C297.714 67.1358 297.54 66.9583 297.41 66.75C297.271 66.5305 297.176 66.2859 297.13 66.03C297.096 65.7711 297.096 65.5089 297.13 65.25C297.158 64.9117 297.218 64.5768 297.31 64.25C297.397 63.9094 297.507 63.5753 297.64 63.25C297.779 62.9377 297.936 62.6339 298.11 62.34C298.28 62.04 298.46 61.75 298.64 61.47L300.03 59.47L301.43 57.47C301.62 57.19 301.81 56.89 301.99 56.58C302.178 56.2853 302.345 55.9779 302.49 55.66C302.64 55.3348 302.77 55.0009 302.88 54.66C302.984 54.3343 303.058 53.9995 303.1 53.66C303.12 53.5509 303.12 53.4391 303.1 53.33C303.08 53.2309 303.043 53.1362 302.99 53.05C302.938 52.9694 302.865 52.9039 302.78 52.86C302.686 52.7982 302.572 52.7733 302.46 52.79C302.197 52.7987 301.936 52.8322 301.68 52.89C301.421 52.9502 301.167 53.0305 300.92 53.13L300.23 53.42C300.001 53.5359 299.8 53.6996 299.64 53.9L299.54 54.13L299.45 54.34L299.38 54.55C299.331 54.7227 299.246 54.8829 299.13 55.02C299.022 55.1667 298.894 55.2979 298.75 55.41C298.601 55.5096 298.439 55.5903 298.27 55.65C298.103 55.7089 297.927 55.7394 297.75 55.74C297.513 55.7608 297.276 55.7085 297.07 55.59C296.966 55.5319 296.875 55.4532 296.803 55.3586C296.731 55.264 296.679 55.1555 296.65 55.04C296.539 54.8401 296.474 54.6181 296.46 54.39C296.435 54.1573 296.435 53.9227 296.46 53.69C296.52 53.3319 296.657 52.9909 296.86 52.69C297.065 52.3667 297.314 52.0738 297.6 51.82C297.889 51.5592 298.204 51.328 298.54 51.13C298.88 50.94 299.22 50.76 299.54 50.61C300.24 50.2964 300.975 50.0681 301.73 49.93C302.476 49.7968 303.233 49.7432 303.99 49.77C304.464 49.7692 304.922 49.9478 305.27 50.27C305.607 50.5835 305.873 50.9654 306.05 51.39C306.253 51.8188 306.398 52.2728 306.48 52.74C306.56 53.2189 306.59 53.7049 306.57 54.19C306.542 54.7882 306.41 55.3769 306.18 55.93C305.958 56.4941 305.69 57.0393 305.38 57.56L304.2 59.22C303.81 59.77 303.42 60.31 303.01 60.86C302.6 61.41 302.28 61.92 301.95 62.46C301.617 63.0029 301.358 63.5881 301.18 64.2C302.01 64.06 302.83 63.9 303.65 63.72C304.47 63.54 305.29 63.39 306.11 63.28C306.324 63.2632 306.538 63.3158 306.72 63.43C306.89 63.547 307.039 63.6925 307.16 63.86C307.283 64.008 307.384 64.1731 307.46 64.35C307.539 64.5396 307.57 64.7456 307.55 64.95V64.95Z" fill="#D36681"/>
<path d="M260.83 154.02C260.578 154.297 260.284 154.533 259.96 154.72C259.641 154.908 259.306 155.068 258.96 155.2C258.6 155.33 258.25 155.45 257.88 155.56L256.83 155.88C256.03 156.09 255.22 156.27 254.4 156.4C253.588 156.54 252.763 156.59 251.94 156.55C251.681 156.555 251.426 156.482 251.21 156.34C250.999 156.209 250.821 156.031 250.69 155.82C250.559 155.597 250.468 155.354 250.42 155.1C250.381 154.841 250.381 154.579 250.42 154.32C250.439 153.981 250.496 153.646 250.59 153.32C250.675 152.978 250.789 152.643 250.93 152.32C251.065 152.008 251.219 151.704 251.39 151.41C251.57 151.11 251.74 150.82 251.92 150.54L253.31 148.54L254.72 146.54L255.28 145.65C255.462 145.349 255.629 145.038 255.78 144.72C255.929 144.396 256.056 144.061 256.16 143.72C256.269 143.396 256.343 143.06 256.38 142.72C256.4 142.611 256.4 142.499 256.38 142.39C256.36 142.291 256.323 142.196 256.27 142.11C256.218 142.029 256.145 141.964 256.06 141.92C255.961 141.86 255.845 141.835 255.73 141.85C255.467 141.859 255.206 141.892 254.95 141.95C254.694 142.009 254.443 142.089 254.2 142.19C253.97 142.28 253.74 142.37 253.51 142.48C253.276 142.593 253.071 142.757 252.91 142.96L252.81 143.19L252.72 143.4L252.66 143.61C252.607 143.781 252.522 143.94 252.41 144.08C252.301 144.226 252.169 144.354 252.02 144.46C251.876 144.57 251.713 144.655 251.54 144.71C251.376 144.769 251.204 144.799 251.03 144.8C250.79 144.822 250.549 144.77 250.34 144.65C250.236 144.592 250.145 144.513 250.073 144.419C250.001 144.324 249.949 144.216 249.92 144.1C249.808 143.901 249.746 143.678 249.74 143.45C249.72 143.217 249.72 142.983 249.74 142.75C249.8 142.392 249.937 142.051 250.14 141.75C250.351 141.431 250.599 141.139 250.88 140.88C251.173 140.619 251.491 140.388 251.83 140.19C252.154 139.999 252.488 139.826 252.83 139.67C253.534 139.358 254.273 139.13 255.03 138.99C255.772 138.857 256.526 138.804 257.28 138.83C257.755 138.827 258.213 139.006 258.56 139.33C258.903 139.638 259.169 140.022 259.34 140.45C259.547 140.877 259.691 141.332 259.77 141.8C259.85 142.279 259.88 142.765 259.86 143.25C259.83 143.847 259.702 144.435 259.48 144.99C259.25 145.553 258.98 146.097 258.67 146.62L257.49 148.28C257.11 148.83 256.71 149.37 256.3 149.92C255.89 150.47 255.58 150.98 255.24 151.52C254.911 152.065 254.652 152.65 254.47 153.26C255.3 153.12 256.13 152.96 256.95 152.78C257.77 152.6 258.58 152.45 259.41 152.34C259.621 152.325 259.831 152.378 260.01 152.49C260.183 152.604 260.332 152.75 260.45 152.92C260.58 153.065 260.684 153.231 260.76 153.41C260.829 153.605 260.853 153.814 260.83 154.02V154.02Z" fill="#D36681"/>
<path d="M273.33 147.8C273.308 147.98 273.251 148.153 273.16 148.31C273.071 148.471 272.96 148.619 272.83 148.75C272.696 148.872 272.544 148.974 272.38 149.05C272.217 149.127 272.04 149.171 271.86 149.18C271.56 149.18 271.27 149.18 270.98 149.18C270.69 149.18 270.4 149.18 270.1 149.18C270.1 149.43 270.1 149.68 270.03 149.94C270.018 150.198 269.991 150.455 269.95 150.71C269.919 150.922 269.833 151.122 269.7 151.29C269.571 151.459 269.419 151.611 269.25 151.74C269.08 151.881 268.891 151.999 268.69 152.09C268.484 152.177 268.263 152.221 268.04 152.22C267.752 152.173 267.493 152.015 267.32 151.78C267.152 151.547 267.036 151.281 266.98 151C266.916 150.694 266.883 150.383 266.88 150.07C266.88 149.75 266.88 149.45 266.88 149.18H266.14H265.37C265.158 149.172 264.951 149.11 264.77 149C264.591 148.899 264.437 148.759 264.32 148.59C264.204 148.421 264.106 148.24 264.03 148.05C263.939 147.853 263.914 147.632 263.96 147.42C264.053 147.115 264.243 146.849 264.5 146.66C264.755 146.479 265.039 146.344 265.34 146.26C265.667 146.175 266.002 146.121 266.34 146.1L267.27 146.01V145.77C267.305 145.471 267.355 145.174 267.42 144.88C267.488 144.566 267.599 144.263 267.75 143.98C267.888 143.712 268.083 143.477 268.32 143.29C268.573 143.093 268.89 142.997 269.21 143.02C269.379 143.02 269.547 143.057 269.7 143.13C269.854 143.2 269.993 143.298 270.11 143.42C270.229 143.534 270.324 143.67 270.39 143.82C270.458 143.978 270.493 144.148 270.49 144.32C270.49 144.62 270.44 144.92 270.44 145.21C270.439 145.508 270.419 145.805 270.38 146.1H270.66C270.961 146.098 271.261 146.115 271.56 146.15C271.867 146.186 272.167 146.267 272.45 146.39C272.712 146.502 272.943 146.677 273.12 146.9C273.217 147.026 273.286 147.172 273.322 147.327C273.358 147.483 273.361 147.644 273.33 147.8V147.8Z" fill="#D36681"/>
<path d="M287.61 154.02C287.358 154.297 287.064 154.533 286.74 154.72C286.421 154.909 286.087 155.07 285.74 155.2C285.39 155.33 285.03 155.45 284.67 155.56L283.61 155.88C282.813 156.095 282.005 156.268 281.19 156.4C280.378 156.54 279.553 156.59 278.73 156.55C278.468 156.554 278.211 156.481 277.99 156.34C277.784 156.206 277.61 156.028 277.48 155.82C277.349 155.597 277.258 155.354 277.21 155.1C277.166 154.842 277.166 154.578 277.21 154.32C277.229 153.981 277.286 153.646 277.38 153.32C277.465 152.978 277.579 152.643 277.72 152.32C277.855 152.008 278.009 151.704 278.18 151.41C278.35 151.11 278.53 150.82 278.71 150.54L280.1 148.54L281.51 146.54C281.69 146.26 281.88 145.96 282.06 145.65C282.249 145.351 282.42 145.04 282.57 144.72C282.719 144.396 282.846 144.061 282.95 143.72C283.054 143.394 283.128 143.059 283.17 142.72C283.195 142.611 283.195 142.499 283.17 142.39C283.153 142.292 283.12 142.197 283.07 142.11C283.018 142.029 282.945 141.964 282.86 141.92C282.761 141.86 282.645 141.835 282.53 141.85C282.267 141.859 282.006 141.892 281.75 141.95C281.491 142.01 281.237 142.09 280.99 142.19C280.76 142.28 280.54 142.37 280.31 142.48C280.076 142.593 279.871 142.757 279.71 142.96L279.61 143.19L279.52 143.4L279.46 143.61C279.403 143.779 279.319 143.938 279.21 144.08C279.098 144.224 278.967 144.352 278.82 144.46C278.674 144.569 278.512 144.653 278.34 144.71C278.176 144.769 278.004 144.799 277.83 144.8C277.59 144.822 277.349 144.77 277.14 144.65C277.036 144.592 276.945 144.513 276.873 144.419C276.801 144.324 276.749 144.216 276.72 144.1C276.608 143.901 276.546 143.678 276.54 143.45C276.51 143.218 276.51 142.982 276.54 142.75C276.6 142.392 276.737 142.051 276.94 141.75C277.148 141.429 277.396 141.136 277.68 140.88C277.969 140.619 278.284 140.388 278.62 140.19C278.96 140 279.3 139.82 279.62 139.67C280.32 139.356 281.055 139.128 281.81 138.99C282.556 138.857 283.313 138.804 284.07 138.83C284.545 138.827 285.003 139.006 285.35 139.33C285.687 139.644 285.953 140.025 286.13 140.45C286.337 140.877 286.481 141.332 286.56 141.8C286.64 142.279 286.67 142.765 286.65 143.25C286.62 143.847 286.492 144.435 286.27 144.99C286.04 145.553 285.77 146.097 285.46 146.62L284.28 148.28C283.9 148.83 283.5 149.37 283.09 149.92C282.68 150.47 282.37 150.98 282.03 151.52C281.701 152.065 281.442 152.65 281.26 153.26C282.09 153.12 282.92 152.96 283.73 152.78C284.54 152.6 285.37 152.45 286.2 152.34C286.411 152.325 286.621 152.378 286.8 152.49C286.973 152.604 287.122 152.75 287.24 152.92C287.37 153.063 287.472 153.229 287.54 153.41C287.614 153.604 287.638 153.814 287.61 154.02V154.02Z" fill="#D36681"/>
<path d="M300.85 149.85C300.79 150.053 300.692 150.244 300.56 150.41C300.426 150.579 300.268 150.727 300.09 150.85C299.918 150.972 299.729 151.07 299.53 151.14C299.334 151.213 299.128 151.253 298.92 151.26C297.92 151.33 296.98 151.36 296.02 151.35C295.06 151.34 294.12 151.35 293.17 151.24C292.957 151.226 292.749 151.168 292.56 151.07C292.188 150.894 291.893 150.588 291.73 150.21C291.64 150.015 291.589 149.804 291.58 149.59C291.569 149.432 291.607 149.275 291.69 149.14C291.768 149.011 291.874 148.902 292 148.82C292.127 148.728 292.265 148.651 292.41 148.59L292.84 148.44C293.169 148.352 293.503 148.281 293.84 148.23C294.171 148.183 294.505 148.16 294.84 148.16H295.39L295.93 148.21C296.29 148.21 296.67 148.21 297.06 148.21H297.68H297.98C298.083 148.225 298.187 148.225 298.29 148.21H298.86C299.065 148.225 299.269 148.255 299.47 148.3C299.665 148.34 299.855 148.397 300.04 148.47C300.213 148.533 300.372 148.628 300.51 148.75C300.642 148.872 300.739 149.028 300.79 149.2C300.861 149.409 300.881 149.632 300.85 149.85V149.85ZM301.33 145.85C301.364 146.048 301.333 146.252 301.24 146.43C301.15 146.596 301.023 146.74 300.87 146.85C300.712 146.969 300.532 147.054 300.34 147.1C300.152 147.134 299.958 147.134 299.77 147.1H293.23C293.036 147.112 292.842 147.07 292.67 146.98C292.499 146.901 292.349 146.785 292.23 146.64C292.116 146.493 292.037 146.322 292 146.14C291.96 145.949 291.96 145.751 292 145.56C292.027 145.392 292.095 145.234 292.2 145.1C292.302 144.969 292.424 144.855 292.56 144.76C292.698 144.659 292.845 144.572 293 144.5L293.45 144.3C293.774 144.181 294.109 144.098 294.45 144.05L295.45 143.93H295.96C296.13 143.919 296.3 143.919 296.47 143.93C296.81 143.93 297.16 143.93 297.47 143.93H297.8C297.906 143.94 298.014 143.94 298.12 143.93H298.45H298.79C299.083 143.935 299.374 143.968 299.66 144.03C299.951 144.084 300.231 144.186 300.49 144.33C300.737 144.467 300.949 144.658 301.11 144.89C301.287 145.17 301.365 145.501 301.33 145.83V145.85Z" fill="#D36681"/>
<path d="M315.52 148.77C315.452 149.09 315.326 149.395 315.15 149.67C314.98 149.955 314.725 150.179 314.42 150.31C314.383 150.431 314.356 150.555 314.34 150.68L314.28 151.05C314.28 151.32 314.28 151.59 314.28 151.87L314.22 152.69C314.22 152.96 314.22 153.22 314.22 153.48C314.22 153.74 314.17 154.01 314.14 154.28C314.109 154.528 314.055 154.772 313.98 155.01C313.903 155.256 313.789 155.489 313.64 155.7C313.501 155.91 313.325 156.094 313.12 156.24C312.875 156.411 312.589 156.512 312.292 156.533C311.994 156.555 311.696 156.495 311.43 156.36C311.282 156.289 311.151 156.188 311.045 156.062C310.94 155.936 310.863 155.788 310.82 155.63C310.698 155.311 310.644 154.971 310.66 154.63C310.66 154.25 310.66 153.88 310.72 153.53C310.78 153.18 310.81 152.71 310.87 152.33C310.915 152.132 310.948 151.932 310.97 151.73L311.06 151.14C311.045 151.034 311.045 150.926 311.06 150.82C311.076 150.717 311.076 150.613 311.06 150.51C310.91 150.5 310.76 150.5 310.61 150.51H310.17C309.62 150.51 309.07 150.51 308.53 150.44C307.994 150.396 307.465 150.296 306.95 150.14L306.23 149.93C305.984 149.853 305.743 149.76 305.51 149.65C305.284 149.547 305.069 149.419 304.87 149.27C304.678 149.115 304.51 148.933 304.37 148.73C304.276 148.557 304.222 148.366 304.21 148.17C304.195 147.96 304.195 147.75 304.21 147.54C304.267 147.031 304.374 146.528 304.53 146.04C304.69 145.54 304.87 145.04 305.07 144.57C305.27 144.1 305.53 143.57 305.78 143.1C306.03 142.63 306.32 142.16 306.62 141.7C306.767 141.46 306.927 141.23 307.1 141.01C307.27 140.78 307.45 140.57 307.64 140.36C307.83 140.15 307.98 139.98 308.16 139.79C308.345 139.609 308.567 139.469 308.81 139.38C309.046 139.368 309.281 139.42 309.49 139.53C309.688 139.638 309.873 139.769 310.04 139.92C310.199 140.095 310.34 140.286 310.46 140.49C310.578 140.7 310.634 140.939 310.62 141.18C310.514 141.617 310.349 142.037 310.13 142.43C309.9 142.82 309.68 143.22 309.46 143.62C309.24 144.02 308.95 144.53 308.72 144.99C308.487 145.445 308.28 145.912 308.1 146.39C308.6 146.48 309.1 146.56 309.61 146.61L311.14 146.8C311.212 146.45 311.266 146.096 311.3 145.74L311.39 144.67C311.39 144.33 311.45 143.98 311.47 143.67C311.49 143.36 311.47 142.96 311.54 142.62C311.61 142.28 311.62 141.85 311.68 141.47C311.741 141.077 311.832 140.69 311.95 140.31C311.996 140.133 312.07 139.964 312.17 139.81C312.269 139.656 312.394 139.521 312.54 139.41C312.679 139.292 312.838 139.2 313.01 139.14C313.181 139.088 313.362 139.071 313.54 139.09C313.779 139.112 314.008 139.191 314.21 139.32C314.403 139.437 314.573 139.59 314.71 139.77C314.849 139.957 314.954 140.167 315.02 140.39C315.082 140.618 315.109 140.854 315.1 141.09C315.1 141.54 315.1 141.99 315.03 142.44C314.96 142.89 314.96 143.34 314.91 143.79C314.86 144.24 314.83 144.7 314.78 145.15C314.73 145.6 314.69 146.06 314.65 146.52C314.64 146.646 314.64 146.774 314.65 146.9C314.665 147.026 314.665 147.154 314.65 147.28C314.948 147.426 315.2 147.651 315.38 147.93C315.507 148.191 315.555 148.482 315.52 148.77V148.77Z" fill="#D36681"/>
<path d="M363.12 348.81C362.269 348.943 361.399 348.754 360.68 348.28C360.591 348.158 360.542 348.011 360.542 347.86C360.542 347.709 360.591 347.562 360.68 347.44C360.806 347.209 361.018 347.036 361.27 346.96C362.63 346.53 365.56 348.05 365.69 348.12C365.726 348.138 365.755 348.168 365.773 348.204C365.79 348.24 365.797 348.28 365.79 348.32C365.785 348.359 365.767 348.395 365.74 348.424C365.714 348.452 365.678 348.472 365.64 348.48C364.813 348.671 363.969 348.781 363.12 348.81ZM361.75 347.27C361.624 347.27 361.499 347.29 361.38 347.33C361.3 347.346 361.225 347.38 361.16 347.431C361.096 347.481 361.045 347.546 361.01 347.62C360.87 347.87 360.93 347.98 361.01 348.04C361.42 348.56 363.49 348.49 365.01 348.25C363.996 347.719 362.889 347.386 361.75 347.27V347.27Z" fill="#D36681"/>
<path d="M365.59 348.5H365.51C364.51 348.1 362.46 346.4 362.6 345.5C362.6 345.27 362.77 344.99 363.3 344.92C363.493 344.892 363.691 344.903 363.88 344.953C364.069 345.002 364.246 345.09 364.4 345.21C365.48 346.03 365.79 348.21 365.8 348.34C365.806 348.375 365.801 348.41 365.787 348.442C365.773 348.474 365.749 348.501 365.72 348.52C365.676 348.528 365.63 348.521 365.59 348.5V348.5ZM363.45 345.25H363.34C362.99 345.25 362.97 345.43 362.96 345.48C362.96 346.04 364.28 347.38 365.32 347.95C365.187 347.021 364.771 346.155 364.13 345.47C363.938 345.315 363.696 345.237 363.45 345.25Z" fill="#D36681"/>
<path d="M375.29 352.38L367.09 352.71L360.51 316.55L359.92 313.28L359.52 311.09H371.86L371.92 311.86L372.28 316.08L375.29 352.38Z" fill="#FFB573"/>
<path d="M366.41 347.3L375.41 346.95C375.573 346.941 375.734 346.988 375.866 347.085C375.997 347.182 376.091 347.322 376.13 347.48L378.04 354.71C378.123 355.016 378.081 355.343 377.923 355.618C377.766 355.894 377.506 356.096 377.2 356.18C377.117 356.194 377.033 356.194 376.95 356.18C373.71 356.26 370.83 356.18 366.81 356.36C362.06 356.54 363.29 357.07 357.71 357.36C354.35 357.54 353.58 353.74 355 353.5C361.49 352.42 362.09 350.42 364.52 347.99C365.047 347.541 365.718 347.296 366.41 347.3V347.3Z" fill="#263238"/>
<path d="M356 198.31H355.37L354.87 198.23L353.92 198.08C353.3 197.97 352.71 197.84 352.11 197.71C350.93 197.44 349.78 197.11 348.65 196.71C346.407 195.999 344.212 195.144 342.08 194.15C339.963 193.153 337.909 192.028 335.93 190.78C334.93 190.19 333.93 189.53 333.02 188.88C332.11 188.23 331.2 187.54 330.2 186.78C327.938 184.926 326.128 182.579 324.91 179.92C323.879 177.743 323.059 175.473 322.46 173.14C321.9 170.93 321.16 156.86 321.15 154.61L326.78 152.22C328.08 156.03 329.59 166.32 331.27 169.97C332.057 171.642 332.966 173.253 333.99 174.79C334.699 175.932 335.644 176.911 336.76 177.66C337.51 178.09 338.4 178.66 339.22 179.09C340.04 179.52 340.9 180.03 341.77 180.44C342.64 180.85 343.49 181.29 344.37 181.67C345.25 182.05 346.13 182.42 347 182.82C348.77 183.51 350.55 184.15 352.35 184.68C353.23 184.96 357.12 183.04 358 183.28L359.3 183.58L360.36 183.8L356 198.31Z" fill="#263238"/>
<path d="M326.79 152.24L325.28 145.66L316.73 148.98C317.408 151.192 318.819 153.106 320.73 154.41C321.289 154.762 321.945 154.929 322.604 154.886C323.263 154.843 323.892 154.592 324.4 154.17L326.79 152.24Z" fill="#FFB573"/>
<path d="M319.07 141.6L313.81 145.95L316.73 148.98L325.27 145.65L319.07 141.6Z" fill="#FFB573"/>
<path d="M350.42 191.5C349.58 199.23 349.22 215.2 353.42 244.77L397.32 243.02C397.32 236.81 393.06 218.35 396.43 190.57C396.682 188.577 396.133 186.566 394.903 184.978C393.673 183.389 391.863 182.354 389.87 182.1H389.6C387.45 181.92 385.06 181.78 382.73 181.76C376.498 181.646 370.264 181.894 364.06 182.5C361.67 182.81 359.34 183.28 357.34 183.73C355.524 184.149 353.883 185.122 352.643 186.514C351.404 187.905 350.627 189.648 350.42 191.5Z" fill="#263238"/>
<path d="M378.44 167.56C378.15 173.31 378.74 179.96 382.17 182.72C377.055 186.652 371.404 189.834 365.39 192.17C359.3 187.39 362.39 183.87 362.39 183.87C368.06 181.1 367.88 176.87 366.39 172.31L375 165.5C376.4 164.18 378.54 165.44 378.44 167.56Z" fill="#FFB573"/>
<path opacity="0.2" d="M378.44 167.56C378.55 165.45 376.44 164.18 374.97 165.48L366.38 172.34C367.169 174.351 367.411 176.535 367.08 178.67C369.013 178.836 370.958 178.534 372.75 177.79C375.072 176.88 377.066 175.291 378.47 173.23C378.34 171.343 378.33 169.449 378.44 167.56V167.56Z" fill="black"/>
<path d="M388.31 161.01C387.87 162.01 387.46 162.94 387.09 163.83C384.54 169.68 382.75 173.4 377.71 175.47C369.01 179.05 359.57 171.68 360.27 163.26C360.9 155.67 366.18 144.66 375.76 144.68C383.25 144.68 388.76 150.07 389.17 156.01C389.307 157.722 389.012 159.442 388.31 161.01V161.01Z" fill="#FFB573"/>
<path d="M365.57 163.81C366.454 164.374 367.461 164.717 368.505 164.809C369.55 164.902 370.601 164.741 371.57 164.34C371.596 164.327 371.62 164.309 371.639 164.287C371.658 164.264 371.673 164.239 371.682 164.211C371.691 164.183 371.695 164.153 371.693 164.124C371.691 164.095 371.683 164.066 371.67 164.04C371.657 164.014 371.639 163.99 371.617 163.971C371.594 163.952 371.569 163.937 371.541 163.928C371.513 163.919 371.483 163.915 371.454 163.917C371.425 163.919 371.396 163.927 371.37 163.94V163.94C370.47 164.292 369.499 164.427 368.537 164.335C367.575 164.243 366.647 163.926 365.83 163.41C365.777 163.38 365.714 163.371 365.654 163.386C365.595 163.401 365.543 163.438 365.51 163.49C365.493 163.515 365.481 163.543 365.475 163.573C365.468 163.602 365.468 163.633 365.474 163.662C365.479 163.692 365.491 163.72 365.507 163.746C365.524 163.771 365.545 163.793 365.57 163.81V163.81Z" fill="#263238"/>
<path d="M373.56 156.5C373.18 157.12 372.56 157.42 372.15 157.17C371.74 156.92 371.72 156.23 372.15 155.61C372.58 154.99 373.15 154.69 373.56 154.94C373.97 155.19 373.94 155.92 373.56 156.5Z" fill="#263238"/>
<path d="M366.47 153.67C366.09 154.29 365.47 154.67 365.06 154.34C364.65 154.01 364.62 153.4 365 152.78C365.38 152.16 366 151.78 366.42 152.11C366.84 152.44 366.84 153.06 366.47 153.67Z" fill="#263238"/>
<path d="M376.39 155.27C376.32 155.23 376.263 155.171 376.224 155.101C376.185 155.03 376.167 154.95 376.17 154.87C376.206 154.34 376.115 153.808 375.902 153.321C375.69 152.833 375.363 152.404 374.95 152.07C374.904 152.037 374.865 151.996 374.835 151.948C374.805 151.9 374.785 151.846 374.776 151.791C374.766 151.735 374.768 151.678 374.781 151.623C374.794 151.568 374.817 151.516 374.85 151.47C374.913 151.379 375.009 151.317 375.117 151.296C375.226 151.275 375.338 151.298 375.43 151.36V151.36C375.958 151.78 376.377 152.321 376.652 152.937C376.927 153.553 377.05 154.227 377.01 154.9C377 155.015 376.945 155.121 376.857 155.196C376.769 155.271 376.655 155.308 376.54 155.3H376.38L376.39 155.27Z" fill="#263238"/>
<path d="M365.1 149.28C365.019 149.247 364.95 149.192 364.9 149.12C364.862 149.074 364.835 149.021 364.82 148.963C364.804 148.906 364.801 148.846 364.811 148.788C364.82 148.729 364.842 148.673 364.875 148.623C364.907 148.574 364.95 148.532 365 148.5V148.5C365.56 148.121 366.203 147.882 366.874 147.802C367.546 147.722 368.227 147.803 368.86 148.04C368.961 148.093 369.036 148.184 369.072 148.292C369.107 148.4 369.099 148.518 369.05 148.62C369 148.717 368.916 148.791 368.814 148.828C368.712 148.865 368.6 148.862 368.5 148.82V148.82C367.994 148.632 367.45 148.571 366.916 148.64C366.381 148.71 365.871 148.909 365.43 149.22C365.331 149.279 365.214 149.3 365.1 149.28Z" fill="#263238"/>
<path d="M367.63 156.9C366.11 157.9 365.93 157.72 364.1 158.36C364.674 159.135 365.528 159.655 366.48 159.81L367.63 156.9Z" fill="#FF5652"/>
<path opacity="0.3" d="M388.31 161.01C387.87 162.01 387.46 162.94 387.09 163.83C386.401 163.566 385.649 163.513 384.93 163.68C383.77 164.011 382.751 164.713 382.03 165.68C382.666 162.778 383.525 159.93 384.6 157.16C384.95 156.27 385.19 154.79 386.37 154.91C387.372 155.082 388.326 155.463 389.17 156.03C389.304 157.736 389.008 159.448 388.31 161.01V161.01Z" fill="black"/>
<path d="M387 168.28C385.882 169.547 384.323 170.341 382.64 170.5C380.55 170.61 380.26 168.42 381.47 166.5C382.55 164.77 384.96 162.63 386.75 163.41C388.54 164.19 388.48 166.67 387 168.28Z" fill="#FFB573"/>
<path opacity="0.2" d="M371.92 311.86L372.28 316.08L360.71 317.66L359.92 313.28L359.22 313.36L358.65 306.51L358.6 305.91L372.84 305.34L373.21 307.39L373.95 311.62L371.92 311.86Z" fill="black"/>
<path d="M353.41 244.78C351.471 259.787 351.069 274.952 352.21 290.04C353.21 300.85 355.21 306.31 355.21 306.31L373.21 307.39C373.21 307.39 373.61 301.66 373.75 291.57C373.32 263.64 382.28 243.62 382.28 243.62L353.41 244.78Z" fill="#D36681"/>
<path opacity="0.3" d="M376.88 257.01C369.65 258.88 371.75 271.07 374.22 279.29C374.811 271.787 376.049 264.35 377.92 257.06L376.88 257.01Z" fill="black"/>
<path d="M428.63 330.86C428.03 331.73 427.34 332.49 426.75 332.5C426.599 332.496 426.453 332.447 426.33 332.36C426.208 332.273 426.113 332.151 426.06 332.01C426.009 331.888 425.983 331.757 425.983 331.625C425.983 331.493 426.009 331.362 426.06 331.24C426.54 329.9 429.51 328.47 429.65 328.4C429.698 328.382 429.751 328.382 429.799 328.401C429.847 328.419 429.886 328.454 429.91 328.5C429.93 328.551 429.93 328.609 429.91 328.66C429.551 329.431 429.123 330.167 428.63 330.86ZM426.63 331.03C426.551 331.128 426.49 331.24 426.45 331.36C426.418 331.434 426.401 331.514 426.401 331.595C426.401 331.676 426.418 331.756 426.45 331.83C426.57 332.08 426.7 332.11 426.78 332.11C427.44 332.11 428.63 330.39 429.32 329.01C428.29 329.491 427.366 330.171 426.6 331.01L426.63 331.03Z" fill="#D36681"/>
<path d="M429.86 328.69H429.79C428.85 329.25 426.28 329.86 425.61 329.2C425.45 329.05 425.31 328.77 425.56 328.3C425.657 328.126 425.788 327.974 425.947 327.854C426.105 327.733 426.287 327.647 426.48 327.6C427.78 327.23 429.74 328.3 429.82 328.34C429.848 328.359 429.872 328.384 429.889 328.414C429.906 328.443 429.917 328.476 429.92 328.51C429.916 328.574 429.895 328.636 429.86 328.69ZM426 328.5L425.93 328.6C425.76 328.91 425.87 329.01 425.93 329.03C426.34 329.42 428.25 329.13 429.33 328.63C428.502 328.179 427.557 327.991 426.62 328.09C426.368 328.142 426.146 328.289 426 328.5Z" fill="#D36681"/>
<path d="M438.81 323.27L434.14 330.03L398.83 306.18L407.38 296.76L438.81 323.27Z" fill="#FFB573"/>
<path d="M429.41 327.32L434.51 319.94C434.601 319.804 434.737 319.704 434.894 319.657C435.05 319.609 435.219 319.618 435.37 319.68L442.3 322.5C442.446 322.557 442.579 322.643 442.692 322.752C442.805 322.861 442.895 322.991 442.958 323.136C443.02 323.28 443.053 323.435 443.055 323.592C443.057 323.748 443.028 323.904 442.97 324.05C442.937 324.14 442.89 324.225 442.83 324.3C440.95 326.93 438.14 330.67 435.83 334.02C433.13 337.94 435.11 335.52 431.94 340.11C430.02 342.89 426.69 341.72 427.23 340.38C429.73 334.29 429.32 332.71 428.83 329.32C428.762 328.604 428.97 327.889 429.41 327.32V327.32Z" fill="#263238"/>
<path opacity="0.2" d="M395.83 304L404.63 310.1L411.45 300.2L403.08 293.5L395.83 304Z" fill="black"/>
<path d="M369 244.16C369 244.16 373.79 268.56 384.15 290.3C391.87 304.18 396.26 305.3 396.26 305.3L409.64 295.21C409.64 295.21 407.46 291.74 405.36 283.35C399.15 256.26 397.36 242.99 397.36 242.99L369 244.16Z" fill="#D36681"/>
<path d="M391.16 305.6C391.16 305.66 395.89 309.01 395.89 309.01L412.25 295.67L408.8 291.78L391.16 305.6Z" fill="#263238"/>
<path d="M375.48 304.18V311.44L373.96 311.62L371.96 311.86L359.96 313.28L359.26 313.36L355.19 313.84C355.19 313.84 353.56 305.9 353.64 305.9L355.04 305.79L373.43 304.35L375.48 304.18Z" fill="#263238"/>
<path d="M392.062 202.915L365.778 207.007L371.322 242.609L397.605 238.516L392.062 202.915Z" fill="#D36681"/>
<path opacity="0.3" d="M392.062 202.915L365.778 207.007L371.322 242.609L397.605 238.516L392.062 202.915Z" fill="black"/>
<path d="M389.88 204.97L392.06 202.92L397.61 238.52L395.42 240.58L389.88 204.97Z" fill="#D36681"/>
<path d="M389.885 204.976L363.601 209.068L369.144 244.669L395.428 240.577L389.885 204.976Z" fill="#D36681"/>
<path opacity="0.2" d="M389.885 204.976L363.601 209.068L369.144 244.669L395.428 240.577L389.885 204.976Z" fill="white"/>
<path d="M365.87 207.56C365.903 207.69 365.9 207.827 365.861 207.956C365.822 208.084 365.749 208.2 365.65 208.29C365.007 208.607 364.338 208.868 363.65 209.07L389.93 204.97L391.39 203.6L365.87 207.56Z" fill="#D36681"/>
<g opacity="0.8">
<path opacity="0.8" d="M365.87 207.56C365.903 207.69 365.9 207.827 365.861 207.956C365.822 208.084 365.749 208.2 365.65 208.29C365.007 208.607 364.338 208.868 363.65 209.07L389.93 204.97L391.39 203.6L365.87 207.56Z" fill="white"/>
</g>
<path d="M393.72 183.75C397.602 185.448 400.869 188.296 403.08 191.91C403.82 192.84 405.81 198.28 407.08 200.2C408.35 202.12 409.54 204.05 410.66 206.04C411.78 208.03 412.88 210.04 413.92 212.04L414.12 212.42L414.47 213.14C414.74 213.752 414.951 214.388 415.1 215.04C415.411 216.47 415.359 217.955 414.95 219.36C414.61 220.516 414.049 221.596 413.3 222.54C412.739 223.26 412.098 223.914 411.39 224.49C410.265 225.425 409.029 226.218 407.71 226.85C406.571 227.42 405.399 227.92 404.2 228.35C401.957 229.139 399.661 229.771 397.33 230.24C395.054 230.723 392.749 231.057 390.43 231.24L389.07 225.24C392.913 223.651 396.659 221.838 400.29 219.81C401.102 219.349 401.887 218.842 402.64 218.29C403.243 217.847 403.802 217.348 404.31 216.8C404.68 216.38 404.65 216.03 404.39 216.56C404.276 216.88 404.242 217.223 404.29 217.56C404.304 217.682 404.327 217.802 404.36 217.92V217.92L404.3 217.83L404.09 217.51C401.783 213.95 399.383 210.46 396.89 207.04C395.64 205.33 394.38 203.63 393.07 201.95L391.16 199.45L389.29 197.07L393.72 183.75Z" fill="#263238"/>
<path d="M394.13 225.21L387.52 223.86L386.94 233C386.94 233 392.17 233.88 395.38 230L394.13 225.21Z" fill="#FFB573"/>
<path d="M381.69 228.14L383 231.5C383.189 231.99 383.529 232.407 383.972 232.689C384.415 232.972 384.936 233.105 385.46 233.07L386.94 232.96L387.51 223.81L383.38 224.87C383.063 224.946 382.764 225.084 382.501 225.277C382.238 225.469 382.016 225.712 381.847 225.991C381.679 226.27 381.568 226.58 381.52 226.903C381.472 227.225 381.489 227.554 381.57 227.87C381.603 227.963 381.643 228.053 381.69 228.14Z" fill="#FFB573"/>
<path d="M363.9 181.38C363.74 181.726 363.657 182.103 363.657 182.485C363.657 182.867 363.74 183.244 363.9 183.59C364.44 184.45 365.7 184.41 366.71 184.26L379.97 182.26C380.472 182.253 380.968 182.141 381.424 181.931C381.881 181.721 382.288 181.417 382.62 181.04C383.35 179.91 382.51 178.31 381.28 177.75C379.995 177.295 378.604 177.226 377.28 177.55C374.425 178.108 371.535 178.469 368.63 178.63C366.15 178.66 364.79 178.67 363.9 181.38Z" fill="#263238"/>
<path d="M359.54 187.27C359.479 188.423 359.725 189.572 360.251 190.599C360.778 191.627 361.568 192.497 362.54 193.12C364.514 194.338 366.854 194.823 369.15 194.49C374.022 193.605 378.535 191.334 382.15 187.95C383.25 186.77 384.15 185.15 383.73 183.6C383.512 182.993 383.146 182.45 382.666 182.019C382.186 181.587 381.607 181.282 380.98 181.13C379.724 180.846 378.428 180.782 377.15 180.94C372.56 181.29 360.18 180.64 359.54 187.27Z" fill="#263238"/>
<path d="M393.2 147.44C392.244 147.797 391.34 148.277 390.51 148.87H390.46C390.711 147.72 390.711 146.53 390.46 145.38C390.452 145.348 390.438 145.318 390.418 145.291C390.399 145.264 390.374 145.242 390.346 145.224C390.318 145.207 390.286 145.196 390.253 145.191C390.221 145.186 390.187 145.187 390.155 145.195C390.123 145.203 390.093 145.217 390.066 145.237C390.039 145.256 390.017 145.281 389.999 145.309C389.982 145.338 389.971 145.369 389.966 145.402C389.961 145.434 389.962 145.468 389.97 145.5C390.154 146.492 390.154 147.508 389.97 148.5C388.481 147.446 386.898 146.532 385.24 145.77C381.51 143.89 380.9 145.53 372.42 138.99C371.867 139.308 371.252 139.502 370.617 139.561C369.982 139.62 369.342 139.541 368.74 139.33C369.261 140.572 370.082 141.665 371.13 142.51C369.63 142.65 368.75 140.64 367.51 140.05C366.115 140.442 364.63 140.368 363.28 139.84C364.89 144.64 366.9 144.78 371.33 146.45C373.91 147.45 376.33 149.62 378.61 151.15L386.26 156.3C387.35 157.03 388.58 157.8 389.88 157.6C391.6 157.32 392.61 155.43 392.69 153.7C392.73 152.865 392.584 152.032 392.262 151.261C391.94 150.489 391.451 149.799 390.83 149.24C391.598 148.709 392.428 148.273 393.3 147.94C393.333 147.931 393.363 147.915 393.389 147.894C393.415 147.873 393.436 147.846 393.452 147.816C393.467 147.786 393.475 147.753 393.477 147.719C393.478 147.685 393.472 147.651 393.46 147.62C393.442 147.566 393.408 147.518 393.361 147.486C393.314 147.453 393.257 147.437 393.2 147.44V147.44Z" fill="#263238"/>
<path d="M332.52 144.19L310.88 150.69C310.765 150.715 310.645 150.715 310.53 150.69L308.53 150.5L309.93 149.25C310.02 149.169 310.125 149.108 310.24 149.07L331.76 141.93C331.979 141.858 332.217 141.873 332.426 141.972C332.634 142.07 332.797 142.245 332.88 142.46L333.07 142.96C333.124 143.076 333.153 143.202 333.154 143.33C333.155 143.458 333.129 143.584 333.077 143.701C333.024 143.818 332.948 143.922 332.852 144.006C332.756 144.091 332.642 144.153 332.52 144.19V144.19Z" fill="#263238"/>
<path d="M321.76 147.42L316.73 146.33L315.36 147.42L320.85 151.39L321.76 147.42Z" fill="#FFB573"/>
<path d="M169.91 57.56C168.66 57.6831 167.453 58.0848 166.378 58.7354C165.304 59.3861 164.389 60.2693 163.7 61.32C162.345 63.4372 161.563 65.8699 161.43 68.38C161.205 70.3252 161.431 72.2962 162.09 74.14C162.428 75.0564 162.96 75.8887 163.651 76.5792C164.341 77.2698 165.174 77.8023 166.09 78.14C168.57 78.94 171.37 77.79 173.15 75.88C174.839 73.8574 176.013 71.4555 176.57 68.88C177.88 64.22 176 57.22 169.91 57.56Z" fill="#263238"/>
<path d="M201.4 362.91C195.79 363.37 191.73 360.86 190.57 358.21C189.41 355.56 187.5 352.89 187.25 355.36C187.137 357.877 187.173 360.398 187.36 362.91L186.49 363C186.49 363 185.49 354.76 185.14 351.08C184.97 349.911 184.88 348.731 184.87 347.55C185.032 346.919 185.32 346.328 185.717 345.813C186.114 345.297 186.612 344.867 187.18 344.55L194.02 345.55C198.15 356.08 204.81 359.02 204.81 359.02C206.127 359.291 207.391 359.778 208.55 360.46C210.57 361.78 207.94 362.35 201.4 362.91Z" fill="#263238"/>
<path d="M187.55 347.9C188.457 349.971 189.891 351.767 191.71 353.11C193.12 354.06 193.82 358.41 197.05 359.58C198.309 360.061 199.66 360.253 201.003 360.143C202.346 360.032 203.647 359.621 204.81 358.94C204.81 358.94 198.16 356 194 345.5C194 345.5 187.05 346.23 187.55 347.9Z" fill="#FFB573"/>
<path d="M164.45 362.27C159.14 360.47 156.45 356.54 156.45 353.66C156.45 350.78 155.75 347.54 154.54 349.66C153.432 351.934 152.461 354.271 151.63 356.66L150.81 356.41C150.81 356.41 153.18 348.41 154.3 344.95C154.612 343.809 154.999 342.69 155.46 341.6C155.86 341.082 156.36 340.65 156.93 340.328C157.501 340.007 158.13 339.804 158.78 339.73L164.66 343.31C164.27 354.61 169.21 359.96 169.21 359.96C170.31 360.735 171.273 361.688 172.06 362.78C173.26 364.93 170.62 364.4 164.45 362.27Z" fill="#263238"/>
<path d="M157.71 343.02C157.72 345.284 158.327 347.506 159.47 349.46C160.37 350.88 159.29 355.16 161.78 357.51C162.743 358.455 163.907 359.171 165.184 359.606C166.462 360.04 167.82 360.182 169.16 360.02C169.16 360.02 164.16 354.67 164.61 343.37C164.61 343.37 157.83 341.31 157.71 343.02Z" fill="#FFB573"/>
<path d="M213.72 116.6L214.07 117.02L214.53 117.54C214.86 117.89 215.18 118.26 215.53 118.61C216.22 119.33 216.97 120.02 217.72 120.74C219.244 122.138 220.84 123.457 222.5 124.69C224.19 125.94 225.96 127.1 227.75 128.24C228.75 128.77 229.57 129.34 230.51 129.86L232.68 131.06C232.995 131.199 233.35 131.22 233.68 131.12C234.38 130.91 238.4 126.93 239.68 125.46C242.51 122.2 248.28 117.23 250.59 113.58L251.77 117.86C250.142 122.32 247.976 126.564 245.32 130.5C243.881 132.621 242.166 134.542 240.22 136.21C239.043 137.197 237.716 137.99 236.29 138.56C234.006 139.479 231.451 139.461 229.18 138.51L228.29 138.11L226.67 137.38C225.57 136.89 224.53 136.32 223.47 135.78C221.345 134.653 219.285 133.408 217.3 132.05C215.303 130.678 213.387 129.192 211.56 127.6C210.626 126.783 209.735 125.918 208.89 125.01C208.45 124.57 208.02 124.09 207.6 123.61L206.97 122.85C206.75 122.56 206.58 122.35 206.26 121.92L213.72 116.6Z" fill="#FFB573"/>
<path d="M250.6 113.58L259.91 107.81L259.29 116.88C259.29 116.88 254.11 119.49 251.47 117.75L250.6 113.58Z" fill="#FFB573"/>
<path d="M266.53 107.21L267.17 114.81L259.29 116.87L259.91 107.81L266.53 107.21Z" fill="#FFB573"/>
<path d="M308.645 65.5186L254.558 120.212L255.27 120.915L309.356 66.2218L308.645 65.5186Z" fill="#263238"/>
<path d="M259 115.13L260.46 115.29C261.204 115.364 261.954 115.337 262.69 115.21L263.37 114.61C263.381 114.339 263.303 114.072 263.147 113.85C262.992 113.628 262.768 113.463 262.51 113.38L261.43 113.03L256.68 110.42L255.33 112.26V115.17L255.78 115.49C256.27 115.828 256.866 115.978 257.457 115.912C258.049 115.846 258.597 115.568 259 115.13V115.13Z" fill="#FFB573"/>
<path d="M204.31 106.91C208.06 106.23 234.51 129.17 234.51 129.17L226.67 140.67C226.67 140.67 197.74 120.53 198.67 115.67C199.55 110.6 198.84 107.91 204.31 106.91Z" fill="#263238"/>
<path opacity="0.2" d="M207.64 114.29L207.36 126.29C210.36 128.62 221.2 136.93 221.2 136.93L207.64 114.29Z" fill="black"/>
<path d="M187.55 347.9L195.26 348.27L198.36 325.57L189.49 324.69L187.55 347.9Z" fill="#FFB573"/>
<path opacity="0.2" d="M198.36 325.57L196.91 336.17L188.6 335.36L189.48 324.7L198.36 325.57Z" fill="black"/>
<path d="M157.71 343.02L164.69 344.34L167.5 323.77L158.63 322.9L157.71 343.02Z" fill="#FFB573"/>
<path opacity="0.2" d="M167.5 324.1L165.99 335.16L158.14 333.94L158.62 323.23L167.5 324.1Z" fill="black"/>
<path d="M203.67 159.16H197.06L170.25 159.23C170.79 145.35 170.73 134.12 164.8 106.82C164.652 106.147 164.657 105.45 164.814 104.779C164.971 104.108 165.275 103.481 165.706 102.943C166.136 102.405 166.681 101.97 167.302 101.671C167.922 101.371 168.601 101.213 169.29 101.21C172.06 101.21 175.53 101.31 179.05 101.67C184.618 102.122 190.147 102.957 195.6 104.17L196.23 104.32C198.969 105.027 201.666 105.885 204.31 106.89C206.02 107.48 208.1 112.15 209.97 117.49C215 126.12 208.85 133.4 203.67 159.16Z" fill="white"/>
<path d="M204.91 160.9C204.91 160.9 223.67 215.17 223.22 241.26C222.96 256.21 221.84 284.07 217.33 303.66C213.65 319.66 198.65 329.86 198.65 329.86L186.65 329.15C186.65 329.15 180.16 304.75 181.29 295.04C183.54 275.72 190.2 261.19 189.4 243.45C188.12 214.38 179.52 160.45 179.52 160.45L204.91 160.9Z" fill="#D36681"/>
<path opacity="0.2" d="M183.77 317.9C183.77 317.9 183.77 317.79 183.85 317.79C194.56 317.79 206.85 292.79 206.26 248.58L201.36 211.5L183.77 317.9Z" fill="black"/>
<path d="M195.3 161.04C195.3 161.04 206.71 220.72 203.1 246.57C201.04 261.38 196.55 288.89 189.7 307.8C184.12 323.22 168 331.55 168 331.55L156.14 329.39C156.14 329.39 152.65 304.39 154.94 294.88C159.51 275.97 167.94 262.35 169.23 244.64C171.47 215.64 169.46 161.04 169.46 161.04H195.3Z" fill="#D36681"/>
<path d="M184.23 332.28L201.18 333.29L202.73 328.19L183.79 326.44L184.23 332.28Z" fill="#263238"/>
<path d="M155.14 330.71L171.88 333.53L173.97 328.63L155.32 324.86L155.14 330.71Z" fill="#263238"/>
<path d="M170.12 157.55L169.2 160.8C169.07 161.06 169.37 161.31 169.79 161.31L204.28 161.26C204.61 161.26 204.89 161.1 204.91 160.9L205.23 157.64C205.23 157.42 204.96 157.23 204.6 157.23L170.71 157.28C170.597 157.269 170.482 157.289 170.379 157.336C170.275 157.384 170.186 157.457 170.12 157.55V157.55Z" fill="#D36681"/>
<g opacity="0.5">
<path opacity="0.5" d="M170.12 157.55L169.2 160.8C169.07 161.06 169.37 161.31 169.79 161.31L204.28 161.26C204.61 161.26 204.89 161.1 204.91 160.9L205.23 157.64C205.23 157.42 204.96 157.23 204.6 157.23L170.71 157.28C170.597 157.269 170.482 157.289 170.379 157.336C170.275 157.384 170.186 157.457 170.12 157.55V157.55Z" fill="white"/>
</g>
<path d="M176.71 161.61H175.71C175.53 161.61 175.37 161.51 175.39 161.39L175.84 157.16C175.84 157.04 176.02 156.94 176.22 156.94H177.22C177.41 156.94 177.57 157.04 177.55 157.17L177.1 161.39C177.07 161.5 176.9 161.61 176.71 161.61Z" fill="#D36681"/>
<path d="M201.61 161.61H200.61C200.42 161.61 200.27 161.51 200.28 161.39L200.73 157.17C200.73 157.04 200.92 156.94 201.11 156.94H202.11C202.3 156.94 202.45 157.04 202.44 157.16L201.99 161.38C202 161.5 201.81 161.61 201.61 161.61Z" fill="#D36681"/>
<path d="M190.21 161.58H189.21C189.02 161.58 188.87 161.48 188.89 161.36L189.34 157.14C189.34 157.01 189.52 156.91 189.71 156.92H190.71C190.9 156.92 191.06 157.02 191.04 157.14L190.59 161.36C190.57 161.5 190.41 161.59 190.21 161.58Z" fill="#D36681"/>
<path d="M180.61 83.5C181.67 88.94 182.71 98.78 179.02 101.75C179.02 101.75 180.49 107.33 190.38 108.82C201.3 110.47 195.57 104.25 195.57 104.25C189.63 101.89 189.77 97.6 190.8 93.64L180.61 83.5Z" fill="#FFB573"/>
<path opacity="0.2" d="M184.76 87.63L190.76 93.63C190.51 94.5566 190.342 95.5037 190.26 96.46C187.99 95.8 184.33 93.29 184.08 90.89C184.084 89.7685 184.315 88.6595 184.76 87.63V87.63Z" fill="black"/>
<path d="M173.94 76.6C176.61 85.07 177.56 88.71 183.04 92.04C191.23 97.04 201.04 91.91 200.95 82.83C200.87 74.65 196.52 62.19 187.22 60.83C185.179 60.5259 183.094 60.749 181.163 61.478C179.232 62.207 177.52 63.4178 176.189 64.9952C174.858 66.5726 173.953 68.4642 173.559 70.4901C173.166 72.5161 173.297 74.609 173.94 76.57V76.6Z" fill="#FFB573"/>
<path d="M194.12 75.28C195.067 76.7669 196.218 78.1133 197.54 79.28C197.231 79.6123 196.854 79.8738 196.435 80.0464C196.015 80.2191 195.563 80.2987 195.11 80.28L194.12 75.28Z" fill="#ED893E"/>
<path d="M193.17 84.8C193.508 84.7661 193.843 84.7025 194.17 84.61C194.196 84.6041 194.22 84.5932 194.241 84.578C194.263 84.5627 194.281 84.5434 194.295 84.5211C194.309 84.4988 194.318 84.474 194.322 84.4481C194.327 84.4221 194.326 84.3956 194.32 84.37V84.37C194.306 84.3169 194.272 84.2711 194.226 84.2415C194.18 84.2119 194.124 84.2007 194.07 84.21C193.208 84.4569 192.299 84.495 191.419 84.3211C190.539 84.1472 189.713 83.7664 189.01 83.21C188.969 83.1721 188.916 83.1509 188.86 83.1509C188.804 83.1509 188.751 83.1721 188.71 83.21C188.671 83.2524 188.65 83.3077 188.65 83.365C188.65 83.4224 188.671 83.4776 188.71 83.52C189.331 84.0188 190.046 84.3888 190.811 84.6086C191.577 84.8284 192.379 84.8934 193.17 84.8V84.8Z" fill="#263238"/>
<path d="M169.33 63.75C168.228 64.465 167.313 65.4337 166.662 66.5751C166.011 67.7165 165.644 68.9973 165.59 70.31C165.544 70.8082 165.623 71.3101 165.82 71.77C165.919 71.9994 166.076 72.1988 166.276 72.348C166.476 72.4972 166.712 72.591 166.96 72.62C167.72 72.62 168.29 71.95 168.7 71.31L170.64 68.31C171.439 67.3318 172.111 66.2566 172.64 65.11C173.29 63.14 170.52 63 169.33 63.75Z" fill="#D36681"/>
<path d="M172 61.71C166.68 67.84 164.31 84.83 179.86 89.57C182.46 87.57 178.26 83.77 176.48 79.03C175.32 75.92 181.24 70.13 183.56 67.76C185.88 65.39 187.99 61.95 191.26 62.5C192.088 62.7719 192.978 62.7963 193.82 62.57C196.41 61.4 195.15 59.85 193.82 58.76C191.761 57.2512 189.317 56.3567 186.77 56.18C184.046 55.8661 181.287 56.2037 178.719 57.1652C176.151 58.1266 173.848 59.6843 172 61.71V61.71Z" fill="#263238"/>
<path d="M175.34 79.5L174.91 79.04C174.91 78.54 174.91 78.54 183.59 75.81L183.89 76.81C180.89 77.74 176.04 79.28 175.66 79.47L175.45 79.03L175.34 79.5Z" fill="#D36681"/>
<path d="M173 83.71C173.979 85.1205 175.473 86.0901 177.16 86.41C179.4 86.81 180.27 84.75 179.49 82.75C178.77 80.96 176.73 78.58 174.57 79.1C174.2 79.1945 173.852 79.361 173.546 79.5901C173.24 79.8192 172.982 80.1063 172.787 80.435C172.592 80.7637 172.463 81.1276 172.409 81.506C172.355 81.8843 172.375 82.2697 172.47 82.64C172.575 83.0279 172.755 83.3915 173 83.71Z" fill="#FFB573"/>
<path d="M188.17 60.18C189.38 63.25 192.87 62.85 195.46 66.07C197.04 68.07 200.16 61.9 195.92 59.46C191.68 57.02 186.28 55.36 188.17 60.18Z" fill="#263238"/>
<path d="M184.5 73.17C184.587 73.185 184.676 73.1693 184.753 73.1255C184.83 73.0817 184.889 73.0126 184.92 72.93C185.75 71.1 188.21 70.65 188.23 70.64C188.285 70.6304 188.337 70.61 188.383 70.5801C188.43 70.5502 188.47 70.5114 188.502 70.4658C188.534 70.4203 188.556 70.3689 188.568 70.3147C188.579 70.2605 188.58 70.2045 188.57 70.15C188.546 70.0402 188.481 69.9437 188.388 69.8805C188.295 69.8173 188.181 69.7921 188.07 69.81C187.95 69.81 185.14 70.4 184.15 72.6C184.126 72.6499 184.113 72.704 184.11 72.7591C184.107 72.8143 184.115 72.8695 184.134 72.9215C184.152 72.9735 184.181 73.0213 184.218 73.0623C184.255 73.1032 184.3 73.1364 184.35 73.16H184.5V73.17Z" fill="#263238"/>
<path d="M197.5 69.5C197.593 69.5065 197.685 69.4821 197.762 69.4306C197.84 69.3791 197.898 69.3034 197.927 69.2154C197.957 69.1274 197.957 69.032 197.926 68.9442C197.896 68.8563 197.838 68.781 197.76 68.73C197.206 68.351 196.57 68.1089 195.904 68.0237C195.238 67.9385 194.562 68.0127 193.93 68.24C193.826 68.2842 193.743 68.3678 193.7 68.4727C193.657 68.5776 193.657 68.6952 193.7 68.8C193.721 68.8526 193.752 68.9004 193.792 68.9404C193.832 68.9804 193.879 69.0117 193.932 69.0323C193.985 69.053 194.041 69.0626 194.097 69.0604C194.154 69.0583 194.209 69.0446 194.26 69.02V69.02C194.758 68.8486 195.289 68.7974 195.81 68.8703C196.332 68.9433 196.828 69.1385 197.26 69.44C197.335 69.4773 197.417 69.4978 197.5 69.5V69.5Z" fill="#263238"/>
<path d="M238.61 124.24L232.76 127.57L226.67 140.67C226.67 140.67 232.55 144.41 237.18 141.38C241.81 138.35 238.61 124.24 238.61 124.24Z" fill="#263238"/>
<path d="M197.09 72.89C197.57 72.8 198.09 73.34 198.2 74.08C198.31 74.82 198.04 75.5 197.56 75.58C197.08 75.66 196.56 75.13 196.45 74.39C196.34 73.65 196.61 72.98 197.09 72.89Z" fill="#263238"/>
<path d="M198.57 72.16L196.88 72.99C197.9 73.71 198.57 72.16 198.57 72.16Z" fill="#263238"/>
<path d="M188.72 74.6C189.2 74.51 189.72 75.05 189.83 75.79C189.94 76.53 189.67 77.21 189.19 77.29C188.71 77.37 188.19 76.84 188.08 76.1C187.97 75.36 188.24 74.69 188.72 74.6Z" fill="#263238"/>
<path d="M190.2 73.87L188.51 74.7C189.53 75.42 190.2 73.87 190.2 73.87Z" fill="#263238"/>
<path d="M163.91 59.9C163.99 57.97 164.91 55.65 163.74 54.14C165.83 55.83 165.41 56.8 165.59 57.29C165.473 55.643 165.092 54.0256 164.46 52.5C165.806 53.5769 166.692 55.1246 166.94 56.83C166.735 55.0853 166.34 53.3683 165.76 51.71C167.462 53.2849 168.49 55.4557 168.63 57.77C168.63 56.71 168.63 55.66 168.56 54.6C168.982 55.6328 169.287 56.7095 169.47 57.81C169.613 58.9566 169.566 60.1189 169.33 61.25C169.203 62.3765 168.648 63.4111 167.78 64.14C167.34 64.4889 166.807 64.7013 166.247 64.751C165.687 64.8008 165.125 64.6857 164.63 64.42C162.23 62.94 163.84 61.64 163.91 59.9Z" fill="#263238"/>
<path d="M190.07 79.08C189.934 79.0894 189.797 79.0894 189.66 79.08L184.98 78.19C184.552 78.111 184.158 77.9045 183.849 77.5976C183.54 77.2907 183.331 76.8976 183.25 76.47C183.14 75.907 183.256 75.3234 183.572 74.8447C183.888 74.366 184.379 74.0304 184.94 73.91L190.94 72.64C191.464 72.5288 192.01 72.6141 192.474 72.8797C192.939 73.1452 193.29 73.5725 193.46 74.08L193.55 74.34C193.661 74.6757 193.689 75.0337 193.629 75.3824C193.57 75.7311 193.426 76.06 193.21 76.34L191.76 78.24C191.56 78.4988 191.304 78.7088 191.012 78.8543C190.719 78.9999 190.397 79.077 190.07 79.08V79.08ZM191.43 73.56C191.35 73.5504 191.27 73.5504 191.19 73.56L185.19 74.83C184.887 74.8951 184.622 75.0757 184.45 75.3333C184.278 75.591 184.214 75.9055 184.27 76.21C184.313 76.4436 184.426 76.6586 184.594 76.8265C184.761 76.9944 184.976 77.1072 185.21 77.15L189.89 78.04C190.106 78.0805 190.329 78.0598 190.534 77.9803C190.739 77.9008 190.918 77.7656 191.05 77.59L192.5 75.69C192.618 75.5376 192.697 75.3581 192.728 75.1678C192.76 74.9775 192.743 74.7823 192.68 74.6L192.59 74.34C192.506 74.1025 192.348 73.8983 192.139 73.7577C191.93 73.6172 191.682 73.5479 191.43 73.56V73.56Z" fill="#D36681"/>
<path d="M198.16 76.67C197.94 76.6669 197.721 76.6333 197.51 76.57L195.23 75.86C194.888 75.7525 194.577 75.5634 194.325 75.3091C194.072 75.0547 193.885 74.7427 193.78 74.4L193.71 74.14C193.556 73.6283 193.595 73.0777 193.819 72.5928C194.044 72.1079 194.44 71.7226 194.93 71.51L199.59 69.74C200.116 69.5177 200.708 69.5105 201.239 69.7199C201.77 69.9293 202.198 70.3387 202.43 70.86V70.86C202.612 71.2553 202.67 71.6968 202.595 72.1256C202.52 72.5544 202.316 72.9502 202.01 73.26L199.75 75.97C199.547 76.1894 199.301 76.3648 199.028 76.4852C198.754 76.6057 198.459 76.6685 198.16 76.67V76.67ZM200.44 70.57C200.279 70.57 200.12 70.6005 199.97 70.66L195.31 72.44C195.049 72.5566 194.84 72.7638 194.72 73.023C194.601 73.2823 194.579 73.5761 194.66 73.85L194.74 74.11C194.796 74.2952 194.896 74.4639 195.032 74.6015C195.168 74.7392 195.336 74.8416 195.52 74.9L197.8 75.61C198.01 75.6792 198.236 75.6867 198.45 75.6318C198.665 75.5769 198.859 75.4617 199.01 75.3L201.27 72.6C201.442 72.43 201.558 72.2116 201.602 71.974C201.647 71.7364 201.618 71.4908 201.52 71.27C201.427 71.0613 201.276 70.8841 201.084 70.7598C200.892 70.6355 200.668 70.5696 200.44 70.57V70.57Z" fill="#D36681"/>
<path d="M167.78 171.91C167.938 174.028 168.462 176.102 169.33 178.04C171.19 181.61 175.33 183.56 179.33 183.92C183.33 184.28 187.33 183.29 191.24 182.31C190.78 162.53 190.32 142.7 187.77 123.08C186.77 115.36 183.21 103.18 180.87 98.85C180.87 98.85 163.71 100.37 159.58 104.34C155.15 108.6 160.58 115.96 161.23 121.34C163.403 138.2 165.587 155.057 167.78 171.91Z" fill="#263238"/>
<path d="M208.63 156.91L210.38 173.25C210.587 175.226 210.03 177.207 208.823 178.786C207.617 180.364 205.851 181.421 203.89 181.74L198.89 182.54C198.36 167.99 198.04 142.54 198.04 133.4C198.04 120.54 195.28 110.4 193.46 103.18C197.59 104.18 201.46 105.98 204.29 106.91C206 107.5 208.67 112.07 210.54 117.41C215.63 126.02 209 144.06 208.63 156.91Z" fill="#263238"/>
<path d="M139.87 141.96L154.69 142.3L154.2 141.2C153.803 140.313 153.669 139.331 153.814 138.37C153.96 137.409 154.378 136.51 155.02 135.78C160.42 129.66 174.02 113.9 173.93 110.86C173.71 106.54 169.16 103.61 164.01 103.71C160.21 103.79 149.64 120.4 143.2 128.64C137.51 135.94 139.87 141.96 139.87 141.96Z" fill="#263238"/>
<path d="M150.73 142.9C158.124 148.789 164.746 155.586 170.44 163.13L173.5 166.57L168 170.17C168 170.17 150.6 158.34 146.54 153.85C144.066 151.074 142.281 147.755 141.33 144.16L150.73 142.9Z" fill="#FFB573"/>
<path d="M158.7 148.24L154.55 142.35L139.55 140.66C139.55 140.66 136.69 147.27 142.99 151.11C147.71 153.99 158.7 148.24 158.7 148.24Z" fill="#263238"/>
<path d="M166 162.14L176.46 165.38L169.2 170.85C169.2 170.85 163.84 168.65 163.42 165.52L166 162.14Z" fill="#FFB573"/>
<path d="M181.23 170L175.91 175.46L169.19 170.85L176.44 165.38L181.23 170Z" fill="#FFB573"/>
</svg>
