<svg width="488" height="500" viewBox="0 0 488 500" fill="none" xmlns="http://www.w3.org/2000/svg">
<path fill-rule="evenodd" clip-rule="evenodd" d="M247.884 0.189174C299.558 3.00019 339.699 41.8367 380.764 73.6937C420.666 104.649 466.024 133.532 481.962 181.78C497.958 230.202 478.559 280.945 465.522 330.267C451.677 382.645 447.102 443.895 404.118 476.278C361.026 508.742 301.258 500.456 247.884 494.225C199.829 488.615 150.774 476.454 115.821 442.621C83.1374 410.983 84.4551 360.328 66.271 318.425C45.1266 269.7 -6.91833 230.136 0.767902 177.493C8.58309 123.968 60.5762 89.9488 104.2 58.6487C147.365 27.6786 195.043 -2.68537 247.884 0.189174Z" fill="#F9F871"/>
<path d="M235.789 488.625C351.652 488.625 445.578 482.664 445.578 475.312C445.578 467.96 351.652 462 235.789 462C119.926 462 26 467.96 26 475.312C26 482.664 119.926 488.625 235.789 488.625Z" fill="#F5F5F5"/>
<g opacity="0.2">
<path opacity="0.2" d="M351.589 314.146H333.479V420.087L321.954 422.422V426.04H363.114V422.422L351.589 420.087V314.146Z" fill="white"/>
<path opacity="0.2" d="M121.089 314.146H102.979V420.087L91.4536 422.422V426.04H132.614V422.422L121.089 420.087V314.146Z" fill="white"/>
</g>
<path d="M407.568 304.369V111L47 111V304.369H407.568Z" fill="#2E353A"/>
<path opacity="0.2" d="M407.568 304.369V111L47 111V304.369H407.568Z" fill="white"/>
<path d="M399.55 116.367H55.0181V298.894H399.55V116.367Z" fill="#4E4376"/>
<path opacity="0.3" d="M399.55 116.367H55.0181V298.894H399.55V116.367Z" fill="white"/>
<path d="M93.9232 132.727V182.156H213.306L93.9232 132.727Z" stroke="#263238" stroke-miterlimit="10"/>
<path d="M99.9162 182.286V178.245H93.7915" stroke="#263238" stroke-width="0.793303" stroke-miterlimit="10"/>
<path d="M155.23 144.507C155.649 144.507 156.017 144.618 156.334 144.84C156.658 145.062 156.905 145.36 157.077 145.735C157.248 146.103 157.334 146.503 157.334 146.934C157.334 147.378 157.239 147.788 157.048 148.162C156.864 148.53 156.61 148.822 156.287 149.038C155.969 149.254 155.617 149.362 155.23 149.362C154.944 149.362 154.668 149.305 154.402 149.19C154.135 149.07 153.929 148.905 153.783 148.695L153.688 149.267H152.926V142.127H153.783V145.145C153.954 144.948 154.167 144.792 154.421 144.678C154.681 144.564 154.951 144.507 155.23 144.507ZM155.125 148.6C155.525 148.6 155.846 148.442 156.087 148.124C156.334 147.801 156.458 147.404 156.458 146.934C156.458 146.452 156.334 146.055 156.087 145.744C155.846 145.427 155.525 145.268 155.125 145.268C154.732 145.268 154.402 145.414 154.135 145.706C153.869 145.992 153.735 146.401 153.735 146.934C153.735 147.486 153.865 147.902 154.126 148.181C154.392 148.461 154.725 148.6 155.125 148.6Z" fill="#263238"/>
<path d="M97.325 219.149C97.7439 219.149 98.112 219.261 98.4293 219.483C98.753 219.705 99.0005 220.003 99.1718 220.378C99.3432 220.746 99.4288 221.145 99.4288 221.577C99.4288 222.021 99.3336 222.431 99.1433 222.805C98.9592 223.173 98.7054 223.465 98.3817 223.681C98.0644 223.897 97.7121 224.004 97.325 224.004C97.0394 224.004 96.7633 223.947 96.4968 223.833C96.2302 223.713 96.024 223.548 95.878 223.338L95.7828 223.909H95.0213V216.77H95.878V219.787C96.0494 219.591 96.262 219.435 96.5158 219.321C96.776 219.207 97.0458 219.149 97.325 219.149ZM97.2203 223.243C97.6201 223.243 97.9406 223.084 98.1818 222.767C98.4293 222.443 98.553 222.047 98.553 221.577C98.553 221.095 98.4293 220.698 98.1818 220.387C97.9406 220.07 97.6201 219.911 97.2203 219.911C96.8268 219.911 96.4968 220.057 96.2302 220.349C95.9637 220.635 95.8304 221.044 95.8304 221.577C95.8304 222.129 95.9605 222.545 96.2207 222.824C96.4873 223.103 96.8205 223.243 97.2203 223.243Z" fill="#263238"/>
<path d="M138.646 191.001C138.139 191.001 137.701 190.897 137.333 190.687C136.971 190.478 136.698 190.192 136.514 189.83C136.33 189.462 136.238 189.053 136.238 188.602C136.238 187.866 136.444 187.273 136.857 186.822C137.275 186.372 137.894 186.146 138.713 186.146C139.195 186.146 139.62 186.238 139.989 186.422L139.855 187.174C139.468 186.997 139.081 186.908 138.694 186.908C138.186 186.908 137.796 187.054 137.523 187.346C137.25 187.631 137.114 188.038 137.114 188.564C137.114 189.091 137.244 189.504 137.504 189.802C137.77 190.1 138.161 190.249 138.675 190.249C139.087 190.249 139.484 190.154 139.865 189.964L139.979 190.649C139.839 190.744 139.646 190.827 139.398 190.897C139.157 190.966 138.906 191.001 138.646 191.001Z" fill="#263238"/>
<path d="M97.1727 239.181C96.665 239.181 96.2271 239.076 95.859 238.867C95.4972 238.657 95.2243 238.372 95.0403 238.01C94.8562 237.642 94.7642 237.232 94.7642 236.782C94.7642 236.046 94.9705 235.452 95.383 235.002C95.8019 234.551 96.4206 234.326 97.2393 234.326C97.7217 234.326 98.1469 234.418 98.515 234.602L98.3817 235.354C97.9946 235.176 97.6074 235.087 97.2203 235.087C96.7126 235.087 96.3223 235.233 96.0494 235.525C95.7765 235.811 95.64 236.217 95.64 236.744C95.64 237.27 95.7701 237.683 96.0303 237.981C96.2969 238.28 96.6872 238.429 97.2012 238.429C97.6138 238.429 98.0104 238.333 98.3912 238.143L98.5054 238.829C98.3658 238.924 98.1723 239.006 97.9247 239.076C97.6836 239.146 97.4329 239.181 97.1727 239.181Z" fill="#263238"/>
<path d="M82.319 161.138C81.8875 161.138 81.5384 161.011 81.2719 160.757C81.0116 160.503 80.8815 160.179 80.8815 159.786C80.8815 159.196 81.1608 158.774 81.7193 158.52C82.2778 158.266 82.9283 158.133 83.6708 158.12C83.6708 157.701 83.5883 157.419 83.4233 157.273C83.2646 157.12 83.0076 157.044 82.6522 157.044C82.4555 157.044 82.2587 157.076 82.062 157.139C81.8652 157.197 81.6526 157.304 81.4242 157.463L81.3004 156.768C81.4908 156.622 81.7256 156.505 82.0049 156.416C82.2841 156.327 82.576 156.283 82.8807 156.283C83.2805 156.283 83.5978 156.352 83.8326 156.492C84.0738 156.632 84.2483 156.863 84.3562 157.187C84.4705 157.511 84.5276 157.955 84.5276 158.52V159.472C84.5276 159.726 84.5371 159.919 84.5561 160.052C84.5815 160.179 84.6323 160.278 84.7084 160.348C84.7846 160.417 84.902 160.452 85.0607 160.452H85.1463L85.0131 161.138H84.9464C84.6799 161.138 84.4705 161.112 84.3181 161.062C84.1658 161.011 84.0484 160.938 83.9659 160.843C83.8898 160.747 83.8168 160.617 83.747 160.452C83.3535 160.909 82.8775 161.138 82.319 161.138ZM82.4808 160.452C82.7093 160.452 82.9283 160.395 83.1377 160.281C83.3535 160.167 83.5312 160.014 83.6708 159.824V158.71C82.9854 158.736 82.4935 158.828 82.1953 158.986C81.9033 159.139 81.7574 159.389 81.7574 159.738C81.7574 159.979 81.8208 160.16 81.9477 160.281C82.081 160.395 82.2587 160.452 82.4808 160.452Z" fill="#263238"/>
<path d="M96.116 208.817C95.6845 208.817 95.3354 208.69 95.0688 208.437C94.8086 208.183 94.6785 207.859 94.6785 207.466C94.6785 206.875 94.9578 206.453 95.5163 206.199C96.0748 205.946 96.7253 205.812 97.4678 205.8C97.4678 205.381 97.3853 205.098 97.2203 204.952C97.0616 204.8 96.8046 204.724 96.4492 204.724C96.2525 204.724 96.0557 204.756 95.859 204.819C95.6622 204.876 95.4496 204.984 95.2212 205.143L95.0974 204.448C95.2878 204.302 95.5226 204.184 95.8019 204.096C96.0811 204.007 96.373 203.962 96.6777 203.962C97.0775 203.962 97.3948 204.032 97.6296 204.172C97.8708 204.311 98.0453 204.543 98.1532 204.867C98.2674 205.19 98.3246 205.635 98.3246 206.199V207.151C98.3246 207.405 98.3341 207.599 98.3531 207.732C98.3785 207.859 98.4293 207.957 98.5054 208.027C98.5816 208.097 98.699 208.132 98.8577 208.132H98.9433L98.8101 208.817H98.7434C98.4769 208.817 98.2674 208.792 98.1151 208.741C97.9628 208.69 97.8454 208.617 97.7629 208.522C97.6868 208.427 97.6138 208.297 97.544 208.132C97.1505 208.589 96.6745 208.817 96.116 208.817ZM96.2778 208.132C96.5063 208.132 96.7253 208.075 96.9347 207.961C97.1505 207.846 97.3282 207.694 97.4678 207.504V206.39C96.7824 206.415 96.2905 206.507 95.9923 206.666C95.7003 206.818 95.5544 207.069 95.5544 207.418C95.5544 207.659 95.6178 207.84 95.7447 207.961C95.878 208.075 96.0557 208.132 96.2778 208.132Z" fill="#263238"/>
<path d="M241.279 133.27H307.136" stroke="#263238" stroke-miterlimit="10"/>
<path d="M241.279 141.961H277.5" stroke="#263238" stroke-miterlimit="10"/>
<path d="M241.279 148.479H292.318" stroke="#263238" stroke-miterlimit="10"/>
<path d="M241.279 156.083H284.086" stroke="#263238" stroke-miterlimit="10"/>
<path d="M241.279 164.774H305.489" stroke="#263238" stroke-miterlimit="10"/>
<path d="M241.279 172.378H303.843" stroke="#263238" stroke-miterlimit="10"/>
<path d="M241.279 179.983H284.086" stroke="#263238" stroke-miterlimit="10"/>
<path d="M315.368 246.25H359.821" stroke="#263238" stroke-miterlimit="10"/>
<path d="M315.368 254.941H340.064" stroke="#263238" stroke-miterlimit="10"/>
<path d="M315.368 261.459H349.943" stroke="#263238" stroke-miterlimit="10"/>
<path d="M315.368 269.063H345.004" stroke="#263238" stroke-miterlimit="10"/>
<path d="M89.8071 260.372H134.261" stroke="#263238" stroke-miterlimit="10"/>
<path d="M89.8071 269.063H114.504" stroke="#263238" stroke-miterlimit="10"/>
<path d="M89.8071 275.581H124.382" stroke="#263238" stroke-miterlimit="10"/>
<path d="M89.8071 283.186H119.443" stroke="#263238" stroke-miterlimit="10"/>
<path d="M328.539 148.479H371.346" stroke="#263238" stroke-miterlimit="10"/>
<path d="M328.539 156.083H371.346" stroke="#263238" stroke-miterlimit="10"/>
<path d="M328.539 163.688H358.175" stroke="#263238" stroke-miterlimit="10"/>
<path d="M201.764 260.372H244.571" stroke="#263238" stroke-miterlimit="10"/>
<path d="M201.764 267.977H244.571" stroke="#263238" stroke-miterlimit="10"/>
<path d="M201.764 275.581H231.4" stroke="#263238" stroke-miterlimit="10"/>
<path d="M121.089 210.401H216.582" stroke="#263238" stroke-miterlimit="10"/>
<path d="M121.089 224.523H216.582" stroke="#263238" stroke-miterlimit="10"/>
<path d="M121.089 238.645H216.582" stroke="#263238" stroke-miterlimit="10"/>
<path d="M279.92 246.315C296.515 246.315 309.968 237.439 309.968 226.489C309.968 215.54 296.515 206.663 279.92 206.663C263.326 206.663 249.873 215.54 249.873 226.489C249.873 237.439 263.326 246.315 279.92 246.315Z" stroke="#263238" stroke-width="0.793303" stroke-miterlimit="10"/>
<path d="M279.97 206.598V226.696H310.429" stroke="#263238" stroke-miterlimit="10"/>
<path opacity="0.6" d="M399.55 116.367H55.0181V298.894H399.55V116.367Z" fill="white"/>
<path d="M331.77 206.372L315.064 195.788C312.4 196.004 309.723 195.87 307.089 195.388C302.761 194.576 301.831 194.529 302.35 190.825C302.869 187.121 302.145 182.181 303.432 181.664C304.72 181.147 313.83 185.321 315.41 188.156L332.267 194.706L331.77 206.372Z" fill="#B97964"/>
<path d="M381.26 188.438V209.606C381.26 209.606 377.105 211.099 371.944 212.663C366.026 214.451 358.787 216.332 355.022 216.191C347.989 215.815 324.185 202.385 324.185 202.385L328.513 193.424C328.513 193.424 354.481 203.044 357.727 202.35C360.973 201.656 381.26 188.438 381.26 188.438Z" fill="#4E4376"/>
<path opacity="0.2" d="M381.26 198.751V209.618C381.26 209.618 377.105 211.111 371.944 212.675C373.849 206.372 378.599 201.233 381.26 198.751Z" fill="black"/>
<path d="M385.588 263.784C385.588 263.784 373.859 331.71 370.732 359.605C366.643 395.99 349.926 449.216 349.926 449.216L356.612 451.097C356.612 451.097 380.178 405.868 384.744 365.167C403.463 323.572 404.967 272.345 404.967 272.345L385.588 263.784Z" fill="#B97964"/>
<path d="M337.526 465.68C338.606 465.139 339.769 464.82 340.956 464.739C340.956 464.739 345.067 462.105 349.147 451.897H353.723C354.497 451.909 355.249 452.178 355.877 452.667C356.506 453.157 356.981 453.845 357.24 454.637C357.315 454.86 357.359 455.094 357.37 455.331C357.322 456.514 357.207 457.692 357.024 458.859C356.345 462.833 355.449 466.76 354.34 470.619L353.561 470.395L354.979 462.975C355.444 460.447 353.009 462.881 351.873 465.433C350.737 467.985 349.006 470.537 343.953 469.278C338.056 467.761 335.676 466.832 337.526 465.68Z" fill="#2E353A"/>
<path d="M397.804 262.702C397.804 262.702 399.265 331.792 401.515 359.793C404.437 396.307 398.204 452.144 398.204 452.144L405.108 452.473C405.108 452.473 419.552 402.928 416.306 362.074C426.704 317.163 418.47 266.712 418.47 266.712L397.804 262.702Z" fill="#B97964"/>
<path d="M387.471 467.961C388.493 467.293 389.619 466.835 390.793 466.609C390.793 466.609 394.623 463.516 397.653 452.885L402.208 452.32C402.982 452.24 403.761 452.423 404.435 452.845C405.11 453.266 405.647 453.905 405.973 454.672C406.07 454.883 406.136 455.109 406.168 455.343C406.238 456.545 406.238 457.751 406.168 458.953C405.891 462.969 405.393 466.962 404.675 470.913L403.874 470.784L404.545 463.234C404.761 460.67 402.576 463.387 401.699 466.044C400.823 468.702 399.362 471.454 394.201 470.807C388.207 469.96 385.751 469.325 387.471 467.961Z" fill="#2E353A"/>
<path d="M421.11 145.173C421.11 145.173 424.54 145.373 427.429 151.5C430.318 157.627 426.704 164.436 425.979 167.693C425.254 170.951 421.651 173.832 427.602 178.759C433.553 183.687 437.124 188.92 432.298 194.247C427.473 199.574 432.774 203.655 425.806 207.607C418.838 211.558 393.162 205.643 389.916 197.999C386.67 190.355 390.587 184.545 390.793 182.264C390.998 179.982 386.67 177.642 385.588 170.174C384.506 162.707 390.046 161.108 390.793 157.697C391.539 154.287 388.066 149.983 390.793 142.727C393.519 135.471 420.742 133.907 421.11 145.173Z" fill="#2E353A"/>
<path d="M438.39 246.908C434.289 247.485 429.55 238.782 426.12 230.668C423.188 223.788 421.143 217.32 421.143 217.32L423.307 210.688L428.955 193.377C428.955 193.377 432.904 199.363 438.844 222.154C439.797 225.823 440.943 229.927 441.993 234.513C441.985 235.672 442.314 236.804 442.934 237.747C442.934 241.193 443.313 246.215 438.39 246.908Z" fill="#4E4376"/>
<path opacity="0.2" d="M426.044 230.668C423.123 223.788 421.11 217.32 421.11 217.32L423.274 210.688C424.789 215.274 427.007 223.588 426.044 230.668Z" fill="black"/>
<path opacity="0.2" d="M442.934 237.747C440.77 239.3 438.509 239.276 437.243 236.442C434.679 230.715 437.156 225.047 438.909 222.142C439.872 225.811 440.976 229.915 442.025 234.502C441.991 235.663 442.31 236.804 442.934 237.747Z" fill="black"/>
<path d="M378.382 244.651C378.382 244.651 400.022 253.071 420.645 251.507C420.645 251.507 418.773 223.753 407.953 218.814C397.133 213.875 378.382 220.931 378.382 244.651Z" fill="#4E4376"/>
<path opacity="0.2" d="M378.382 244.651C378.382 244.651 400.022 253.071 420.645 251.507C420.645 251.507 418.773 223.753 407.953 218.814C397.133 213.875 378.382 220.931 378.382 244.651Z" fill="black"/>
<path d="M381.444 246.626L417.15 249.978C417.498 240.358 418.771 230.804 420.948 221.472C421.803 217.755 422.874 213.604 424.248 208.806C424.984 206.242 425.795 203.491 426.704 200.574C427.386 198.328 428.122 195.941 428.933 193.424C424.084 191.741 419.131 190.441 414.11 189.531C408.811 188.509 403.453 187.896 398.075 187.697C391.128 187.697 383.143 188.485 383.143 188.485C383.143 188.485 382.007 188.779 381.293 196.787C380.654 204.255 380.016 219.284 381.444 246.626Z" fill="#4E4376"/>
<path d="M381.617 252.447L417.323 255.646C417.886 246.003 418.308 232.973 420.981 221.472C421.835 217.755 422.907 213.604 424.281 208.806C425.016 206.242 425.828 203.491 426.737 200.574C427.418 198.328 428.154 195.941 428.966 193.424C424.117 191.741 419.163 190.441 414.142 189.531C408.844 188.509 403.485 187.896 398.107 187.697C391.161 187.697 383.175 188.485 383.175 188.485C383.175 188.485 382.039 188.779 381.325 196.787C380.654 204.255 380.178 225.105 381.617 252.447Z" fill="#2E353A"/>
<path d="M401.028 196.235C409.836 195.059 412.476 190.919 412.476 190.919C406.893 185.192 411.535 175.267 411.535 175.267L400.942 177.419C401.191 179.024 401.328 180.648 401.353 182.276C401.44 189.261 398.529 189.332 398.529 189.332C396.668 193.107 401.028 196.235 401.028 196.235Z" fill="#B97964"/>
<path opacity="0.2" d="M400.942 177.419C401.191 179.024 401.328 180.648 401.353 182.276C408.505 182.276 411.535 175.22 411.535 175.22L400.942 177.419Z" fill="black"/>
<path d="M406.796 145.208C397.588 144.667 394.353 149.853 393.162 160.12C391.669 172.962 393.833 182.276 405.486 180.206C421.294 177.419 422.095 146.125 406.796 145.208Z" fill="#B97964"/>
<path d="M399.135 159.92C398.324 161.371 397.354 162.71 396.246 163.906C396.496 164.337 396.851 164.684 397.271 164.91C397.691 165.136 398.16 165.233 398.626 165.188L399.135 159.92Z" fill="#A24E3F"/>
<path d="M404.815 159.438C404.815 160.261 405.118 160.955 405.627 161.002C406.136 161.049 406.579 160.414 406.644 159.59C406.709 158.767 406.341 158.073 405.833 158.026C405.324 157.979 404.88 158.603 404.815 159.438Z" fill="#2E353A"/>
<path d="M406.049 158.085L404.448 157.238C404.448 157.238 405.162 158.814 406.049 158.085Z" fill="#2E353A"/>
<path d="M395.435 158.462C395.38 159.285 395.738 159.99 396.246 160.026C396.755 160.061 397.198 159.438 397.263 158.614C397.328 157.791 396.96 157.097 396.462 157.05C395.965 157.003 395.499 157.638 395.435 158.462Z" fill="#2E353A"/>
<path d="M396.668 157.109L395.067 156.274C395.067 156.274 395.781 157.85 396.668 157.109Z" fill="#2E353A"/>
<path d="M405.259 152.523C405.992 152.469 406.726 152.599 407.405 152.903C408.084 153.207 408.69 153.676 409.176 154.275" stroke="#2E353A" stroke-width="0.72468" stroke-linecap="round" stroke-linejoin="round"/>
<path d="M398.572 151.711C397.952 151.502 397.296 151.447 396.654 151.551C396.011 151.655 395.399 151.915 394.861 152.311" stroke="#2E353A" stroke-width="0.72468" stroke-linecap="round" stroke-linejoin="round"/>
<path d="M399.763 169.187C400.141 170.337 400.441 171.516 400.661 172.715C400.862 172.726 401.065 172.726 401.267 172.715C403.961 172.585 405.162 171.539 405.692 170.457C405.937 169.912 406.056 169.311 406.038 168.704C406.047 168.363 406.007 168.022 405.919 167.693C404.309 168.587 402.542 169.096 400.736 169.187C400.12 169.187 399.763 169.187 399.763 169.187Z" fill="#2E353A"/>
<path d="M400.736 169.187L401.028 170.222C403.571 170.092 405.356 169.622 406.092 168.752C406.101 168.41 406.061 168.069 405.973 167.74C404.344 168.626 402.557 169.119 400.736 169.187Z" fill="white"/>
<path d="M401.266 172.715C403.961 172.585 405.162 171.539 405.692 170.457C404.668 170.526 403.665 170.793 402.727 171.245C402.111 171.556 401.6 172.07 401.266 172.715Z" fill="#DE5753"/>
<path d="M416.014 162.683C416.014 162.683 412.119 154.204 413.093 147.889C413.093 147.889 395.251 138.705 393.335 158.779C393.335 158.779 392.448 140.798 408.3 141.339C424.151 141.88 422.82 167.058 414.261 174.067C414.261 174.067 418.416 168.011 416.014 162.683Z" fill="#2E353A"/>
<path d="M414.402 164.706C414.474 164.134 414.649 163.584 414.917 163.086C415.185 162.587 415.54 162.152 415.963 161.803C416.387 161.455 416.869 161.2 417.383 161.055C417.896 160.909 418.431 160.875 418.957 160.955C421.792 161.46 422.831 167.905 415.711 169.022C414.618 169.187 414.099 168.011 414.402 164.706Z" fill="#B97964"/>
<path d="M420.645 191.978C420.645 191.978 410.301 201.092 400.736 200.939C391.171 200.786 387.752 189.038 387.752 189.038C387.752 189.038 402.608 184.228 420.645 191.978Z" fill="#B97964"/>
<path d="M419.758 190.261C419.758 190.261 402.792 223.283 420.645 251.507C420.645 251.507 423.069 216.685 428.944 193.377L419.758 190.261Z" fill="#4E4376"/>
<path d="M388.629 187.65C388.629 187.65 388.477 211.017 385.383 219.696C382.288 228.375 378.361 244.651 378.361 244.651C378.361 244.651 375.374 205.725 381.239 188.438L388.629 187.65Z" fill="#4E4376"/>
<path d="M413.093 147.889C413.093 147.889 406.233 145.314 400.195 147.889C394.158 150.465 395.802 157.297 392.74 158.544" stroke="#2E353A" stroke-width="0.5" stroke-linecap="round" stroke-linejoin="round"/>
<path d="M467.55 183.44L464.715 181.676L454.295 184.769L440.229 180.805L436.983 192.413C436.983 192.413 436.312 205.349 436.983 205.501C437.654 205.654 453.083 206.525 453.083 206.525L460.928 201.091L467.55 183.44Z" fill="#E0E0E0"/>
<path d="M436.442 181.676L430.221 208.453L449.426 210.794L462.681 206.819L469.443 181.676L454.295 185.945L436.442 181.676Z" fill="#4E4376"/>
<path opacity="0.4" d="M454.295 185.945L449.426 210.794L430.221 208.453L436.442 181.676L454.295 185.945Z" fill="white"/>
<path opacity="0.2" d="M454.295 185.945L449.426 210.794L462.681 206.819L469.443 181.676L454.295 185.945Z" fill="white"/>
<path d="M437.438 235.043L446.364 216.415C446.04 213.533 446.04 210.618 446.364 207.736C446.905 203.032 446.905 201.985 450.324 202.373C453.744 202.761 458.266 201.75 458.807 203.126C459.348 204.502 455.918 214.58 453.397 216.427L448.15 235.043H437.438Z" fill="#B97964"/>
<path d="M434.549 245.274C440.229 250.531 446.721 246.015 450.324 230.927L439.147 229.363L434.549 245.274Z" fill="#4E4376"/>
<path d="M439.721 226.046L437.438 230.421L451.59 232.491V227.987L439.721 226.046Z" fill="#2E353A"/>
<path d="M323.611 203.467L327.528 206.148L330.093 190.884L325.949 190.672L323.611 203.467Z" fill="#2E353A"/>
<path d="M381.617 252.447L359.112 396.155C359.112 396.155 413.58 403.211 432.039 399.095C432.039 399.095 436.572 296.218 417.302 255.623L381.617 252.447Z" fill="#4E4376"/>
<path opacity="0.4" d="M381.617 252.447L359.112 396.155C359.112 396.155 413.58 403.211 432.039 399.095C432.039 399.095 436.572 296.218 417.302 255.623L381.617 252.447Z" fill="white"/>
<path d="M308.539 189.273L302.934 182.981C299.591 179.183 295.047 174.208 290.535 169.21L283.859 161.919L278.027 155.557L273.904 151.064C273.407 150.524 273.006 150.1 272.747 149.806C272.633 149.739 272.509 149.698 272.38 149.686C272.252 149.673 272.122 149.69 272 149.736L273.526 148.066C273.484 148.198 273.468 148.339 273.48 148.479C273.491 148.619 273.529 148.754 273.591 148.877L274.759 150.135L278.914 154.592L284.778 160.908L291.53 168.128C296.15 173.009 300.749 177.924 304.254 181.546L310.076 187.603L308.539 189.273Z" fill="#2E353A"/>
<path d="M349.969 449.216C349.969 449.216 344.256 462.222 340.956 464.739C340.956 464.739 345.37 467.597 349.969 461.211C355.92 452.979 357.37 455.331 357.37 455.331C357.252 453.91 357.013 452.505 356.656 451.133C355.758 448.44 349.969 449.216 349.969 449.216Z" fill="#B97964"/>
<path d="M398.908 449.075C398.908 449.075 397.285 453.896 395.121 459.188C394.13 461.93 392.66 464.438 390.793 466.574C390.793 466.574 394.558 467.902 396.581 465.339C398.605 462.775 402.078 453.579 405.973 454.59C405.766 453.837 405.476 453.114 405.108 452.438C404.523 451.427 398.908 449.075 398.908 449.075Z" fill="#B97964"/>
<path d="M181.911 482.841L182.798 336.723H174.001L174.878 482.841H181.911Z" fill="#4E4376"/>
<path opacity="0.5" d="M174.878 482.841H181.921L182.625 366.1L182.798 337.017H174.001L174.174 366.1L174.878 482.841Z" fill="white"/>
<path opacity="0.2" d="M182.798 337.017L182.625 366.417H174.174L174.001 337.017H182.798Z" fill="black"/>
<path d="M250.239 482.841L242.34 336.723H233.544L243.206 482.841H250.239Z" fill="#4E4376"/>
<path opacity="0.5" d="M243.195 482.841H250.239L242.816 345.684L242.34 337.017H233.544L234.128 345.684L243.195 482.841Z" fill="white"/>
<path opacity="0.2" d="M242.816 345.249H234.128L233.544 337.017H242.34L242.816 345.249Z" fill="black"/>
<path d="M113.593 482.841L123.245 336.723H114.448L106.549 482.841H113.593Z" fill="#4E4376"/>
<path opacity="0.3" d="M113.593 482.841L122.66 345.684L123.245 337.017H114.448L113.972 345.684L106.549 482.841H113.593Z" fill="white"/>
<path opacity="0.2" d="M114.448 337.017H123.245L122.66 345.249H113.972L114.448 337.017Z" fill="black"/>
<path d="M107.48 332.219H249.308V338.699C249.308 339.032 249.248 339.363 249.13 339.671C249.013 339.979 248.841 340.259 248.624 340.495C248.407 340.731 248.149 340.918 247.866 341.046C247.582 341.173 247.278 341.239 246.971 341.239H109.817C109.51 341.239 109.206 341.173 108.923 341.046C108.639 340.918 108.381 340.731 108.164 340.495C107.947 340.259 107.775 339.979 107.658 339.671C107.54 339.363 107.48 339.032 107.48 338.699V332.219Z" fill="#4E4376"/>
<path opacity="0.4" d="M107.48 332.219H249.308V338.699C249.308 339.032 249.248 339.363 249.13 339.671C249.013 339.979 248.841 340.259 248.624 340.495C248.407 340.731 248.149 340.918 247.866 341.046C247.582 341.173 247.278 341.239 246.971 341.239H109.817C109.51 341.239 109.206 341.173 108.923 341.046C108.639 340.918 108.381 340.731 108.164 340.495C107.947 340.259 107.775 339.979 107.658 339.671C107.54 339.363 107.48 339.032 107.48 338.699V332.219Z" fill="white"/>
<path opacity="0.2" d="M249.308 332.219H107.48V336.735H249.308V332.219Z" fill="black"/>
<path d="M253.42 333.395H103.368C102.747 333.392 102.153 333.122 101.715 332.643C101.277 332.165 101.031 331.518 101.031 330.843C101.031 330.169 101.277 329.523 101.716 329.047C102.154 328.57 102.748 328.303 103.368 328.303H253.42C254.04 328.303 254.634 328.57 255.073 329.047C255.511 329.523 255.757 330.169 255.757 330.843C255.757 331.518 255.511 332.165 255.073 332.643C254.635 333.122 254.041 333.392 253.42 333.395Z" fill="#4E4376"/>
<path opacity="0.4" d="M253.42 333.395H103.368C102.747 333.392 102.153 333.122 101.715 332.643C101.277 332.165 101.031 331.518 101.031 330.843C101.031 330.169 101.277 329.523 101.716 329.047C102.154 328.57 102.748 328.303 103.368 328.303H253.42C254.04 328.303 254.634 328.57 255.073 329.047C255.511 329.523 255.757 330.169 255.757 330.843C255.757 331.518 255.511 332.165 255.073 332.643C254.635 333.122 254.041 333.392 253.42 333.395Z" fill="white"/>
<path d="M170.258 332.219V337.217C170.258 337.745 170.353 338.268 170.539 338.756C170.725 339.244 170.998 339.688 171.341 340.061C171.685 340.434 172.093 340.731 172.542 340.933C172.991 341.135 173.472 341.239 173.958 341.239H248.042C248.663 341.239 249.259 340.972 249.699 340.496C250.139 340.02 250.388 339.374 250.39 338.699V332.219H170.258Z" fill="#4E4376"/>
<path opacity="0.6" d="M170.258 332.219V337.217C170.258 337.745 170.353 338.268 170.539 338.756C170.725 339.244 170.998 339.688 171.341 340.061C171.685 340.434 172.093 340.731 172.542 340.933C172.991 341.135 173.472 341.239 173.958 341.239H248.042C248.663 341.239 249.259 340.972 249.699 340.496C250.139 340.02 250.388 339.374 250.39 338.699V332.219H170.258Z" fill="white"/>
<path opacity="0.2" d="M250.39 332.219H170.258V336.735H250.39V332.219Z" fill="black"/>
<path d="M254.361 328.303H168.267C167.646 328.303 167.05 328.57 166.61 329.046C166.17 329.522 165.922 330.168 165.919 330.843C165.919 331.52 166.166 332.169 166.606 332.648C167.047 333.126 167.644 333.395 168.267 333.395H254.491C254.819 333.395 255.144 333.321 255.444 333.176C255.743 333.031 256.012 332.819 256.231 332.554C256.451 332.289 256.616 331.976 256.717 331.637C256.818 331.298 256.852 330.939 256.818 330.584C256.736 329.944 256.44 329.357 255.988 328.937C255.535 328.517 254.957 328.291 254.361 328.303Z" fill="#4E4376"/>
<path opacity="0.6" d="M254.361 328.303H168.267C167.646 328.303 167.05 328.57 166.61 329.046C166.17 329.522 165.922 330.168 165.919 330.843C165.919 331.52 166.166 332.169 166.606 332.648C167.047 333.126 167.644 333.395 168.267 333.395H254.491C254.819 333.395 255.144 333.321 255.444 333.176C255.743 333.031 256.012 332.819 256.231 332.554C256.451 332.289 256.616 331.976 256.717 331.637C256.818 331.298 256.852 330.939 256.818 330.584C256.736 329.944 256.44 329.357 255.988 328.937C255.535 328.517 254.957 328.291 254.361 328.303Z" fill="white"/>
<path d="M187.364 307.205L177.896 326.21" stroke="#2E353A" stroke-width="2" stroke-miterlimit="10"/>
<path d="M98.1747 286.449C98.1747 286.449 106.722 269.903 108.129 266.669C109.536 263.435 113.323 240.644 113.323 240.644C112.975 239.552 112.747 238.419 112.641 237.269C112.641 236.093 113.323 230.648 113.323 230.648C113.323 230.648 113.323 230.213 116.028 229.331C118.733 228.449 121.708 227.273 121.979 228.59C122.249 229.907 121.568 239.033 120.756 239.915C120.125 240.65 119.546 241.436 119.025 242.267C119.025 242.267 116.742 266.563 115.703 270.138C114.664 273.713 106.149 292.847 106.149 292.847L98.1747 286.449Z" fill="#E4897B"/>
<path d="M138.068 306.958C138.068 306.958 159.383 317.025 162.467 318.201C165.551 319.377 174.813 319.612 174.813 319.612C175.787 319.147 176.807 318.803 177.853 318.589C178.935 318.483 183.966 318.754 183.966 318.754C183.966 318.754 184.378 318.754 185.416 321.576C186.455 324.399 187.786 327.55 186.596 327.95C185.406 328.35 176.998 328.409 176.122 327.609L175.246 326.798C175.246 326.798 163.344 329.879 159.989 329.067C156.635 328.256 132.939 320.835 132.939 320.835L138.068 306.958Z" fill="#E4897B"/>
<path d="M109.579 289.307C108.814 293.436 107.214 297.328 104.894 300.702C100.328 307.758 93.8899 312.345 92.1479 305.089C89.497 294.128 100.739 280.393 100.739 280.393L109.579 289.307Z" fill="#4E4376"/>
<path opacity="0.2" d="M109.579 289.307C108.814 293.436 107.214 297.328 104.894 300.702C104.379 300.152 103.983 299.485 103.732 298.749C103.481 298.014 103.383 297.227 103.444 296.445C104.072 291.541 109.579 289.307 109.579 289.307Z" fill="black"/>
<path d="M132.225 281.087C131.616 283.5 130.375 285.669 128.655 287.331C126.107 289.812 122.824 291.215 119.404 291.282C116.021 291.371 112.737 290.045 110.228 287.578C105.262 282.709 105.413 277.112 104.818 267.586C104.223 258.06 113.745 250.816 123.385 254.65C133.026 258.484 134.389 272.537 132.225 281.087Z" fill="#E4897B"/>
<path d="M120.377 248.558C120.377 248.558 127.118 245.877 131.847 250.146C136.575 254.415 136.315 264.693 131.847 269.55C131.847 269.55 133.069 267.786 129.553 263.517C126.036 259.248 120.377 248.558 120.377 248.558Z" fill="#2E353A"/>
<path opacity="0.2" d="M128.655 287.331C126.107 289.812 122.824 291.215 119.404 291.282C120.038 289.69 121.068 288.322 122.379 287.331C124.413 288.46 126.934 287.931 128.655 287.331Z" fill="black"/>
<path d="M130.386 443.151L129.239 450.948L128.189 458.145H118.592L119.425 448.937L120.215 440.117L130.386 443.151Z" fill="#E4897B"/>
<path d="M127.648 454.064L117.91 453.394C117.829 453.384 117.747 453.392 117.669 453.417C117.591 453.442 117.518 453.483 117.454 453.539C117.391 453.595 117.338 453.664 117.3 453.742C117.261 453.82 117.237 453.906 117.229 453.994L116.266 462.343C116.242 462.783 116.379 463.214 116.646 463.545C116.914 463.875 117.29 464.077 117.694 464.107C121.091 464.284 122.725 464.178 127.01 464.437C129.639 464.601 134.822 465.213 138.458 464.825C142.093 464.437 141.639 460.556 140.07 460.368C136.358 459.909 131.414 456.946 129.109 454.688C128.698 454.312 128.185 454.093 127.648 454.064Z" fill="#2E353A"/>
<path d="M130.635 455.875C129.852 455.801 129.08 455.635 128.33 455.381C128.293 455.37 128.26 455.348 128.235 455.316C128.21 455.285 128.194 455.246 128.189 455.205C128.185 455.163 128.191 455.12 128.206 455.081C128.221 455.042 128.245 455.008 128.276 454.982C128.568 454.793 131.132 453.135 132.171 453.653C132.288 453.715 132.388 453.808 132.463 453.923C132.539 454.038 132.587 454.171 132.604 454.311C132.656 454.52 132.654 454.74 132.599 454.947C132.544 455.155 132.437 455.341 132.29 455.487C131.802 455.836 131.212 455.974 130.635 455.875ZM131.998 454.1C131.446 453.817 129.964 454.511 128.914 455.134C130.44 455.57 131.587 455.593 132.02 455.193C132.11 455.092 132.175 454.968 132.209 454.832C132.243 454.697 132.245 454.554 132.214 454.417C132.206 454.349 132.181 454.284 132.144 454.228C132.106 454.173 132.056 454.129 131.998 454.1Z" fill="#4E4376"/>
<path d="M128.33 455.381C128.302 455.393 128.271 455.393 128.243 455.381C128.192 455.338 128.157 455.275 128.146 455.205C128.146 455.123 128.146 452.359 129.033 451.501C129.154 451.393 129.295 451.315 129.447 451.273C129.598 451.23 129.756 451.224 129.91 451.254C130.082 451.27 130.245 451.347 130.373 451.475C130.5 451.603 130.585 451.773 130.613 451.959C130.743 453.006 129.336 454.888 128.449 455.381C128.431 455.392 128.41 455.397 128.389 455.397C128.369 455.397 128.348 455.392 128.33 455.381ZM129.737 451.712C129.655 451.707 129.574 451.719 129.498 451.75C129.421 451.78 129.352 451.827 129.293 451.889C128.767 452.759 128.51 453.789 128.557 454.829C129.397 454.161 129.982 453.182 130.202 452.077C130.202 451.948 130.126 451.783 129.845 451.724L129.737 451.712Z" fill="#4E4376"/>
<path opacity="0.2" d="M130.386 443.151L129.239 450.948L119.425 448.937L120.215 440.117L130.386 443.151Z" fill="black"/>
<path d="M142.039 383.916C137.592 377.542 126.09 374.308 116.839 372.697L113.723 397.922C119.425 399.204 121.795 402.626 122.109 404.049C123.613 410.799 116.428 445.997 116.428 445.997L131.37 449.913C131.37 449.913 149.97 395.288 142.039 383.916Z" fill="#2E353A"/>
<path opacity="0.2" d="M142.039 383.916C137.592 377.542 126.09 374.308 116.839 372.697L113.723 397.922C119.425 399.204 121.795 402.626 122.109 404.049C123.613 410.799 116.428 445.997 116.428 445.997L131.37 449.913C131.37 449.913 149.97 395.288 142.039 383.916Z" fill="black"/>
<path d="M157.436 443.151L156.289 450.948L155.239 458.145H145.642L146.475 448.937L147.265 440.117L157.436 443.151Z" fill="#E4897B"/>
<path d="M154.698 454.064L144.96 453.394C144.879 453.384 144.797 453.392 144.719 453.417C144.641 453.442 144.568 453.483 144.504 453.539C144.441 453.595 144.388 453.664 144.35 453.742C144.311 453.82 144.287 453.906 144.279 453.994L143.316 462.343C143.292 462.783 143.429 463.214 143.696 463.545C143.963 463.875 144.34 464.077 144.744 464.107C148.141 464.284 149.775 464.178 154.06 464.437C156.689 464.601 161.872 465.213 165.508 464.825C169.143 464.437 168.689 460.556 167.12 460.368C163.408 459.909 158.464 456.946 156.159 454.688C155.748 454.312 155.235 454.093 154.698 454.064Z" fill="#2E353A"/>
<path d="M157.685 455.875C156.902 455.801 156.13 455.635 155.38 455.381C155.343 455.37 155.31 455.348 155.285 455.316C155.26 455.285 155.244 455.246 155.239 455.205C155.235 455.163 155.241 455.12 155.256 455.081C155.271 455.042 155.295 455.008 155.326 454.982C155.618 454.793 158.182 453.135 159.221 453.653C159.338 453.715 159.438 453.808 159.513 453.923C159.589 454.038 159.637 454.171 159.654 454.311C159.706 454.52 159.704 454.74 159.649 454.947C159.594 455.155 159.487 455.341 159.34 455.487C158.852 455.836 158.262 455.974 157.685 455.875ZM159.048 454.1C158.496 453.817 157.014 454.511 155.964 455.134C157.49 455.57 158.637 455.593 159.07 455.193C159.16 455.092 159.225 454.968 159.259 454.832C159.293 454.697 159.295 454.554 159.264 454.417C159.256 454.349 159.231 454.284 159.194 454.228C159.156 454.173 159.106 454.129 159.048 454.1Z" fill="#4E4376"/>
<path d="M155.38 455.381C155.352 455.393 155.321 455.393 155.293 455.381C155.242 455.338 155.207 455.275 155.196 455.205C155.196 455.123 155.196 452.359 156.083 451.501C156.204 451.393 156.345 451.315 156.497 451.273C156.648 451.23 156.806 451.224 156.96 451.254C157.132 451.27 157.295 451.347 157.423 451.475C157.55 451.603 157.635 451.773 157.663 451.959C157.793 453.006 156.386 454.888 155.499 455.381C155.481 455.392 155.46 455.397 155.439 455.397C155.419 455.397 155.398 455.392 155.38 455.381ZM156.787 451.712C156.705 451.707 156.624 451.719 156.548 451.75C156.471 451.78 156.402 451.827 156.343 451.889C155.817 452.759 155.56 453.789 155.607 454.829C156.447 454.161 157.032 453.182 157.252 452.077C157.252 451.948 157.176 451.783 156.895 451.724L156.787 451.712Z" fill="#4E4376"/>
<path opacity="0.2" d="M157.436 443.151L156.289 450.948L146.475 448.937L147.265 440.117L157.436 443.151Z" fill="black"/>
<path d="M110.434 286.014C110.434 291.612 109.828 296.927 106.658 299.42C111.042 303.488 115.939 306.854 121.2 309.416C126.826 305.077 124.229 301.49 124.229 301.49C119.306 298.562 120.843 291.706 122.379 287.378C122.379 287.378 121.167 285.25 114.264 285.226C111.202 285.167 110.434 286.014 110.434 286.014Z" fill="#E4897B"/>
<path d="M83.8706 366.641C83.8706 366.641 73.808 397.569 102.33 397.569C130.851 397.569 133.156 385.48 130.743 371.25L83.8706 366.641Z" fill="#2E353A"/>
<path d="M130.743 371.121C130.743 371.121 161.147 372.509 169.089 383.881C177.031 395.253 158.42 449.913 158.42 449.913L143.478 445.997C143.478 445.997 151.69 408.73 148.596 403.908C145.501 399.086 128.687 398.792 105.965 397.499C83.2431 396.205 130.743 371.121 130.743 371.121Z" fill="#2E353A"/>
<path d="M103.855 298.503L106.69 291.271C106.69 291.271 122.866 291.906 127.778 299.914C132.69 307.923 103.855 298.503 103.855 298.503Z" fill="#4E4376"/>
<path d="M136.845 309.51C137.332 318.554 136.845 337.135 130.743 371.25L83.8707 366.641C84.1736 359.432 94.0956 334.724 91.9857 302.196C91.9076 301.043 92.0394 299.886 92.3736 298.789C92.7078 297.692 93.2379 296.677 93.9334 295.803C94.629 294.929 95.4763 294.213 96.4269 293.696C97.3775 293.178 98.4126 292.87 99.4731 292.788H99.7436C102.048 292.694 116.103 297.209 122.704 298.291C125.246 298.797 127.713 299.467 129.812 300.114C131.739 300.688 133.453 301.903 134.714 303.587C135.975 305.272 136.72 307.343 136.845 309.51Z" fill="#4E4376"/>
<path opacity="0.2" d="M136.845 309.51C137.332 318.554 136.845 337.135 130.743 371.25L83.8707 366.641C84.1736 359.432 94.0956 334.724 91.9857 302.196C91.9076 301.043 92.0394 299.886 92.3736 298.789C92.7078 297.692 93.2379 296.677 93.9334 295.803C94.629 294.929 95.4763 294.213 96.4269 293.696C97.3775 293.178 98.4126 292.87 99.4731 292.788H99.7436C102.048 292.694 116.103 297.209 122.704 298.291C125.246 298.797 127.713 299.467 129.812 300.114C131.739 300.688 133.453 301.903 134.714 303.587C135.975 305.272 136.72 307.343 136.845 309.51Z" fill="black"/>
<path d="M129.812 300.114C124.662 298.938 124.089 315.261 127.832 319.965C131.576 324.669 151.539 328.197 151.539 328.197L155.239 313.497C155.239 313.497 138.825 302.231 129.812 300.114Z" fill="#4E4376"/>
<path d="M108.41 285.438C108.41 285.438 101.821 283.474 98.7589 268.103C95.6969 252.733 109.168 245.877 124.435 249.205C139.702 252.533 132.236 276.253 118.949 285.438C115.538 286.737 111.821 286.737 108.41 285.438Z" fill="#2E353A"/>
<path d="M125.084 272.96C125.45 274.867 126.472 276.549 127.94 277.664C129.812 279.005 131.262 276.959 131.186 274.325C131.1 271.973 130.029 268.386 127.94 268.127C125.852 267.868 124.565 270.467 125.084 272.96Z" fill="#E4897B"/>
<path d="M106.917 482.841H113.68L115 421.183L115.389 402.873H105.219L105.608 421.183L106.917 482.841Z" fill="#4E4376"/>
<path opacity="0.4" d="M106.917 482.841H113.68L115 421.183L115.389 402.873H105.219L105.608 421.183L106.917 482.841Z" fill="white"/>
<path opacity="0.2" d="M115.389 402.873L115 421.689H105.608L105.219 402.873H115.389Z" fill="black"/>
<path d="M146.042 482.841L141.768 404.167H132.928L138.912 482.841H146.042Z" fill="#4E4376"/>
<path opacity="0.5" d="M138.901 482.841H146.042L142.255 413.104L141.768 404.049H132.928L133.61 413.104L138.901 482.841Z" fill="white"/>
<path opacity="0.2" d="M132.928 404.049L133.61 413.457H142.255L141.768 404.049H132.928Z" fill="black"/>
<path d="M81.685 482.841L87.6685 404.167H78.8285L74.5654 482.841H81.685Z" fill="#4E4376"/>
<path opacity="0.5" d="M81.7066 482.841L86.9868 413.104L87.6685 404.049H78.8285L78.3416 413.104L74.5654 482.841H81.7066Z" fill="white"/>
<path opacity="0.2" d="M87.6684 404.049L86.9868 413.457H78.3416L78.8285 404.049H87.6684Z" fill="black"/>
<path d="M79.5102 393.853H141.098C141.808 393.853 142.512 394.005 143.168 394.301C143.824 394.596 144.421 395.029 144.923 395.575C145.425 396.121 145.824 396.77 146.096 397.483C146.368 398.196 146.508 398.961 146.508 399.733V407.577H74.1002V399.71C74.1059 398.154 74.6784 396.665 75.6923 395.567C76.7063 394.469 78.0791 393.853 79.5102 393.853Z" fill="#4E4376"/>
<path d="M102.504 318.199L97.144 318.997L107.764 403.258L113.124 402.46L102.504 318.199Z" fill="#4E4376"/>
<path d="M68.9585 318.195L63.5986 318.993L74.2183 403.255L79.5783 402.457L68.9585 318.195Z" fill="#4E4376"/>
<g opacity="0.4">
<path opacity="0.4" d="M102.504 318.199L97.144 318.997L107.764 403.258L113.124 402.46L102.504 318.199Z" fill="white"/>
</g>
<g opacity="0.4">
<path opacity="0.4" d="M68.9585 318.195L63.5986 318.993L74.2183 403.255L79.5783 402.457L68.9585 318.195Z" fill="white"/>
</g>
<path d="M147.795 400.733H72.8017C71.6006 400.733 70.6269 401.791 70.6269 403.097V405.237C70.6269 406.542 71.6006 407.601 72.8017 407.601H147.795C148.996 407.601 149.97 406.542 149.97 405.237V403.097C149.97 401.791 148.996 400.733 147.795 400.733Z" fill="#4E4376"/>
<path opacity="0.6" d="M147.795 400.733H72.8017C71.6006 400.733 70.6269 401.791 70.6269 403.097V405.237C70.6269 406.542 71.6006 407.601 72.8017 407.601H147.795C148.996 407.601 149.97 406.542 149.97 405.237V403.097C149.97 401.791 148.996 400.733 147.795 400.733Z" fill="white"/>
<path d="M109.99 346.766H61.8519L58 314.12H106.138L109.99 346.766Z" fill="#4E4376"/>
<path opacity="0.6" d="M109.99 346.766H61.8519L58 314.12H106.138L109.99 346.766Z" fill="white"/>
</svg>
